<svg width="120" height="120" viewBox="0 0 120 120" fill="none" xmlns="http://www.w3.org/2000/svg">
<g clip-path="url(#clip0_1029_567)">
<path d="M88.8789 0H120V31.1214H88.8789V0ZM118.512 1.48859H90.3675V29.6328H118.512V1.48859Z" fill="#1200B6"/>
<path d="M59.2461 29.6328H90.3675V60.7344H59.2461V29.6328ZM88.8789 31.1214H60.7347V59.2458H88.8789V31.1214Z" fill="#1200B6"/>
<path d="M29.6328 29.6328H60.7343V60.7344H29.6328V29.6328ZM59.2457 31.1214H31.1214V59.2458H59.2457V31.1214Z" fill="#1200B6"/>
<path d="M59.2461 59.2456H90.3675V90.367H59.2461V59.2456ZM88.8789 60.7342H60.7347V88.8784H88.8789V60.7342Z" fill="#1200B6"/>
<path d="M59.2461 0H90.3675V31.1214H59.2461V0ZM88.8789 1.48859H60.7347V29.6328H88.8789V1.48859Z" fill="#1200B6"/>
<path d="M29.6328 0H60.7343V31.1214H29.6328V0ZM59.2457 1.48859H31.1214V29.6328H59.2457V1.48859Z" fill="#1200B6"/>
<path d="M0 0H31.1214V31.1214H0V0ZM29.6328 1.48859H1.48859V29.6328H29.6328V1.48859Z" fill="#1200B6"/>
<path d="M88.8789 29.6328H120V60.7344H88.8789V29.6328ZM118.512 31.1214H90.3675V59.2458H118.512V31.1214Z" fill="#1200B6"/>
<path d="M88.8789 59.2456H120V90.367H88.8789V59.2456ZM118.512 60.7342H90.3675V88.8784H118.512V60.7342Z" fill="#1200B6"/>
<path d="M88.8789 88.8784H120V120H88.8789V88.8784ZM118.512 90.367H90.3675V118.511H118.512V90.367Z" fill="#1200B6"/>
</g>
<defs>
<clipPath id="clip0_1029_567">
<rect width="120" height="120" fill="white"/>
</clipPath>
</defs>
</svg>
