<svg width="120" height="120" viewBox="0 0 120 120" fill="none" xmlns="http://www.w3.org/2000/svg">
<g clip-path="url(#clip0_1029_510)">
<path d="M59.9948 120.011C48.1268 120.011 36.5254 116.492 26.6575 109.898C16.7897 103.305 9.09861 93.9332 4.55694 82.9686C0.0152708 72.004 -1.17306 59.9389 1.14227 48.299C3.45759 36.6591 9.17254 25.9671 17.5645 17.5752C25.9564 9.18331 36.6484 3.46834 48.2883 1.15301C59.9282 -1.16231 71.9933 0.0260004 82.9578 4.56767C93.9224 9.10934 103.294 16.8004 109.887 26.6682C116.481 36.5361 120 48.1375 120 60.0055C119.983 75.9146 113.655 91.1671 102.406 102.417C91.1564 113.666 75.9039 119.994 59.9948 120.011ZM59.9948 6.21504C49.3426 6.21504 38.9296 9.37392 30.0728 15.2922C21.216 21.2105 14.3131 29.6223 10.2372 39.4638C6.16125 49.3054 5.09534 60.1346 7.17428 70.582C9.25322 81.0293 14.3836 90.6256 21.9166 98.157C29.4496 105.689 39.0469 110.817 49.4947 112.894C59.9425 114.971 70.7715 113.902 80.6122 109.825C90.4529 105.747 98.8634 98.8421 104.78 89.984C110.696 81.126 113.853 70.7124 113.851 60.0602C113.848 45.7735 108.174 32.0722 98.0762 21.9659C87.9781 11.8596 74.2814 6.17482 59.9948 6.16032V6.21504Z" fill="#1200B6"/>
</g>
<defs>
<clipPath id="clip0_1029_510">
<rect width="120" height="120" fill="white"/>
</clipPath>
</defs>
</svg>
