<svg width="120" height="120" viewBox="0 0 120 120" fill="none" xmlns="http://www.w3.org/2000/svg">
<g clip-path="url(#clip0_1029_595)">
<path d="M97.6093 13.2461C97.1136 12.8468 96.6042 12.4612 96.0947 12.0757L12.1016 96.1377C12.4733 96.6471 12.8727 97.1428 13.272 97.6385L97.6093 13.2461Z" fill="#1200B6"/>
<path d="M77.1068 2.46503C76.4183 2.25849 75.7299 2.06572 75.0139 1.88672L1.88477 75.002C2.06836 75.7089 2.26113 76.4111 2.46308 77.1088L77.1068 2.46503Z" fill="#1200B6"/>
<path d="M91.5392 8.92265C90.9884 8.57841 90.4239 8.24795 89.8594 7.91748L7.93164 89.859C8.24834 90.4097 8.5788 90.9743 8.92304 91.5251L91.5392 8.92265Z" fill="#1200B6"/>
<path d="M84.7224 5.2869L82.8497 4.48828L4.48828 82.8222C4.7499 83.4418 5.0253 84.0614 5.30069 84.6811L84.7224 5.2869Z" fill="#1200B6"/>
<path d="M68.5457 0.592378C67.747 0.468454 66.9484 0.385839 66.1498 0.303223L0.304688 66.1483C0.387304 66.9469 0.483677 67.7456 0.593832 68.5304L68.5457 0.592378Z" fill="#1200B6"/>
<path d="M102.443 17.5559L101.769 16.895L16.9082 101.756C17.1285 101.99 17.335 102.21 17.5691 102.43C17.8032 102.651 18.0098 102.885 18.2438 103.105L103.118 18.2306L102.443 17.5559Z" fill="#1200B6"/>
<path d="M58.685 0C57.7487 0 56.8262 2.0518e-07 55.9312 0.123924L0.123919 55.8761C0.0688418 56.794 0.0275387 57.712 0 58.63L58.685 0Z" fill="#1200B6"/>
<path d="M1.44727 46.7878L46.8036 1.44531C45.5919 1.7207 44.3939 2.02362 43.196 2.36786L2.38357 43.1803C2.03934 44.3782 1.72265 45.645 1.44727 46.7878Z" fill="#1200B6"/>
<path d="M119.876 64.1103C119.944 63.1878 119.986 62.2515 119.999 61.3564L61.3145 120C62.2508 120 63.1871 120 64.0683 119.876L119.876 64.1103Z" fill="#1200B6"/>
<path d="M119.641 53.9071C119.577 53.1085 119.481 52.3099 119.352 51.5112L51.4141 119.463C52.1989 119.573 52.9975 119.67 53.7962 119.752L119.641 53.9071Z" fill="#1200B6"/>
<path d="M29.5214 8.28906C20.7717 13.4632 13.4689 20.7613 8.28906 29.5077L29.5214 8.28906Z" fill="#1200B6"/>
<path d="M117.631 76.8058C117.975 75.6216 118.278 74.4099 118.553 73.1982L73.2109 118.623C74.4226 118.348 75.6206 118.031 76.8185 117.687L117.631 76.8058Z" fill="#1200B6"/>
<path d="M90.4941 111.738C99.2411 106.555 106.543 99.2528 111.726 90.5059L90.4941 111.738Z" fill="#1200B6"/>
<path d="M112.082 30.1408L111.077 28.4609L28.4609 111.077C29.0117 111.421 29.5763 111.752 30.1408 112.082L112.082 30.1408Z" fill="#1200B6"/>
<path d="M107.924 23.8627C107.539 23.3532 107.153 22.8575 106.754 22.3618L22.3613 106.74C22.857 107.14 23.3527 107.539 23.8622 107.925L107.924 23.8627Z" fill="#1200B6"/>
<path d="M118.115 44.9845C117.936 44.2823 117.757 43.6076 117.55 42.8916L42.8926 117.535C43.5994 117.746 44.3016 117.939 44.9993 118.114L118.115 44.9845Z" fill="#1200B6"/>
<path d="M115.513 37.15C115.265 36.5304 114.99 35.897 114.715 35.2773L35.293 114.699C35.9126 114.988 36.5322 115.25 37.1656 115.511L115.513 37.15Z" fill="#1200B6"/>
</g>
<defs>
<clipPath id="clip0_1029_595">
<rect width="120" height="120" fill="white"/>
</clipPath>
</defs>
</svg>
