<svg width="120" height="120" viewBox="0 0 120 120" fill="none" xmlns="http://www.w3.org/2000/svg">
<path fill-rule="evenodd" clip-rule="evenodd" d="M60.5 2.47156C28.4518 2.47156 2.47156 28.4518 2.47156 60.5C2.47156 92.5482 28.4518 118.528 60.5 118.528C92.5482 118.528 118.528 92.5482 118.528 60.5C118.528 28.4518 92.5482 2.47156 60.5 2.47156ZM2 60.5C2 28.1913 28.1913 2 60.5 2C92.8087 2 119 28.1913 119 60.5C119 92.8087 92.8087 119 60.5 119C28.1913 119 2 92.8087 2 60.5Z" fill="#FF4B4C"/>
<path fill-rule="evenodd" clip-rule="evenodd" d="M60.5 5.47301C30.6593 5.47301 6.46871 29.8856 6.46871 60C6.46871 90.1144 30.6593 114.527 60.5 114.527C90.3407 114.527 114.531 90.1144 114.531 60C114.531 29.8856 90.3407 5.47301 60.5 5.47301ZM6 60C6 29.6243 30.4005 5 60.5 5C90.5995 5 115 29.6243 115 60C115 90.3757 90.5995 115 60.5 115C30.4005 115 6 90.3757 6 60Z" fill="#FF4B4C"/>
<path fill-rule="evenodd" clip-rule="evenodd" d="M61 9.47005C33.0931 9.47005 10.47 32.0931 10.47 60C10.47 87.9069 33.0931 110.53 61 110.53C88.9069 110.53 111.53 87.9069 111.53 60C111.53 32.0931 88.9069 9.47005 61 9.47005ZM10 60C10 31.8335 32.8335 9 61 9C89.1665 9 112 31.8335 112 60C112 88.1665 89.1665 111 61 111C32.8335 111 10 88.1665 10 60Z" fill="#FF4B4C"/>
<path fill-rule="evenodd" clip-rule="evenodd" d="M60.5 13.4716C34.5269 13.4716 13.4716 34.5269 13.4716 60.5C13.4716 86.4731 34.5269 107.528 60.5 107.528C86.4731 107.528 107.528 86.4731 107.528 60.5C107.528 34.5269 86.4731 13.4716 60.5 13.4716ZM13 60.5C13 34.2665 34.2665 13 60.5 13C86.7335 13 108 34.2665 108 60.5C108 86.7335 86.7335 108 60.5 108C34.2665 108 13 86.7335 13 60.5Z" fill="#FF4B4C"/>
<path fill-rule="evenodd" clip-rule="evenodd" d="M60.5 16.4734C36.7341 16.4734 17.468 35.9609 17.468 60C17.468 84.0391 36.7341 103.527 60.5 103.527C84.2659 103.527 103.532 84.0391 103.532 60C103.532 35.9609 84.2659 16.4734 60.5 16.4734ZM17 60C17 35.6995 36.4756 16 60.5 16C84.5244 16 104 35.6995 104 60C104 84.3005 84.5244 104 60.5 104C36.4756 104 17 84.3005 17 60Z" fill="#FF4B4C"/>
<path fill-rule="evenodd" clip-rule="evenodd" d="M61 20.4697C39.168 20.4697 21.4697 38.168 21.4697 60C21.4697 81.832 39.168 99.5303 61 99.5303C82.832 99.5303 100.53 81.832 100.53 60C100.53 38.168 82.832 20.4697 61 20.4697ZM21 60C21 37.9086 38.9086 20 61 20C83.0914 20 101 37.9086 101 60C101 82.0914 83.0914 100 61 100C38.9086 100 21 82.0914 21 60Z" fill="#FF4B4C"/>
<path fill-rule="evenodd" clip-rule="evenodd" d="M36.63 7.91893C29.7441 11.0753 23.5487 15.5698 18.4011 21.1431C13.2534 26.7164 9.25549 33.2583 6.63788 40.3913C4.02028 47.5243 2.83481 55.1073 3.14988 62.7028C3.46495 70.2983 5.2743 77.7559 8.47358 84.6455C11.6729 91.5351 16.1987 97.7204 21.7901 102.844C27.3814 107.968 33.9277 111.93 41.051 114.5C48.1744 117.07 55.734 118.198 63.2937 117.819C70.8534 117.44 78.2635 115.561 85.0966 112.292L86 114.196C78.9166 117.585 71.235 119.533 63.3984 119.926C55.5618 120.319 47.7253 119.149 40.341 116.485C32.9567 113.821 26.1707 109.714 20.3745 104.403C14.5783 99.0908 9.88669 92.6791 6.57022 85.5371C3.25376 78.3951 1.37812 70.6643 1.05152 62.7906C0.724908 54.9169 1.9538 47.0561 4.66729 39.6618C7.38077 32.2675 11.5252 25.486 16.8613 19.7086C22.1975 13.9311 28.6199 9.27196 35.758 6L36.63 7.91893Z" fill="#FF4B4C"/>
<path fill-rule="evenodd" clip-rule="evenodd" d="M37.9429 11.8982C25.0985 17.8967 15.1598 28.759 10.3133 42.0954C5.46673 55.4318 6.10929 70.15 12.0996 83.012C18.0899 95.874 28.9373 105.826 42.2555 110.679C55.5736 115.533 70.2716 114.889 83.1159 108.891L84 110.789C70.6529 117.022 55.3797 117.691 41.5402 112.648C27.7008 107.604 16.4288 97.2627 10.204 83.8972C3.97924 70.5318 3.31152 55.2376 8.34777 41.3792C13.384 27.5208 23.7117 16.2333 37.0588 10L37.9429 11.8982Z" fill="#FF4B4C"/>
<path fill-rule="evenodd" clip-rule="evenodd" d="M39.5834 14.9023C33.5351 17.6221 28.0918 21.5007 23.568 26.3139C19.0441 31.127 15.5296 36.7793 13.2274 42.944C10.9253 49.1088 9.88117 55.6637 10.1555 62.2299C10.4297 68.7962 12.017 75.2436 14.8255 81.1994C17.6339 87.1553 21.6079 92.5015 26.5177 96.9291C31.4275 101.357 37.1758 104.778 43.4304 106.995C49.6849 109.212 56.3216 110.181 62.957 109.846C69.5924 109.51 76.0948 107.878 82.0884 105.042L83 106.927C76.7545 109.882 69.9789 111.583 63.0648 111.933C56.1506 112.282 49.235 111.272 42.7177 108.962C36.2003 106.652 30.2105 103.087 25.0944 98.4733C19.9783 93.8597 15.8373 88.2888 12.9109 82.0827C9.98442 75.8766 8.33048 69.1583 8.04467 62.3162C7.75886 55.4741 8.84684 48.6437 11.2457 42.22C13.6446 35.7962 17.3068 29.9065 22.0207 24.8911C26.7346 19.8757 32.4067 15.8341 38.7091 13L39.5834 14.9023Z" fill="#FF4B4C"/>
<path fill-rule="evenodd" clip-rule="evenodd" d="M40.895 17.8972C29.742 23.0716 21.1116 32.4424 16.9025 43.9482C12.6934 55.454 13.2502 68.1522 18.4506 79.2494C23.651 90.3467 33.0688 98.9339 44.6324 103.122C56.1959 107.31 68.9579 106.756 80.1109 101.582L81 103.479C69.3413 108.888 56.0006 109.467 43.9128 105.089C31.8249 100.711 21.98 91.7345 16.5438 80.1341C11.1077 68.5336 10.5255 55.2596 14.9255 43.2322C19.3255 31.2047 28.3472 21.409 40.0059 16L40.895 17.8972Z" fill="#FF4B4C"/>
<path fill-rule="evenodd" clip-rule="evenodd" d="M42.3415 21.895C32.2209 26.6974 24.4046 35.3326 20.6025 45.9117C16.8004 56.4909 17.322 68.1528 22.053 78.3465C26.7841 88.5402 35.3396 96.4359 45.8481 100.306C56.3566 104.177 67.9626 103.707 78.1274 99.0002L79 100.903C68.3345 105.842 56.1567 106.335 45.1306 102.274C34.1045 98.2128 25.1275 89.9282 20.1634 79.2323C15.1992 68.5365 14.652 56.3001 18.6414 45.1998C22.6308 34.0995 30.8321 25.0389 41.4512 20L42.3415 21.895Z" fill="#FF4B4C"/>
<path fill-rule="evenodd" clip-rule="evenodd" d="M44.4096 24.8967C39.8066 27.0525 35.6717 30.0973 32.241 33.8573C28.8102 37.6172 26.1509 42.0186 24.4147 46.8102C22.6785 51.6018 21.8996 56.6897 22.1223 61.7835C22.345 66.8773 23.565 71.8772 25.7127 76.4977C27.8604 81.1182 30.8937 85.2688 34.6394 88.7125C38.3851 92.1563 42.7698 94.8258 47.5433 96.5685C52.3167 98.3113 57.3854 99.0932 62.4599 98.8697C67.5344 98.6461 72.5154 97.4214 77.1184 95.2656L78 97.1623C73.1489 99.4343 67.8994 100.725 62.5514 100.961C57.2033 101.196 51.8614 100.372 46.8306 98.5355C41.7998 96.6988 37.1787 93.8854 33.2311 90.256C29.2835 86.6266 26.0867 82.2522 23.8232 77.3826C21.5597 72.5131 20.2739 67.2437 20.0392 61.8753C19.8045 56.5069 20.6254 51.1447 22.4552 46.0948C24.285 41.0449 27.0877 36.4062 30.7034 32.4436C34.319 28.481 38.6768 25.2721 43.528 23L44.4096 24.8967Z" fill="#FF4B4C"/>
</svg>
