<svg width="120" height="120" viewBox="0 0 120 120" fill="none" xmlns="http://www.w3.org/2000/svg">
<path d="M0 42.2527L17.7052 59.9998L0 77.7381V82.4801L22.4272 59.9998L0 37.5195V42.2527Z" fill="#FF4B4C"/>
<path d="M19.8412 29H15.1104L46.0371 60L15.1104 91H19.8412L50.7679 60L19.8412 29Z" fill="#FF4B4C"/>
<path d="M5.67514 29H0.944336L31.8711 60L0.944336 91H5.67514L36.6019 60L5.67514 29Z" fill="#FF4B4C"/>
<path d="M120 29.982L119.02 29H114.289L120 34.724V29.982Z" fill="#FF4B4C"/>
<path d="M120 44.1904L104.855 29H100.124L120 48.9235V44.1904Z" fill="#FF4B4C"/>
<path d="M0 56.4524L3.53045 60.0001L0 63.5389V68.2809L8.26125 60.0001L0 51.7192V56.4524Z" fill="#FF4B4C"/>
<path d="M120 58.3898L90.68 29H85.958L116.885 60L85.958 91H90.68L120 61.6102V58.3898Z" fill="#FF4B4C"/>
<path d="M120 71.0679L100.124 91.0002H104.855L120 75.8099V71.0679Z" fill="#FF4B4C"/>
<path d="M120 85.2759L114.289 90.9999H119.02L120 90.009V85.2759Z" fill="#FF4B4C"/>
<path d="M48.182 29H43.4512L74.3779 60L43.4512 91H48.1732L79.0999 60L48.182 29Z" fill="#FF4B4C"/>
<path d="M34.0071 29H29.2852L60.2119 60L29.2852 91H34.0071L64.9339 60L34.0071 29Z" fill="#FF4B4C"/>
<path d="M76.514 29H71.7832L102.71 60L71.7832 91H76.514L107.441 60L76.514 29Z" fill="#FF4B4C"/>
<path d="M62.348 29H57.6172L88.5439 60L57.6172 91H62.348L93.2747 60L62.348 29Z" fill="#FF4B4C"/>
</svg>
