<svg width="120" height="120" viewBox="0 0 120 120" fill="none" xmlns="http://www.w3.org/2000/svg">
<g clip-path="url(#clip0_1029_528)">
<path d="M5.83543 2.9176C5.83543 3.49464 5.66432 4.05876 5.34372 4.53856C5.02312 5.01836 4.56744 5.39232 4.0343 5.61314C3.50115 5.83397 2.91448 5.89173 2.3485 5.77915C1.78251 5.66657 1.26263 5.38871 0.854577 4.98067C0.446526 4.57264 0.168651 4.05277 0.0560699 3.48681C-0.0565111 2.92085 0.00124885 2.33419 0.222084 1.80107C0.44292 1.26794 0.816888 0.812287 1.29671 0.491695C1.77652 0.171104 2.34066 0 2.91773 0C3.69044 0.0036362 4.43044 0.312195 4.97683 0.858568C5.52323 1.40494 5.8318 2.14492 5.83543 2.9176V2.9176Z" fill="#1200B6"/>
<path d="M43.8901 2.9176C43.8901 3.49464 43.719 4.05876 43.3984 4.53856C43.0778 5.01836 42.6221 5.39232 42.0889 5.61314C41.5558 5.83397 40.9692 5.89173 40.4032 5.77915C39.8372 5.66657 39.3173 5.38871 38.9093 4.98067C38.5012 4.57264 38.2233 4.05277 38.1108 3.48681C37.9982 2.92085 38.0559 2.33419 38.2768 1.80107C38.4976 1.26794 38.8716 0.812287 39.3514 0.491695C39.8313 0.171104 40.3953 0 40.9724 0C41.3556 0 41.7349 0.0754661 42.0889 0.22209C42.4429 0.368714 42.7646 0.583634 43.0356 0.854559C43.3065 1.12548 43.5214 1.44709 43.6681 1.80107C43.8147 2.15505 43.8901 2.53445 43.8901 2.9176V2.9176Z" fill="#1200B6"/>
<path d="M81.9448 2.9176C81.9448 3.49464 81.7737 4.05876 81.4531 4.53856C81.1325 5.01836 80.6768 5.39232 80.1436 5.61314C79.6105 5.83397 79.0238 5.89173 78.4578 5.77915C77.8918 5.66657 77.372 5.38871 76.964 4.98067C76.5559 4.57264 76.278 4.05277 76.1654 3.48681C76.0529 2.92085 76.1106 2.33419 76.3315 1.80107C76.5523 1.26794 76.9262 0.812287 77.406 0.491695C77.8859 0.171104 78.45 0 79.0271 0C79.4103 0 79.7896 0.0754661 80.1436 0.22209C80.4976 0.368714 80.8193 0.583634 81.0903 0.854559C81.3612 1.12548 81.576 1.44709 81.7227 1.80107C81.8693 2.15505 81.9448 2.53445 81.9448 2.9176V2.9176Z" fill="#1200B6"/>
<path d="M117.082 5.83523C118.693 5.83523 120 4.52897 120 2.91762C120 1.30626 118.693 0 117.082 0C115.47 0 114.164 1.30626 114.164 2.91762C114.164 4.52897 115.47 5.83523 117.082 5.83523Z" fill="#1200B6"/>
<path d="M5.83544 40.6394C5.83541 41.2176 5.66358 41.7828 5.34174 42.2632C5.0199 42.7436 4.56256 43.1175 4.0278 43.3375C3.49304 43.5575 2.90497 43.6136 2.33824 43.4988C1.77152 43.3839 1.25172 43.1033 0.844788 42.6925C0.43786 42.2817 0.162176 41.7593 0.052738 41.1915C-0.0567003 40.6237 0.00502191 40.0362 0.230104 39.5036C0.455187 38.971 0.83348 38.5172 1.31692 38.2C1.80036 37.8828 2.36716 37.7163 2.94537 37.7218C3.7144 37.7291 4.44947 38.0397 4.99068 38.5861C5.53189 39.1324 5.83547 39.8704 5.83544 40.6394V40.6394Z" fill="#1200B6"/>
<path d="M43.8901 40.6393C43.8901 41.2164 43.719 41.7805 43.3984 42.2603C43.0778 42.7401 42.6221 43.114 42.0889 43.3349C41.5558 43.5557 40.9692 43.6134 40.4032 43.5009C39.8372 43.3883 39.3173 43.1104 38.9093 42.7024C38.5012 42.2943 38.2233 41.7745 38.1108 41.2085C37.9982 40.6426 38.0559 40.0559 38.2768 39.5228C38.4976 38.9897 38.8716 38.534 39.3514 38.2134C39.8313 37.8928 40.3953 37.7217 40.9724 37.7217C41.3561 37.7199 41.7363 37.7941 42.0911 37.94C42.446 38.086 42.7683 38.3009 43.0396 38.5722C43.3109 38.8435 43.5258 39.1658 43.6718 39.5206C43.8178 39.8754 43.892 40.2556 43.8901 40.6393V40.6393Z" fill="#1200B6"/>
<path d="M81.9448 40.6391C81.9448 41.2149 81.7744 41.778 81.455 42.2571C81.1356 42.7363 80.6815 43.1103 80.15 43.3319C79.6184 43.5535 79.0332 43.6128 78.468 43.5025C77.9028 43.3921 77.3828 43.117 76.9737 42.7117C76.5646 42.3065 76.2845 41.7892 76.1688 41.225C76.0532 40.6609 76.107 40.0752 76.3236 39.5416C76.5402 39.008 76.9099 38.5505 77.3861 38.2266C77.8622 37.9027 78.4236 37.7269 78.9994 37.7215C79.3854 37.716 79.7687 37.7874 80.1267 37.9318C80.4847 38.0761 80.8104 38.2904 81.0846 38.562C81.3589 38.8337 81.5762 39.1573 81.7239 39.5139C81.8716 39.8706 81.9467 40.2531 81.9448 40.6391V40.6391Z" fill="#1200B6"/>
<path d="M117.082 43.5569C118.693 43.5569 120 42.2506 120 40.6393C120 39.0279 118.693 37.7217 117.082 37.7217C115.47 37.7217 114.164 39.0279 114.164 40.6393C114.164 42.2506 115.47 43.5569 117.082 43.5569Z" fill="#1200B6"/>
<path d="M5.83543 78.361C5.83543 78.938 5.66432 79.5021 5.34372 79.9819C5.02312 80.4617 4.56744 80.8357 4.0343 81.0565C3.50115 81.2773 2.91448 81.3351 2.3485 81.2225C1.78251 81.1099 1.26263 80.8321 0.854577 80.424C0.446526 80.016 0.168651 79.4961 0.0560699 78.9302C-0.0565111 78.3642 0.00124885 77.7776 0.222084 77.2444C0.44292 76.7113 0.816888 76.2556 1.29671 75.9351C1.77652 75.6145 2.34066 75.4434 2.91773 75.4434C3.69156 75.4434 4.43366 75.7508 4.98084 76.2979C5.52802 76.8451 5.83543 77.5872 5.83543 78.361V78.361Z" fill="#1200B6"/>
<path d="M43.8901 78.361C43.8901 78.938 43.719 79.5022 43.3984 79.982C43.0778 80.4618 42.6221 80.8357 42.0889 81.0565C41.5558 81.2774 40.9692 81.3351 40.4032 81.2226C39.8372 81.11 39.3173 80.8321 38.9093 80.4241C38.5012 80.016 38.2233 79.4962 38.1108 78.9302C37.9982 78.3642 38.0559 77.7776 38.2768 77.2445C38.4976 76.7113 38.8716 76.2557 39.3514 75.9351C39.8313 75.6145 40.3953 75.4434 40.9724 75.4434C41.3561 75.4416 41.7363 75.5158 42.0911 75.6617C42.446 75.8077 42.7683 76.0226 43.0396 76.2939C43.3109 76.5652 43.5258 76.8875 43.6718 77.2423C43.8178 77.5971 43.892 77.9773 43.8901 78.361V78.361Z" fill="#1200B6"/>
<path d="M81.9448 78.361C81.9448 78.938 81.7737 79.5022 81.4531 79.982C81.1325 80.4618 80.6768 80.8357 80.1436 81.0565C79.6105 81.2774 79.0238 81.3351 78.4578 81.2226C77.8918 81.11 77.372 80.8321 76.964 80.4241C76.5559 80.016 76.278 79.4962 76.1654 78.9302C76.0529 78.3642 76.1106 77.7776 76.3315 77.2445C76.5523 76.7113 76.9262 76.2557 77.406 75.9351C77.8859 75.6145 78.45 75.4434 79.0271 75.4434C79.4108 75.4416 79.791 75.5158 80.1458 75.6617C80.5007 75.8077 80.823 76.0226 81.0943 76.2939C81.3656 76.5652 81.5805 76.8875 81.7265 77.2423C81.8725 77.5971 81.9466 77.9773 81.9448 78.361V78.361Z" fill="#1200B6"/>
<path d="M120 78.361C120 78.938 119.828 79.5022 119.508 79.982C119.187 80.4618 118.732 80.8357 118.198 81.0565C117.665 81.2774 117.079 81.3351 116.513 81.2226C115.947 81.11 115.427 80.8321 115.019 80.4241C114.611 80.016 114.333 79.4962 114.22 78.9302C114.108 78.3642 114.165 77.7776 114.386 77.2445C114.607 76.7113 114.981 76.2557 115.461 75.9351C115.941 75.6145 116.505 75.4434 117.082 75.4434C117.465 75.4416 117.846 75.5158 118.2 75.6617C118.555 75.8077 118.878 76.0226 119.149 76.2939C119.42 76.5652 119.635 76.8875 119.781 77.2423C119.927 77.5971 120.001 77.9773 120 78.361V78.361Z" fill="#1200B6"/>
<path d="M5.83543 116.082C5.83543 116.659 5.66432 117.223 5.34372 117.703C5.02312 118.183 4.56744 118.557 4.0343 118.778C3.50115 118.999 2.91448 119.056 2.3485 118.944C1.78251 118.831 1.26263 118.553 0.854577 118.145C0.446526 117.737 0.168651 117.217 0.0560699 116.651C-0.0565111 116.085 0.00124885 115.499 0.222084 114.966C0.44292 114.432 0.816888 113.977 1.29671 113.656C1.77652 113.336 2.34066 113.165 2.91773 113.165C3.69156 113.165 4.43366 113.472 4.98084 114.019C5.52802 114.566 5.83543 115.308 5.83543 116.082V116.082Z" fill="#1200B6"/>
<path d="M43.8901 116.082C43.8901 116.659 43.719 117.223 43.3984 117.703C43.0778 118.183 42.6221 118.557 42.0889 118.778C41.5558 118.999 40.9692 119.056 40.4032 118.944C39.8372 118.831 39.3173 118.553 38.9093 118.145C38.5012 117.737 38.2233 117.217 38.1108 116.651C37.9982 116.085 38.0559 115.499 38.2768 114.966C38.4976 114.433 38.8716 113.977 39.3514 113.656C39.8313 113.336 40.3953 113.165 40.9724 113.165C41.3561 113.163 41.7363 113.237 42.0911 113.383C42.446 113.529 42.7683 113.744 43.0396 114.015C43.3109 114.286 43.5258 114.609 43.6718 114.964C43.8178 115.318 43.892 115.699 43.8901 116.082V116.082Z" fill="#1200B6"/>
<path d="M81.9448 116.082C81.9448 116.659 81.7737 117.223 81.4531 117.703C81.1325 118.183 80.6768 118.557 80.1436 118.778C79.6105 118.999 79.0238 119.056 78.4578 118.944C77.8918 118.831 77.372 118.553 76.964 118.145C76.5559 117.737 76.278 117.217 76.1654 116.651C76.0529 116.085 76.1106 115.499 76.3315 114.966C76.5523 114.433 76.9262 113.977 77.406 113.656C77.8859 113.336 78.45 113.165 79.0271 113.165C79.4108 113.163 79.791 113.237 80.1458 113.383C80.5007 113.529 80.823 113.744 81.0943 114.015C81.3656 114.286 81.5805 114.609 81.7265 114.964C81.8725 115.318 81.9466 115.699 81.9448 116.082V116.082Z" fill="#1200B6"/>
<path d="M117.082 119C118.693 119 120 117.694 120 116.082C120 114.471 118.693 113.165 117.082 113.165C115.47 113.165 114.164 114.471 114.164 116.082C114.164 117.694 115.47 119 117.082 119Z" fill="#1200B6"/>
</g>
<defs>
<clipPath id="clip0_1029_528">
<rect width="120" height="120" fill="white"/>
</clipPath>
</defs>
</svg>
