<svg width="120" height="120" viewBox="0 0 120 120" fill="none" xmlns="http://www.w3.org/2000/svg">
<g clip-path="url(#clip0_1029_389)">
<path d="M60.0172 102.177C51.6601 102.177 43.4906 99.6997 36.5419 95.058C29.5931 90.4164 24.1773 83.819 20.9791 76.1002C17.781 68.3814 16.9442 59.8879 18.5746 51.6937C20.205 43.4995 24.2293 35.9726 30.1387 30.0649C36.0481 24.1572 43.5772 20.134 51.7737 18.5041C59.9703 16.8741 68.4662 17.7107 76.1872 20.9079C83.9082 24.1051 90.5075 29.5194 95.1504 36.4662C99.7934 43.4129 102.272 51.58 102.272 59.9348C102.249 71.1311 97.7894 81.8622 89.8701 89.7792C81.9509 97.6962 71.2167 102.154 60.0172 102.177V102.177ZM60.0172 22.0037C52.513 22.0037 45.1773 24.2283 38.9378 28.3963C32.6983 32.5642 27.8352 38.4882 24.9634 45.4192C22.0917 52.3502 21.3403 59.9769 22.8043 67.3348C24.2683 74.6927 27.8819 81.4513 33.1882 86.7561C38.4945 92.0608 45.255 95.6734 52.615 97.137C59.9751 98.6006 67.6039 97.8494 74.5369 94.9785C81.4698 92.1076 87.3956 87.2459 91.5647 81.0081C95.7338 74.7704 97.959 67.4368 97.959 59.9348C97.9475 49.8784 93.9464 40.2372 86.8334 33.1262C79.7204 26.0153 70.0765 22.0153 60.0172 22.0037V22.0037Z" fill="#171714"/>
<path d="M6.95957 119.989C6.0307 120.042 5.10069 119.907 4.22502 119.593C3.34936 119.279 2.54601 118.791 1.86291 118.16C-5.58607 110.713 11.0108 87.6755 21.5526 74.6109C21.9272 74.2142 22.437 73.9725 22.9813 73.9336C23.5256 73.8948 24.0646 74.0615 24.4918 74.401C24.9189 74.7404 25.2031 75.2278 25.288 75.7666C25.3729 76.3055 25.2525 76.8566 24.9504 77.3109C6.13192 100.653 2.69056 112.934 4.91218 115.198C7.13381 117.463 19.2003 114.066 42.7234 95.1224C52.3602 87.3564 61.5654 79.0698 70.2977 70.2995C79.0711 61.6009 87.3602 52.4274 95.1276 42.8202C113.946 19.3909 117.431 7.11017 115.209 4.88918C112.988 2.66819 100.878 5.9779 77.3111 24.9652C77.0908 25.1425 76.8378 25.2747 76.5664 25.3542C76.2951 25.4337 76.0108 25.459 75.7296 25.4287C75.4485 25.3984 75.1761 25.313 74.928 25.1774C74.6798 25.0419 74.4609 24.8588 74.2835 24.6386C74.1062 24.4184 73.974 24.1655 73.8944 23.8942C73.8149 23.6229 73.7895 23.3387 73.8198 23.0576C73.8502 22.7766 73.9356 22.5042 74.0712 22.2562C74.2068 22.0081 74.39 21.7892 74.6102 21.6119C87.6786 11.0296 110.81 -5.56255 118.172 1.84075C125.533 9.24406 108.98 32.3249 98.4383 45.3896C90.5542 55.1132 82.1491 64.4027 73.2598 73.2173C64.4357 82.099 55.1285 90.4876 45.3806 98.345C34.5774 107.098 16.9351 119.989 6.95957 119.989Z" fill="#171714"/>
</g>
<defs>
<clipPath id="clip0_1029_389">
<rect width="120" height="120" fill="white"/>
</clipPath>
</defs>
</svg>
