<svg width="120" height="120" viewBox="0 0 120 120" fill="none" xmlns="http://www.w3.org/2000/svg">
<path d="M60 120C48.1331 120 36.5327 116.481 26.6658 109.888C16.7988 103.295 9.1085 93.9246 4.56725 82.961C0.0259906 71.9974 -1.1622 59.9335 1.15291 48.2946C3.46802 36.6557 9.18246 25.9648 17.5736 17.5736C25.9648 9.18248 36.6557 3.46802 48.2946 1.15291C59.9335 -1.16221 71.9974 0.0260038 82.961 4.56726C93.9245 9.10852 103.295 16.7989 109.888 26.6658C116.481 36.5328 120 48.1331 120 60C119.975 75.9054 113.646 91.1522 102.399 102.399C91.1522 113.646 75.9054 119.975 60 120V120ZM60 4.69853C49.0511 4.69854 38.3482 7.94586 29.2452 14.0297C20.1422 20.1136 13.048 28.7606 8.86019 38.8769C4.67238 48.9933 3.57906 60.1244 5.7185 70.8622C7.85795 81.6001 13.134 91.4621 20.8793 99.2009C28.6247 106.94 38.4912 112.207 49.2309 114.338C59.9705 116.468 71.1007 115.365 81.2135 111.169C91.3263 106.972 99.9673 99.8709 106.043 90.7628C112.12 81.6546 115.358 70.9489 115.348 60C115.324 45.3327 109.483 31.2738 99.1069 20.9068C88.7311 10.5398 74.6674 4.71095 60 4.69853V4.69853Z" fill="#171714"/>
<path d="M95.3774 73.1089C88.4336 73.1974 81.6744 70.8724 76.2544 66.5309C71.6269 62.729 65.7978 60.6972 59.8096 60.7988C53.8254 60.7216 48.0044 62.7506 43.3648 66.5309C37.9225 70.7792 31.2165 73.0867 24.3124 73.0867C17.4083 73.0867 10.7022 70.7792 5.25991 66.5309C3.99131 65.6382 2.67572 64.7455 1.21918 63.8998C0.956693 63.7489 0.726583 63.5477 0.541965 63.3077C0.357347 63.0677 0.221836 62.7936 0.143277 62.5012C0.0647179 62.2088 0.0446348 61.9038 0.0841296 61.6036C0.123624 61.3034 0.221967 61.0139 0.373485 60.7518C0.519709 60.4846 0.718537 60.2497 0.958003 60.0615C1.19747 59.8732 1.47259 59.7354 1.76678 59.6563C2.06096 59.5773 2.36811 59.5587 2.66969 59.6016C2.97126 59.6445 3.26102 59.7481 3.52148 59.906C5.0297 60.7631 6.48851 61.7043 7.89106 62.7252C12.5266 66.4747 18.3272 68.4858 24.2889 68.4104C30.2771 68.5119 36.1061 66.4801 40.7337 62.6782C46.1411 58.347 52.8819 56.0226 59.8096 56.1003C66.745 55.9749 73.5015 58.3048 78.8856 62.6782C83.5435 66.4583 89.379 68.4866 95.3774 68.4104C101.315 68.5843 107.123 66.6539 111.775 62.9601C113.28 61.8656 114.849 60.8615 116.474 59.953C116.739 59.805 117.031 59.7106 117.333 59.6753C117.634 59.64 117.94 59.6645 118.233 59.7474C118.525 59.8303 118.798 59.97 119.036 60.1584C119.275 60.3469 119.474 60.5804 119.622 60.8458C119.77 61.1111 119.864 61.403 119.899 61.7047C119.935 62.0065 119.91 62.3123 119.827 62.6046C119.744 62.897 119.605 63.1701 119.416 63.4084C119.228 63.6468 118.994 63.8457 118.729 63.9938C117.178 64.8395 115.816 65.8262 114.406 66.7659C108.997 71.0339 102.266 73.2775 95.3774 73.1089V73.1089Z" fill="#171714"/>
<path d="M85.2291 28.2848C82.5316 28.2348 79.8765 27.6047 77.4443 26.4372C75.0121 25.2698 72.8597 23.5923 71.1335 21.5189C69.8505 19.8163 68.1896 18.4349 66.2817 17.4837C64.3738 16.5324 62.271 16.0373 60.139 16.0373C58.0071 16.0373 55.9043 16.5324 53.9964 17.4837C52.0885 18.4349 50.4275 19.8163 49.1445 21.5189C47.4265 23.6389 45.2569 25.3484 42.7939 26.5226C40.3308 27.6969 37.6366 28.3063 34.908 28.3063C32.1794 28.3063 29.4852 27.6969 27.0222 26.5226C24.5592 25.3484 22.3894 23.6389 20.6715 21.5189L18.98 19.8745C18.7613 19.6601 18.5875 19.4042 18.4688 19.1219C18.3501 18.8395 18.2891 18.5363 18.2891 18.23C18.2891 17.9237 18.3501 17.6205 18.4688 17.3381C18.5875 17.0557 18.7613 16.7999 18.98 16.5855C19.4192 16.1551 20.0096 15.9139 20.6246 15.9139C21.2395 15.9139 21.8299 16.1551 22.2691 16.5855C22.8799 17.1493 23.4906 17.7131 24.0544 18.3239C25.3375 20.0266 26.9984 21.4079 28.9063 22.3592C30.8142 23.3105 32.917 23.8056 35.0489 23.8056C37.1809 23.8056 39.2837 23.3105 41.1916 22.3592C43.0995 21.4079 44.7605 20.0266 46.0435 18.3239C47.7565 16.1964 49.9245 14.4798 52.3882 13.3004C54.8519 12.121 57.5486 11.5088 60.28 11.5088C63.0114 11.5088 65.7081 12.121 68.1718 13.3004C70.6355 14.4798 72.8035 16.1964 74.5165 18.3239C75.8334 19.9873 77.5022 21.3387 79.403 22.281C81.3039 23.2233 83.3898 23.7332 85.511 23.7742C87.6359 23.7533 89.7286 23.2521 91.6325 22.3083C93.5364 21.3645 95.2022 20.0024 96.5055 18.3239L98.3849 16.5855C98.8398 16.1743 99.4393 15.9606 100.052 15.9914C100.664 16.0223 101.239 16.2951 101.65 16.7499C102.062 17.2048 102.275 17.8043 102.244 18.4167C102.214 19.0291 101.941 19.6042 101.486 20.0154L99.7475 21.6599C97.9618 23.7618 95.7355 25.4449 93.2264 26.5898C90.7173 27.7348 87.9869 28.3134 85.2291 28.2848V28.2848Z" fill="#171714"/>
<path d="M91.9948 48.8647C85.4911 48.9074 79.2004 46.5484 74.3284 42.2398C70.2009 38.6027 64.8885 36.5961 59.3871 36.5961C53.8858 36.5961 48.5734 38.6027 44.4458 42.2398C39.5452 46.4785 33.2824 48.8112 26.803 48.8112C20.3236 48.8112 14.0607 46.4785 9.16005 42.2398C7.96867 41.3143 6.72974 40.4517 5.44826 39.6556C4.93071 39.3266 4.56229 38.8082 4.42182 38.2112C4.28135 37.6142 4.37995 36.9859 4.69648 36.4606C4.85516 36.1996 5.06417 35.9727 5.3114 35.7933C5.55862 35.6138 5.83915 35.4854 6.13652 35.4154C6.43388 35.3455 6.74214 35.3354 7.04344 35.3857C7.34475 35.4361 7.63301 35.546 7.89144 35.7089C9.2933 36.5672 10.6426 37.5086 11.9322 38.528C16.0247 42.1609 21.3071 44.1672 26.7795 44.1672C32.2518 44.1672 37.5343 42.1609 41.6268 38.528C46.5694 34.2808 52.8704 31.9456 59.3871 31.9456C65.9039 31.9456 72.2049 34.2808 77.1475 38.528C81.2536 42.1902 86.5633 44.214 92.0653 44.214C97.5673 44.214 102.877 42.1902 106.983 38.528C108.471 37.2952 110.041 36.165 111.682 35.145C111.946 34.9861 112.239 34.8818 112.544 34.8383C112.849 34.7948 113.16 34.8131 113.458 34.8919C113.756 34.9708 114.035 35.1087 114.279 35.2975C114.522 35.4862 114.726 35.722 114.877 35.9908C115.173 36.5301 115.25 37.1626 115.093 37.7574C114.935 38.3522 114.555 38.8636 114.031 39.1857C112.475 40.1006 110.984 41.121 109.567 42.2398C104.722 46.5306 98.467 48.8887 91.9948 48.8647V48.8647Z" fill="#171714"/>
<path d="M93.5899 94.2057C86.9096 94.3024 80.4191 91.9831 75.3127 87.6748C71.0166 84.005 65.5518 81.9887 59.9016 81.9887C54.2514 81.9887 48.7867 84.005 44.4905 87.6748C39.3912 91.9 32.9766 94.2121 26.3543 94.2121C19.7319 94.2121 13.3174 91.9 8.218 87.6748L6.29159 86.2652C5.79176 85.9064 5.45268 85.3657 5.34725 84.7595C5.24182 84.1532 5.37847 83.5298 5.7278 83.0233C6.08668 82.5234 6.62735 82.1844 7.23358 82.0789C7.83981 81.9735 8.46322 82.1101 8.96978 82.4595L10.9901 83.916C15.2369 87.664 20.7384 89.6767 26.4012 89.5542C32.0403 89.62 37.5074 87.6137 41.7654 83.916C46.8647 79.6908 53.2793 77.3787 59.9016 77.3787C66.524 77.3787 72.9385 79.6908 78.0379 83.916C82.369 87.5698 87.8529 89.5741 93.5195 89.5741C99.186 89.5741 104.67 87.5698 109.001 83.916L110.833 82.5534C111.344 82.2157 111.964 82.086 112.567 82.1909C113.169 82.2957 113.709 82.6271 114.075 83.1173C114.255 83.366 114.382 83.648 114.451 83.9467C114.519 84.2454 114.528 84.5548 114.475 84.8568C114.423 85.1587 114.31 85.4472 114.145 85.7052C113.979 85.9632 113.764 86.1855 113.512 86.3592L111.773 87.6278C106.696 91.9281 100.243 94.2624 93.5899 94.2057V94.2057Z" fill="#171714"/>
<path d="M88.0494 112.06C85.1306 112.038 82.2466 111.423 79.573 110.252C76.8994 109.081 74.492 107.378 72.4973 105.247C70.92 103.496 68.9924 102.096 66.8393 101.137C64.6863 100.179 62.356 99.6836 59.9993 99.6836C57.6426 99.6836 55.3122 100.179 53.1591 101.137C51.0061 102.096 49.0785 103.496 47.5012 105.247C45.5001 107.363 43.0894 109.05 40.4158 110.205C37.7422 111.36 34.8616 111.959 31.9492 111.966H30.4456C29.8225 111.878 29.2596 111.547 28.8807 111.045C28.5018 110.543 28.338 109.91 28.4253 109.287C28.5125 108.664 28.8436 108.101 29.3459 107.723C29.8481 107.344 30.4803 107.18 31.1034 107.267H31.9492C34.2974 107.269 36.6198 106.776 38.765 105.821C40.9102 104.865 42.8303 103.469 44.4002 101.723C46.4028 99.6026 48.8172 97.9136 51.4954 96.7593C54.1736 95.6049 57.0593 95.0095 59.9758 95.0095C62.8922 95.0095 65.7779 95.6049 68.4561 96.7593C71.1343 97.9136 73.5487 99.6026 75.5513 101.723C77.1679 103.486 79.1364 104.891 81.3297 105.846C83.523 106.801 85.8922 107.285 88.2843 107.267H88.8951C89.2036 107.224 89.5176 107.242 89.8191 107.32C90.1207 107.398 90.4039 107.535 90.6526 107.723C90.9013 107.91 91.1106 108.145 91.2686 108.413C91.4265 108.682 91.5301 108.979 91.5733 109.287C91.6165 109.596 91.5984 109.91 91.5203 110.211C91.4421 110.513 91.3053 110.796 91.1177 111.045C90.9301 111.294 90.6954 111.503 90.4269 111.661C90.1584 111.819 89.8614 111.922 89.5529 111.966L88.0494 112.06Z" fill="#171714"/>
</svg>
