<svg width="120" height="120" viewBox="0 0 120 120" fill="none" xmlns="http://www.w3.org/2000/svg">
<g clip-path="url(#clip0_1029_419)">
<path d="M60.0222 120C48.149 120.009 36.54 116.496 26.6634 109.906C16.7869 103.316 9.08666 93.9452 4.53684 82.9783C-0.0129731 72.0114 -1.20794 59.9416 1.10298 48.2954C3.4139 36.6493 9.12687 25.9501 17.5194 17.5513C25.9119 9.15258 36.6068 3.43154 48.2512 1.11194C59.8956 -1.20767 71.9665 -0.0216215 82.9367 4.52001C93.907 9.06165 103.284 16.7548 109.881 26.6264C116.478 36.498 120 48.1045 120 59.9777C119.988 75.8853 113.667 91.1385 102.422 102.391C91.1783 113.644 75.9298 119.976 60.0222 120V120ZM60.0222 4.38653C49.0254 4.37767 38.273 7.63049 29.1252 13.7335C19.9773 19.8366 12.8452 28.5157 8.63073 38.6728C4.4163 48.83 3.30908 60.009 5.44902 70.7956C7.58897 81.5821 12.8799 91.4917 20.6527 99.2708C28.4255 107.05 38.3308 112.349 49.1157 114.497C59.9005 116.646 71.0803 115.548 81.2409 111.342C91.4015 107.135 100.086 100.01 106.197 90.8672C112.307 81.7243 115.569 70.9745 115.569 59.9777C115.557 45.2454 109.702 31.1192 99.2892 20.6977C88.8761 10.2762 74.7546 4.41023 60.0222 4.38653V4.38653Z" fill="#171714"/>
<path d="M48.877 31.9137H10.7868C10.1933 31.9137 9.62405 31.6779 9.20435 31.2582C8.78465 30.8385 8.54883 30.2693 8.54883 29.6757C8.54883 29.0822 8.78465 28.5129 9.20435 28.0932C9.62405 27.6735 10.1933 27.4377 10.7868 27.4377H48.877C49.4705 27.4377 50.0399 27.6735 50.4596 28.0932C50.8793 28.5129 51.1149 29.0822 51.1149 29.6757C51.1149 30.2693 50.8793 30.8385 50.4596 31.2582C50.0399 31.6779 49.4705 31.9137 48.877 31.9137Z" fill="#171714"/>
<path d="M64.274 49.1459H3.71453C3.12099 49.1459 2.55178 48.9101 2.13208 48.4904C1.71238 48.0707 1.47656 47.5014 1.47656 46.9079C1.47656 46.3143 1.71238 45.7451 2.13208 45.3254C2.55178 44.9057 3.12099 44.6699 3.71453 44.6699H64.274C64.8676 44.6699 65.4369 44.9057 65.8566 45.3254C66.2763 45.7451 66.512 46.3143 66.512 46.9079C66.512 47.5014 66.2763 48.0707 65.8566 48.4904C65.4369 48.9101 64.8676 49.1459 64.274 49.1459V49.1459Z" fill="#171714"/>
<path d="M117.763 62.2156H89.5644C88.9786 62.2039 88.4208 61.9629 88.0108 61.5445C87.6007 61.1261 87.371 60.5635 87.3711 59.9776C87.3711 59.396 87.6022 58.8381 88.0135 58.4268C88.4248 58.0155 88.9827 57.7844 89.5644 57.7844H117.763C118.344 57.7844 118.902 58.0155 119.314 58.4268C119.725 58.8381 119.956 59.396 119.956 59.9776C119.956 60.5635 119.726 61.1261 119.316 61.5445C118.906 61.9629 118.349 62.2039 117.763 62.2156Z" fill="#171714"/>
<path d="M107.333 95.472H48.8766C48.2831 95.472 47.7139 95.2362 47.2942 94.8165C46.8745 94.3968 46.6387 93.8276 46.6387 93.2341C46.6387 92.6405 46.8745 92.0713 47.2942 91.6516C47.7139 91.2319 48.2831 90.9961 48.8766 90.9961H107.333C107.926 90.9961 108.495 91.2319 108.915 91.6516C109.335 92.0713 109.571 92.6405 109.571 93.2341C109.571 93.8276 109.335 94.3968 108.915 94.8165C108.495 95.2362 107.926 95.472 107.333 95.472Z" fill="#171714"/>
<path d="M42.4312 75.1958H3.71416C3.12787 75.2203 2.55543 75.0136 2.1201 74.6201C1.68476 74.2266 1.42142 73.6779 1.38672 73.0921C1.38672 72.5105 1.61782 71.9526 2.02912 71.5413C2.44043 71.13 2.99821 70.8989 3.57989 70.8989H42.2969C42.8786 70.8989 43.4363 71.13 43.8477 71.5413C44.259 71.9526 44.4901 72.5105 44.4901 73.0921C44.4593 73.6325 44.2337 74.1433 43.8552 74.5301C43.4766 74.9169 42.9707 75.1534 42.4312 75.1958Z" fill="#171714"/>
</g>
<defs>
<clipPath id="clip0_1029_419">
<rect width="120" height="120" fill="white"/>
</clipPath>
</defs>
</svg>
