<svg width="120" height="120" viewBox="0 0 120 120" fill="none" xmlns="http://www.w3.org/2000/svg">
<g clip-path="url(#clip0_1029_403)">
<path d="M59.9523 79.2009C56.1579 79.2009 52.4487 78.0762 49.2938 75.969C46.1389 73.8618 43.6799 70.8668 42.2279 67.3626C40.7759 63.8585 40.396 60.0027 41.1362 56.2827C41.8765 52.5627 43.7036 49.1457 46.3866 46.4637C49.0697 43.7818 52.488 41.9554 56.2095 41.2154C59.931 40.4755 63.7884 40.8552 67.2939 42.3067C70.7994 43.7582 73.7956 46.2161 75.9037 49.3698C78.0117 52.5234 79.1369 56.2311 79.1369 60.0239C79.1369 65.11 77.1156 69.9877 73.5178 73.5841C69.92 77.1805 65.0403 79.2009 59.9523 79.2009ZM59.9523 45.6412C57.1065 45.6412 54.3246 46.4847 51.9584 48.0651C49.5922 49.6455 47.748 51.8918 46.659 54.5199C45.5699 57.148 45.285 60.0399 45.8402 62.8299C46.3954 65.6198 47.7658 68.1826 49.778 70.1941C51.7903 72.2055 54.3541 73.5753 57.1451 74.1303C59.9362 74.6853 62.8293 74.4004 65.4584 73.3118C68.0876 72.2232 70.3348 70.3798 71.9158 68.0145C73.4968 65.6493 74.3407 62.8686 74.3407 60.0239C74.3598 58.1231 74.0016 56.2373 73.287 54.4757C72.5725 52.7141 71.5156 51.1115 70.1776 49.7607C68.8396 48.4098 67.247 47.3375 65.4919 46.6058C63.7368 45.874 61.8539 45.4972 59.9523 45.4973V45.6412Z" fill="#171714"/>
<path d="M59.9511 98.5217C51.4171 98.5937 43.1026 95.8197 36.3228 90.6383C29.5429 85.4569 24.6848 78.1639 22.5167 69.9129C20.3485 61.6619 20.9942 52.9238 24.3516 45.0808C27.709 37.2378 33.5863 30.7375 41.0542 26.608C41.3246 26.4554 41.6226 26.3578 41.931 26.321C42.2394 26.2841 42.5521 26.3088 42.8509 26.3935C43.1497 26.4782 43.4288 26.6213 43.6719 26.8145C43.9151 27.0076 44.1176 27.2471 44.2676 27.5189C44.427 27.7876 44.53 28.0859 44.5703 28.3957C44.6107 28.7054 44.5876 29.0202 44.5023 29.3207C44.4171 29.6212 44.2715 29.9013 44.0744 30.1437C43.8774 30.3862 43.6331 30.586 43.3563 30.7311C36.1985 34.7683 30.7568 41.2732 28.0485 49.0296C25.3401 56.7861 25.5507 65.263 28.6407 72.8756C31.7307 80.4881 37.4886 86.7151 44.838 90.3923C52.1873 94.0695 60.6249 94.9452 68.5733 92.8555C76.5216 90.7659 83.4364 85.8541 88.025 79.0384C92.6135 72.2228 94.5616 63.9698 93.5051 55.8227C92.4486 47.6755 88.4597 40.1919 82.2843 34.771C76.1089 29.3501 68.1697 26.363 59.9511 26.3683C58.6659 26.3458 57.3815 26.4421 56.1141 26.656C55.4781 26.764 54.8252 26.6151 54.299 26.242C53.7728 25.8689 53.4164 25.3021 53.3083 24.6664C53.2002 24.0306 53.3492 23.378 53.7225 22.852C54.0957 22.326 54.6628 21.9698 55.2988 21.8617C56.8864 21.6256 58.4899 21.5134 60.0949 21.5261C70.322 21.5261 80.1301 25.5872 87.3618 32.8159C94.5934 40.0446 98.656 49.8489 98.656 60.0719C98.656 70.2948 94.5934 80.0991 87.3618 87.3278C80.1301 94.5565 70.322 98.6176 60.0949 98.6176L59.9511 98.5217Z" fill="#171714"/>
<path d="M59.9516 120C47.4227 120.021 35.2058 116.096 25.0355 108.782C24.5267 108.413 24.1853 107.857 24.0863 107.237C23.9874 106.616 24.139 105.982 24.5079 105.473C24.8768 104.965 25.4327 104.624 26.0533 104.525C26.6739 104.426 27.3084 104.577 27.8172 104.946C39.035 112.905 52.8105 116.416 66.4711 114.796C80.1318 113.177 92.7038 106.544 101.748 96.1826C110.793 85.8216 115.665 72.4718 115.419 58.7231C115.174 44.9744 109.828 31.807 100.42 21.7752C91.0112 11.7434 78.2103 5.56247 64.5005 4.4315C50.7907 3.30053 37.1494 7.30014 26.2229 15.6544C15.2964 24.0087 7.86374 36.122 5.36676 49.6445C2.86977 63.167 5.4865 77.1345 12.7093 88.8374C13.0401 89.3715 13.145 90.015 13.0011 90.6264C12.8572 91.2378 12.4762 91.7669 11.9419 92.0975C11.4077 92.4281 10.7639 92.533 10.1523 92.3892C9.54068 92.2453 9.01131 91.8645 8.68058 91.3305C1.78505 80.0082 -1.16058 66.7201 0.304718 53.5459C1.77002 40.3717 7.56353 28.0548 16.7786 18.523C25.9936 8.99116 38.1101 2.78226 51.2318 0.868024C64.3535 -1.04622 77.7398 1.44224 89.2957 7.94392C100.852 14.4456 109.925 24.5936 115.096 36.7997C120.267 49.0058 121.243 62.5811 117.872 75.4011C114.502 88.2211 106.974 99.5623 96.4674 107.65C85.9608 115.737 73.0684 120.114 59.8077 120.096L59.9516 120Z" fill="#171714"/>
<path d="M17.7931 113.096C15.0486 113.058 12.3767 112.21 10.1138 110.657C7.85085 109.104 6.09811 106.917 5.07618 104.371C4.05426 101.825 3.80887 99.0328 4.37091 96.3473C4.93296 93.6618 6.27725 91.2026 8.23464 89.2793C10.192 87.3559 12.675 86.0545 15.3708 85.5388C18.0666 85.0231 20.8548 85.3163 23.3842 86.3813C25.9137 87.4464 28.0714 89.2357 29.5857 91.524C31.0999 93.8123 31.903 96.4973 31.8938 99.241C31.8877 101.079 31.5169 102.898 30.8032 104.591C30.0894 106.285 29.0467 107.821 27.7354 109.109C26.4241 110.398 24.8702 111.414 23.1636 112.098C21.457 112.782 19.6317 113.122 17.7931 113.096V113.096ZM17.7931 90.0839C15.9793 90.0745 14.2035 90.6034 12.6907 91.6038C11.178 92.6042 9.9963 94.031 9.29559 95.7034C8.59488 97.3757 8.40665 99.2184 8.75469 100.998C9.10272 102.777 9.9714 104.413 11.2506 105.699C12.5298 106.984 14.162 107.861 15.9403 108.218C17.7186 108.576 19.5629 108.397 21.2396 107.705C22.9163 107.014 24.3499 105.84 25.3586 104.333C26.3673 102.826 26.9058 101.054 26.9058 99.241C26.9059 96.8207 25.9473 94.4988 24.2397 92.7829C22.5321 91.067 20.2143 90.0966 17.7931 90.0839V90.0839Z" fill="#171714"/>
<path d="M48.729 35.1418C46.8318 35.1418 44.9773 34.5795 43.3999 33.5259C41.8224 32.4723 40.5929 30.9748 39.8669 29.2227C39.1409 27.4706 38.9509 25.5427 39.321 23.6827C39.6912 21.8227 40.6047 20.1142 41.9462 18.7733C43.2877 17.4323 44.9969 16.5191 46.8576 16.1491C48.7184 15.7791 50.6471 15.969 52.3998 16.6947C54.1526 17.4205 55.6508 18.6495 56.7048 20.2263C57.7588 21.8031 58.3213 23.6569 58.3213 25.5533C58.3213 28.0964 57.3107 30.5352 55.5118 32.3334C53.7129 34.1316 51.2731 35.1418 48.729 35.1418ZM48.729 20.7591C47.7804 20.7591 46.8532 21.0403 46.0645 21.5671C45.2757 22.0939 44.661 22.8426 44.298 23.7187C43.9349 24.5947 43.84 25.5587 44.0251 26.4887C44.2101 27.4187 44.6669 28.2729 45.3376 28.9434C46.0084 29.6139 46.863 30.0705 47.7934 30.2555C48.7237 30.4405 49.6881 30.3455 50.5645 29.9827C51.4408 29.6198 52.1899 29.0053 52.7169 28.2169C53.2439 27.4285 53.5252 26.5016 53.5252 25.5533C53.5125 24.2902 53.0017 23.083 52.1036 22.1943C51.2055 21.3055 49.9928 20.807 48.729 20.807V20.7591Z" fill="#171714"/>
</g>
<defs>
<clipPath id="clip0_1029_403">
<rect width="120" height="120" fill="white"/>
</clipPath>
</defs>
</svg>
