<svg width="120" height="120" viewBox="0 0 120 120" fill="none" xmlns="http://www.w3.org/2000/svg">
<g clip-path="url(#clip0_1029_391)">
<path d="M60 120C48.1332 120 36.5327 116.481 26.6658 109.888C16.7988 103.295 9.1085 93.9246 4.56724 82.961C0.0259864 71.9974 -1.1622 59.9334 1.15291 48.2946C3.46803 36.6557 9.18245 25.9647 17.5736 17.5736C25.9647 9.18245 36.6557 3.46803 48.2946 1.15291C59.9334 -1.1622 71.9974 0.0259864 82.961 4.56724C93.9246 9.1085 103.295 16.7989 109.888 26.6658C116.481 36.5327 120 48.1331 120 60C119.988 75.9094 113.663 91.1637 102.413 102.413C91.1637 113.663 75.9094 119.988 60 120V120ZM60 4.42623C49.0086 4.42623 38.2639 7.68558 29.1249 13.7921C19.9858 19.8986 12.8628 28.5781 8.65655 38.7329C4.45031 48.8876 3.34977 60.0617 5.4941 70.8419C7.63842 81.6222 12.9313 91.5245 20.7034 99.2966C28.4756 107.069 38.3779 112.362 49.1581 114.506C59.9384 116.65 71.1124 115.55 81.2671 111.343C91.4219 107.137 100.101 100.014 106.208 90.8751C112.314 81.7361 115.574 70.9915 115.574 60C115.562 45.2646 109.703 31.136 99.2835 20.7165C88.864 10.297 74.7355 4.43807 60 4.42623V4.42623Z" fill="#171714"/>
<path d="M34.8285 64.1134C32.3241 64.1134 29.876 63.3702 27.7943 61.9779C25.7126 60.5856 24.091 58.6069 23.1346 56.2923C22.1783 53.9777 21.9304 51.4313 22.4222 48.9757C22.914 46.5201 24.1236 44.2657 25.8976 42.498C27.6716 40.7302 29.9303 39.5287 32.3876 39.0456C34.8449 38.5624 37.3903 38.8194 39.7015 39.7839C42.0127 40.7484 43.9857 42.3771 45.3706 44.4637C46.7555 46.5503 47.4901 49.001 47.4812 51.5054C47.4694 54.8533 46.1311 58.0601 43.7596 60.4233C41.388 62.7865 38.1765 64.1134 34.8285 64.1134V64.1134ZM34.8285 43.2788C33.2014 43.2788 31.6109 43.7613 30.2581 44.6652C28.9052 45.5692 27.8508 46.854 27.2282 48.3572C26.6055 49.8604 26.4426 51.5145 26.76 53.1103C27.0775 54.7061 27.861 56.1719 29.0115 57.3224C30.162 58.4729 31.6278 59.2564 33.2236 59.5738C34.8194 59.8912 36.4734 59.7283 37.9766 59.1057C39.4798 58.483 40.7647 57.4286 41.6686 56.0758C42.5725 54.7229 43.055 53.1324 43.055 51.5054C43.0082 49.3547 42.1209 47.3079 40.5832 45.8036C39.0455 44.2993 36.9797 43.4571 34.8285 43.4577V43.2788Z" fill="#171714"/>
<path d="M62.0122 103.815C59.6335 103.815 57.3082 103.11 55.3304 101.788C53.3526 100.467 51.8111 98.5884 50.9008 96.3908C49.9906 94.1932 49.7524 91.775 50.2164 89.442C50.6805 87.109 51.826 84.9661 53.508 83.2841C55.19 81.6021 57.3329 80.4566 59.6659 79.9926C61.9989 79.5285 64.4171 79.7667 66.6147 80.677C68.8123 81.5872 70.6906 83.1288 72.0121 85.1066C73.3337 87.0844 74.0391 89.4096 74.0391 91.7883C74.0391 94.978 72.7719 98.0371 70.5165 100.293C68.261 102.548 65.2019 103.815 62.0122 103.815ZM62.0122 84.1877C60.509 84.1877 59.0395 84.6335 57.7895 85.4686C56.5396 86.3038 55.5654 87.4909 54.9902 88.8797C54.4149 90.2685 54.2644 91.7968 54.5576 93.2711C54.8509 94.7455 55.5748 96.0998 56.6378 97.1628C57.7007 98.2257 59.0551 98.9496 60.5294 99.2429C62.0038 99.5361 63.532 99.3856 64.9208 98.8103C66.3097 98.2351 67.4967 97.2609 68.3319 96.011C69.167 94.7611 69.6128 93.2916 69.6128 91.7883C69.6128 89.7725 68.812 87.8393 67.3866 86.4139C65.9612 84.9885 64.028 84.1877 62.0122 84.1877Z" fill="#171714"/>
<path d="M67.466 31.0283C65.5649 31.0283 63.7064 30.4645 62.1256 29.4083C60.5449 28.352 59.3128 26.8508 58.5852 25.0943C57.8577 23.3378 57.6673 21.4051 58.0382 19.5405C58.4091 17.6758 59.3246 15.963 60.669 14.6187C62.0133 13.2743 63.7261 12.3588 65.5907 11.9879C67.4554 11.617 69.3881 11.8074 71.1446 12.5349C72.9011 13.2625 74.4023 14.4946 75.4586 16.0753C76.5148 17.6561 77.0785 19.5146 77.0785 21.4157C77.0668 23.9615 76.0502 26.3997 74.2501 28.1998C72.4499 30 70.0118 31.0165 67.466 31.0283V31.0283ZM67.466 16.2295C66.4403 16.2295 65.4375 16.5336 64.5847 17.1035C63.7318 17.6734 63.0671 18.4834 62.6745 19.4311C62.282 20.3787 62.1793 21.4215 62.3794 22.4275C62.5795 23.4336 63.0734 24.3577 63.7987 25.083C64.5241 25.8083 65.4482 26.3023 66.4543 26.5024C67.4603 26.7025 68.5031 26.5998 69.4507 26.2073C70.3984 25.8147 71.2084 25.15 71.7783 24.2971C72.3482 23.4442 72.6523 22.4415 72.6523 21.4157C72.6523 20.0403 72.1059 18.7211 71.1333 17.7485C70.1606 16.7759 68.8415 16.2295 67.466 16.2295V16.2295Z" fill="#171714"/>
<path d="M34.4705 79.2251C30.2689 79.2097 26.1988 77.7584 22.9354 75.1119C10.1486 64.8734 7.3766 64.3816 7.10835 64.3369H2.54797C1.95509 64.3369 1.38652 64.1014 0.967286 63.6822C0.548054 63.2629 0.3125 62.6943 0.3125 62.1014C0.3125 61.5086 0.548054 60.94 0.967286 60.5207C1.38652 60.1015 1.95509 59.866 2.54797 59.866H7.01891C8.22606 59.866 10.9981 59.866 25.618 71.6246C28.1803 73.6601 31.3783 74.7267 34.6495 74.6368C37.9206 74.5468 41.0553 73.3061 43.5018 71.1328C51.6082 63.8899 62.0945 59.8799 72.9653 59.866H117.675C118.268 59.866 118.836 60.1015 119.255 60.5207C119.675 60.94 119.91 61.5086 119.91 62.1014C119.91 62.6943 119.675 63.2629 119.255 63.6822C118.836 64.1014 118.268 64.3369 117.675 64.3369H72.9653C63.1797 64.3409 53.7395 67.9546 46.4526 74.486C43.1572 77.4532 38.904 79.1354 34.4705 79.2251Z" fill="#171714"/>
<path d="M114.635 43.4574H73.2785C62.4098 43.4767 51.9169 39.4802 43.815 32.2353C41.2986 30.0964 38.127 28.8816 34.8256 28.7922C31.5243 28.7027 28.2915 29.744 25.663 31.7435C11.1771 43.4574 8.22633 43.4574 7.01917 43.4574H5.27551C4.98407 43.4633 4.6944 43.4111 4.42343 43.3037C4.15245 43.1962 3.90561 43.0358 3.69742 42.8318C3.48923 42.6278 3.32388 42.3842 3.211 42.1155C3.09812 41.8467 3.03998 41.5581 3.04004 41.2666C3.04004 40.6738 3.27553 40.1052 3.69476 39.6859C4.11399 39.2667 4.68263 39.0312 5.27551 39.0312H7.01917C8.00278 39.0312 12.5184 36.6169 22.7569 28.3009C26.2063 25.6494 30.4645 24.2684 34.8135 24.3905C39.1626 24.5127 43.3365 26.1306 46.6317 28.9716C53.9751 35.4815 63.4652 39.0483 73.2785 38.9865H114.635C115.22 38.9982 115.777 39.2388 116.187 39.6568C116.596 40.0748 116.826 40.6367 116.825 41.2219C116.831 41.5134 116.779 41.8031 116.672 42.074C116.564 42.345 116.404 42.5918 116.2 42.8C115.996 43.0082 115.752 43.1736 115.484 43.2865C115.215 43.3994 114.926 43.4575 114.635 43.4574V43.4574Z" fill="#171714"/>
</g>
<defs>
<clipPath id="clip0_1029_391">
<rect width="120" height="120" fill="white"/>
</clipPath>
</defs>
</svg>
