<svg width="687" height="687" viewBox="0 0 687 687" fill="none" xmlns="http://www.w3.org/2000/svg">
<g style="mix-blend-mode:multiply" opacity="0.8">
<path d="M50.7107 414.211C17.3774 380.877 0.710678 364.211 0.710678 343.5C0.710678 322.789 17.3773 306.123 50.7107 272.789L272.789 50.7107C306.123 17.3773 322.789 0.710621 343.5 0.710621C364.211 0.710621 380.877 17.3773 414.211 50.7106L636.289 272.789C669.623 306.123 686.289 322.789 686.289 343.5C686.289 364.211 669.623 380.877 636.289 414.211L414.211 636.289C380.877 669.623 364.211 686.289 343.5 686.289C322.789 686.289 306.123 669.623 272.789 636.289L50.7107 414.211Z" fill="#0E007D"/>
</g>
</svg>
