<svg width="40" height="40" viewBox="0 0 40 40" xmlns="http://www.w3.org/2000/svg">
<g clip-path="url(#clip0_1101_297)">
<path d="M1.31359 19.9469C2.98231 23.6426 5.82427 27.6464 9.11026 30.9324C12.6151 34.4372 16.4818 37.2129 19.9981 38.7467C21.9125 39.5822 23.6252 40 25.0671 40C26.5003 40 27.6656 39.5862 28.4925 38.7587L31.8093 35.443C32.8169 34.4344 32.7266 32.7039 31.6076 31.5844L26.7203 26.6966C25.6002 25.5776 23.8687 25.4879 22.8617 26.4954L21.3399 28.0173C20.9181 28.3327 18.3116 27.5298 15.3794 24.5975C12.4454 21.6641 11.6408 19.0559 11.9579 18.6382L13.4815 17.1146C14.489 16.1065 14.3987 14.3749 13.2798 13.256L8.39134 8.36872C7.27125 7.24976 5.54081 7.1589 4.53273 8.16756L1.21701 11.4833C-0.438557 13.1383 -0.403697 16.1442 1.31359 19.9469ZM2.83372 13.0994L6.15001 9.7837C6.17287 9.76084 6.21858 9.74712 6.27745 9.74712C6.4066 9.74712 6.60262 9.8117 6.77577 9.98486L11.663 14.8721C11.9156 15.1247 11.9374 15.4259 11.8648 15.4985L10.3412 17.0215C8.44735 18.9165 10.6287 23.0797 13.7627 26.2137C15.3234 27.7738 17.0395 29.0208 18.5951 29.7231C21.1553 30.8798 22.4257 30.1643 22.9543 29.6345L24.4779 28.1116C24.551 28.0384 24.851 28.0607 25.1042 28.3127L29.9909 33.2006C30.2435 33.4532 30.2652 33.7538 30.1926 33.8263L26.8764 37.1426C25.9563 38.0633 23.7269 37.8798 20.9124 36.6511C17.6516 35.2287 14.0341 32.6234 10.7264 29.3162C7.62785 26.2177 4.95676 22.4591 3.39663 19.0056C2.13595 16.2151 1.92565 14.0075 2.83372 13.0994ZM39.1911 22.4802C39.1911 10.0849 29.1063 0 16.7109 0V2.28591C27.8462 2.28591 36.9052 11.3455 36.9052 22.4802H39.1911Z"/>
<path d="M17.1348 6.2439V8.52981C25.0612 8.52981 31.5103 14.9784 31.5103 22.9048H33.7962C33.7962 13.7177 26.3218 6.2439 17.1353 6.2439H17.1348Z"/>
<path d="M25.6908 22.9048H27.9768C27.9768 16.9272 23.1135 12.0627 17.1353 12.0627V14.3487C21.8528 14.3487 25.6908 18.1873 25.6908 22.9048Z"/>
</g>
<defs>
<clipPath id="clip0_1101_297">
<rect width="40" height="40"/>
</clipPath>
</defs>
</svg>
