<svg width="40" height="40" viewBox="0 0 40 40" fill="none" xmlns="http://www.w3.org/2000/svg">
<path d="M28.3335 3.33325H11.6668C7.06446 3.33325 3.3335 7.06421 3.3335 11.6666V28.3333C3.3335 32.9356 7.06446 36.6666 11.6668 36.6666H28.3335C32.9359 36.6666 36.6668 32.9356 36.6668 28.3333V11.6666C36.6668 7.06421 32.9359 3.33325 28.3335 3.33325Z" stroke="white" stroke-width="2" stroke-linecap="round" stroke-linejoin="round"/>
<path d="M26.6665 18.95C26.8722 20.3371 26.6353 21.7537 25.9894 22.9984C25.3436 24.243 24.3217 25.2524 23.0692 25.8828C21.8167 26.5132 20.3972 26.7327 19.0128 26.5099C17.6284 26.2871 16.3494 25.6335 15.3579 24.6419C14.3664 23.6504 13.7127 22.3715 13.4899 20.987C13.2672 19.6026 13.4866 18.1832 14.117 16.9306C14.7475 15.6781 15.7568 14.6562 17.0015 14.0104C18.2461 13.3646 19.6628 13.1277 21.0498 13.3333C22.4647 13.5432 23.7746 14.2025 24.786 15.2139C25.7974 16.2253 26.4567 17.5351 26.6665 18.95Z" stroke="white" stroke-width="2" stroke-linecap="round" stroke-linejoin="round"/>
<path d="M29.1665 10.8333H29.1832" stroke="white" stroke-width="2" stroke-linecap="round" stroke-linejoin="round"/>
</svg>
