<svg width="40" height="40" viewBox="0 0 40 40" xmlns="http://www.w3.org/2000/svg">
<g clip-path="url(#clip0_1101_307)">
<path d="M34.3182 34.5027H5.68182C4.17545 34.5009 2.73128 33.9017 1.66612 32.8366C0.600956 31.7714 0.00176908 30.3272 0 28.8209V11.6818C0.00176908 10.1754 0.600956 8.73128 1.66612 7.66612C2.73128 6.60096 4.17545 6.00177 5.68182 6H34.3182C35.8245 6.00177 37.2687 6.60096 38.3339 7.66612C39.399 8.73128 39.9982 10.1754 40 11.6818V28.8209C39.9982 30.3272 39.399 31.7714 38.3339 32.8366C37.2687 33.9017 35.8245 34.5009 34.3182 34.5027V34.5027ZM5.68182 8.00535C4.70676 8.00535 3.77163 8.39269 3.08216 9.08216C2.39269 9.77163 2.00535 10.7068 2.00535 11.6818V28.8209C2.00535 29.7959 2.39269 30.731 3.08216 31.4205C3.77163 32.11 4.70676 32.4973 5.68182 32.4973H34.3182C35.2932 32.4973 36.2284 32.11 36.9178 31.4205C37.6073 30.731 37.9947 29.7959 37.9947 28.8209V11.6818C37.9947 10.7068 37.6073 9.77163 36.9178 9.08216C36.2284 8.39269 35.2932 8.00535 34.3182 8.00535H5.68182Z"/>
<path d="M20.0002 24.3154C18.7633 24.3174 17.5595 23.9161 16.5711 23.1724L0.962803 11.3676C0.852523 11.2902 0.758973 11.1914 0.687739 11.077C0.616506 10.9626 0.56905 10.8351 0.548205 10.702C0.527361 10.5689 0.533556 10.4329 0.566421 10.3023C0.599286 10.1716 0.658146 10.0489 0.739486 9.94152C0.820826 9.83411 0.922977 9.7442 1.03984 9.67716C1.1567 9.61011 1.28588 9.56731 1.41965 9.55129C1.55343 9.53528 1.68906 9.5464 1.81844 9.58397C1.94782 9.62155 2.06831 9.68481 2.1727 9.76999L17.781 21.5882C18.4219 22.0666 19.2004 22.3251 20.0002 22.3251C20.8001 22.3251 21.5785 22.0666 22.2195 21.5882L37.8278 9.76999C37.9322 9.68481 38.0526 9.62155 38.182 9.58397C38.3114 9.5464 38.447 9.53528 38.5808 9.55129C38.7146 9.56731 38.8438 9.61011 38.9606 9.67716C39.0775 9.7442 39.1796 9.83411 39.261 9.94152C39.3423 10.0489 39.4012 10.1716 39.434 10.3023C39.4669 10.4329 39.4731 10.5689 39.4523 10.702C39.4314 10.8351 39.384 10.9626 39.3127 11.077C39.2415 11.1914 39.1479 11.2902 39.0377 11.3676L23.4294 23.1724C22.441 23.9161 21.2372 24.3174 20.0002 24.3154V24.3154Z"/>
<path d="M1.39721 31.7085C1.19385 31.7088 0.995209 31.6472 0.82764 31.532C0.66007 31.4168 0.531497 31.2534 0.458981 31.0634C0.386465 30.8734 0.373434 30.6658 0.421618 30.4682C0.469802 30.2707 0.576922 30.0924 0.728765 29.9572L13.0282 18.9879C13.2268 18.8106 13.4876 18.7195 13.7534 18.7345C14.0192 18.7496 14.2681 18.8696 14.4453 19.0681C14.6226 19.2667 14.7138 19.5275 14.6987 19.7933C14.6837 20.059 14.5637 20.3079 14.3651 20.4852L2.06566 31.4545C1.88301 31.6207 1.64414 31.7114 1.39721 31.7085V31.7085ZM38.6031 31.7085C38.3562 31.7114 38.1173 31.6207 37.9346 31.4545L25.6352 20.4852C25.4366 20.3079 25.3166 20.059 25.3016 19.7933C25.2865 19.5275 25.3777 19.2667 25.555 19.0681C25.7323 18.8696 25.9812 18.7496 26.2469 18.7345C26.5127 18.7195 26.7735 18.8106 26.9721 18.9879L39.2649 29.9572C39.4167 30.0924 39.5238 30.2707 39.572 30.4682C39.6202 30.6658 39.6072 30.8734 39.5346 31.0634C39.4621 31.2534 39.3336 31.4168 39.166 31.532C38.9984 31.6472 38.7998 31.7088 38.5964 31.7085H38.6031Z"/>
</g>
<defs>
<clipPath id="clip0_1101_307">
<rect width="40" height="40"/>
</clipPath>
</defs>
</svg>
