<svg width="40" height="40" viewBox="0 0 40 40" fill="none" xmlns="http://www.w3.org/2000/svg">
<path d="M20.4872 1.99904C17.1345 1.99938 13.8449 2.91146 10.9707 4.63766C8.09648 6.36386 5.7458 8.83918 4.17027 11.7987C2.59474 14.7582 1.85367 18.0904 2.0264 21.4387C2.19914 24.787 3.27916 28.0253 5.15086 30.8069L2 38.9734L10.4077 35.9673C12.8189 37.5412 15.5645 38.5301 18.4256 38.8552C21.2867 39.1803 24.1841 38.8326 26.8871 37.8398C29.59 36.8469 32.0236 35.2364 33.994 33.1367C35.9644 31.0369 37.417 28.5059 38.2362 25.7454C39.0553 22.9848 39.2183 20.0711 38.7121 17.2365C38.206 14.4018 37.0446 11.7246 35.3207 9.41817C33.5968 7.11174 31.358 5.2399 28.7826 3.95182C26.2073 2.66375 23.3667 1.99505 20.4872 1.99904V1.99904Z" stroke-width="2" stroke-linecap="round" stroke-linejoin="round"/>
<path d="M16.468 24.5054C18.5578 26.5953 23.1716 29.3282 25.3097 29.3282C26.2476 29.3379 27.16 29.0231 27.8924 28.4371C28.6248 27.8512 29.1322 27.0302 29.3286 26.113V24.5054C29.3286 24.5054 27.3513 23.5409 26.1135 22.8979C24.8756 22.2548 22.8983 24.5054 22.8983 24.5054C21.3938 24.0153 20.0198 23.1909 18.8794 22.0941C17.7825 20.9536 16.9581 19.5796 16.468 18.0751C16.468 18.0751 18.7186 16.0978 18.0756 14.8599C17.4325 13.6221 16.468 11.6448 16.468 11.6448H14.8604C13.9433 11.8412 13.1222 12.3486 12.5363 13.081C11.9503 13.8134 11.6356 14.7258 11.6452 15.6637C11.6452 17.8018 14.3781 22.4156 16.468 24.5054Z" stroke-width="2" stroke-linecap="round" stroke-linejoin="round"/>
</svg>
