<svg width="40" height="40" viewBox="0 0 40 40" fill="none" xmlns="http://www.w3.org/2000/svg">
    <g clip-path="url(#clip0_1101_323)">
        <path
            d="M33.902 35.8711C33.8988 35.8792 32.698 38.8763 29.4753 37.4711C27.726 36.7052 16.8279 27.8257 14.3906 25.9596C19.137 21.6919 23.885 17.4241 28.6298 13.1515L10.8092 24.4683C7.89486 23.4866 4.9756 22.5113 2.06284 21.5231C-0.533496 20.689 -0.832075 17.799 2.07258 16.6988L35.9126 3.42177C36.2371 3.28384 40.0034 1.85098 40.0034 5.20026L33.902 35.8711V35.8711ZM32.1024 35.1977L38.0805 5.05421C37.9799 4.60797 36.6428 5.1889 36.6379 5.19052L2.72004 18.4935C1.66041 18.8456 1.63444 19.3422 2.69083 19.7186L10.5496 22.3653L31.7033 8.93574C32.4237 8.4976 33.5077 8.18767 34.1357 8.94223C34.7702 9.70652 34.2379 10.6461 33.6197 11.2221C33.0095 11.7917 21.0421 22.5535 17.3828 25.8427L30.3402 35.7607C31.4761 36.2005 31.9775 35.4378 32.1024 35.1977V35.1977Z"
            fill="white" />
    </g>
    <defs>
        <clipPath id="clip0_1101_323">
            <rect width="40" height="40" fill="white" />
        </clipPath>
    </defs>
</svg>