<svg xmlns="http://www.w3.org/2000/svg" viewBox="0 0 218.66 215.52">
  <path d="M218.3,90.21c-.49,3.7-1.94,7.21-3.16,11.75-14.22-23.8-34.54-40.9-63.85-44.15v5.82c0,32.15-.39,64.3.17,96.44.26,14.75-5,26.49-16,35.46C112.63,214.3,86.62,219.4,58.87,209c-31.46-11.8-36.23-45.13-10.54-67C70,123.53,107,117.78,132.42,133a8.78,8.78,0,0,0,1.88.48v-5.55c0-38.65.1-77.3-.11-115.94,0-5.79,1.52-10.63,7.11-11.73a9.63,9.63,0,0,1,4,0c5.86,1.38,6.83,7.27,6,12.8-.65,4.12,1.16,6.33,4.77,8,6.15,2.92,12.17,6.13,18.12,9.45,19.9,11.08,41.38,22.82,44.15,47.7A50.18,50.18,0,0,1,218.3,90.21Z"/>
  <path d="M.3,112.21C2,104.34,7.67,98,15.56,94.76,18.9,93.38,22.47,92,26,91.86a7.72,7.72,0,0,1,6,3.6c1.4,2.93-.56,5.9-3.77,6.29-9.33,1.1-14.88,6.07-18,14.84-1.48,4.25-7.82,5-9.94-.38A7,7,0,0,1,.3,112.21Z"/>
  <path d="M149.3,215.21c-6.8-2.83-4.36-8.87,2.54-11,7.16-2.17,11.73-6.85,13.25-14.14.76-3.67,2.4-6.06,6.25-5.41s4.66,3.77,4,7.3c-1.77,9.54-7.21,16.24-15.87,20.41-2,1-4,2.32-6.18,2.8A6.9,6.9,0,0,1,149.3,215.21Z"/>
  <path d="M17.9,149.21c-3.93,0-5.81-2.91-4.76-7.29,4.27-17.72,20.6-32.6,39.11-35.63a11.72,11.72,0,0,1,5.68.23c2.19.79,4,1.73,4.26,3.49a6.2,6.2,0,0,1-2.74,5.52c-2,1.19-4.82.92-7.24,1.49C37.52,120.53,28.07,129.76,23.43,144,22.45,146.92,21.41,149.21,17.9,149.21Z"/>
</svg>
