<svg width="40" height="40" viewBox="0 0 40 40" fill="none" xmlns="http://www.w3.org/2000/svg">
<path d="M8.54966 30.3207L8.54669 30.3196C8.53867 30.3166 8.53343 30.3144 8.53047 30.313C8.52814 30.312 8.52709 30.3115 8.52709 30.3115C8.52709 30.3115 8.52916 30.3125 8.53268 30.3147C8.54586 30.3229 8.56464 30.3376 8.58068 30.36C8.59248 30.3766 8.62042 30.4205 8.63128 30.5206C8.64283 30.6269 8.63769 30.8255 8.53331 31.1452L8.53288 31.1465C8.46718 31.3486 8.29992 31.6548 8.02554 32.0435C7.76168 32.4173 7.44112 32.8091 7.12402 33.1752C6.86707 33.4719 6.62287 33.7399 6.4182 33.9646C6.3702 34.0173 6.32438 34.0676 6.28107 34.1153C6.17295 34.2344 6.06825 34.3509 5.99294 34.4423C5.9607 34.4814 5.90346 34.552 5.85393 34.6313L5.85296 34.6329C5.83526 34.6612 5.76783 34.7691 5.72674 34.9179C5.70701 34.9893 5.66185 35.1771 5.71446 35.4108C5.78133 35.7078 5.98636 35.98 6.29916 36.114L6.3143 36.1205L6.32965 36.1265C6.78976 36.306 7.3393 36.2963 7.80185 36.245C8.30267 36.1895 8.86562 36.0644 9.43992 35.8908C10.584 35.5449 11.8713 34.9767 12.9255 34.2596C14.3413 33.3031 16.0878 33.3215 16.9297 33.409C17.0481 33.426 17.1668 33.4421 17.2859 33.4572C17.2971 33.4592 17.3056 33.4608 17.3111 33.4618L17.3164 33.4628L17.3159 33.4627L17.3157 33.4627L17.3156 33.4627L17.3155 33.4626L17.3157 33.4617L17.4236 33.0793L17.3759 33.4685C18.2337 33.5736 19.1097 33.6285 20 33.6285C30.2761 33.6285 39 26.9116 39 18.19C39 9.46833 30.2761 2.75146 20 2.75146C9.7239 2.75146 1 9.46833 1 18.19C1 22.881 4.02768 27.3846 8.51147 30.2796L8.62226 30.108L8.54966 30.3207Z" stroke="white" stroke-width="2"/>
</svg>
