<svg viewBox="0 0 24 24" fill="none" xmlns="http://www.w3.org/2000/svg">
<g clip-path="url(#clip0)">
<path fill-rule="evenodd" clip-rule="evenodd" d="M11.8309 0.30957C5.29435 0.30957 0 5.60392 0 12.1405C0 17.3757 3.38661 21.7975 8.08941 23.3651C8.68096 23.4686 8.90279 23.1137 8.90279 22.8032C8.90279 22.5222 8.888 21.5905 8.888 20.5996C5.91547 21.1468 5.14646 19.875 4.90984 19.2095C4.77674 18.8694 4.19999 17.8194 3.69717 17.5384C3.28309 17.3166 2.69154 16.7694 3.68238 16.7546C4.61407 16.7398 5.27956 17.6123 5.50139 17.9673C6.56617 19.7567 8.26687 19.2539 8.94715 18.9433C9.05067 18.1743 9.36124 17.6567 9.70138 17.3609C7.06899 17.0651 4.3183 16.0447 4.3183 11.5194C4.3183 10.2328 4.77674 9.16799 5.53097 8.33982C5.41266 8.04405 4.99857 6.83138 5.64928 5.20462C5.64928 5.20462 6.64012 4.89406 8.90279 6.4173C9.84926 6.1511 10.8549 6.018 11.8605 6.018C12.8662 6.018 13.8718 6.1511 14.8183 6.4173C17.0809 4.87927 18.0718 5.20462 18.0718 5.20462C18.7225 6.83138 18.3084 8.04405 18.1901 8.33982C18.9443 9.16799 19.4028 10.218 19.4028 11.5194C19.4028 16.0595 16.6373 17.0651 14.0049 17.3609C14.4338 17.7306 14.8035 18.4405 14.8035 19.5496C14.8035 21.132 14.7887 22.4039 14.7887 22.8032C14.7887 23.1137 15.0105 23.4834 15.6021 23.3651C17.9507 22.5722 19.9916 21.0628 21.4374 19.0492C22.8833 17.0357 23.6613 14.6194 23.6619 12.1405C23.6619 5.60392 18.3675 0.30957 11.8309 0.30957Z" fill="white"/>
</g>
<defs>
<clipPath id="clip0">
<rect width="23.6619" height="23.6619" fill="white" transform="translate(0 0.30957)"/>
</clipPath>
</defs>
</svg>
