<svg width="96" height="16" viewBox="0 0 96 16" fill="none" xmlns="http://www.w3.org/2000/svg">
<path d="M28.4166 4.58728C27.5681 3.98946 26.4882 3.7002 25.254 3.7002H22.5542V12.2817H25.2733C26.5075 12.2817 27.5874 11.9732 28.4359 11.3368C28.8988 11.009 29.2652 10.5461 29.5351 9.96761C29.7858 9.38908 29.9208 8.69485 29.9208 7.94276C29.9208 7.19067 29.7858 6.51571 29.5351 5.93718C29.2652 5.35865 28.8988 4.89583 28.4166 4.58728ZM24.1355 5.14652H24.984C25.929 5.14652 26.7003 5.33937 27.2982 5.70577C27.9538 6.11074 28.2817 6.86283 28.2817 7.94276C28.2817 9.06125 27.9538 9.85191 27.2982 10.2762C26.7389 10.6426 25.9675 10.8354 25.0033 10.8354H24.1355V5.14652Z" fill="white"/>
<path d="M31.7916 3.58447C31.5216 3.58447 31.3095 3.6809 31.1167 3.85446C30.9431 4.02801 30.8467 4.24014 30.8467 4.51012C30.8467 4.7801 30.9431 4.99223 31.1167 5.18508C31.2902 5.35864 31.5216 5.45506 31.7916 5.45506C32.0423 5.45506 32.2737 5.35864 32.4666 5.18508C32.6401 5.01152 32.7365 4.7801 32.7365 4.51012C32.7365 4.24014 32.6401 4.02801 32.4666 3.85446C32.2737 3.6809 32.0423 3.58447 31.7916 3.58447Z" fill="white"/>
<path d="M32.5435 6.22656H31.02V12.2818H32.5435V6.22656Z" fill="white"/>
<path d="M38.078 6.72794C37.6152 6.32297 37.1138 6.07227 36.5545 6.07227C35.706 6.07227 35.0118 6.36153 34.4718 6.94006C33.9318 7.49931 33.6426 8.23212 33.6426 9.1192C33.6426 9.96772 33.9126 10.7005 34.4525 11.2791C34.9925 11.8383 35.706 12.1276 36.5352 12.1276C37.1138 12.1276 37.6344 11.9733 38.0394 11.6455V11.7804C38.0394 12.2818 37.9044 12.6675 37.6344 12.9375C37.3645 13.2075 36.9981 13.3425 36.5352 13.3425C35.841 13.3425 35.3975 13.0725 34.8575 12.3397L33.8161 13.3425L33.8354 13.3811C34.0668 13.6896 34.3947 13.9982 34.8575 14.2874C35.301 14.5767 35.8796 14.731 36.5545 14.731C37.4609 14.731 38.1937 14.461 38.7337 13.9017C39.2736 13.3425 39.5436 12.6097 39.5436 11.7033V6.20726H38.0394V6.72794H38.078ZM37.673 10.3148C37.403 10.6234 37.0559 10.7584 36.6317 10.7584C36.1881 10.7584 35.8603 10.6041 35.5903 10.3148C35.3203 10.0063 35.2046 9.6206 35.2046 9.13849C35.2046 8.63709 35.3396 8.2514 35.5903 7.94285C35.841 7.6343 36.2074 7.49932 36.6317 7.49932C37.0752 7.49932 37.403 7.65359 37.673 7.94285C37.943 8.2514 38.078 8.65638 38.078 9.13849C38.078 9.6206 37.943 10.0063 37.673 10.3148Z" fill="white"/>
<path d="M42.398 6.22656H40.8745V12.2818H42.398V6.22656Z" fill="white"/>
<path d="M41.6456 3.58447C41.3756 3.58447 41.1635 3.6809 40.9707 3.85446C40.7971 4.02801 40.7007 4.24014 40.7007 4.51012C40.7007 4.7801 40.7971 4.99223 40.9707 5.18508C41.1442 5.35864 41.3756 5.45506 41.6456 5.45506C41.8963 5.45506 42.1277 5.35864 42.3206 5.18508C42.4941 5.01152 42.5906 4.7801 42.5906 4.51012C42.5906 4.24014 42.4941 4.02801 42.3206 3.85446C42.1277 3.6809 41.9156 3.58447 41.6456 3.58447Z" fill="white"/>
<path d="M45.7338 4.5874H44.2296V6.22657H43.3618V7.61505H44.2296V10.122C44.2296 10.9127 44.3839 11.4719 44.6924 11.7998C45.001 12.1276 45.5602 12.2819 46.3316 12.2819C46.5823 12.2819 46.833 12.2819 47.0644 12.2626H47.1416V10.8741L46.6209 10.8934C46.2545 10.8934 46.0231 10.8355 45.9074 10.7005C45.7917 10.5656 45.7338 10.2956 45.7338 9.8906V7.59577H47.1608V6.20729H45.7338V4.5874Z" fill="white"/>
<path d="M55.8199 3.68091H54.2964V12.2817H55.8199V3.68091Z" fill="white"/>
<path d="M71.2086 10.122C70.9386 10.4305 70.6493 10.7005 70.4372 10.8355C70.2251 10.9705 69.9551 11.0476 69.6465 11.0476C69.203 11.0476 68.8366 10.8934 68.5473 10.5462C68.2581 10.2184 68.1038 9.77487 68.1038 9.27347C68.1038 8.7528 68.2581 8.32854 68.5473 8.00071C68.8366 7.67287 69.203 7.49932 69.6465 7.49932C70.1286 7.49932 70.6493 7.80786 71.0929 8.32854L72.0956 7.36432C71.44 6.51581 70.6108 6.11084 69.608 6.11084C68.7787 6.11084 68.0459 6.41939 67.4481 7.01721C66.8503 7.61502 66.561 8.36711 66.561 9.27347C66.561 10.1798 66.8696 10.9319 67.4481 11.5297C68.0459 12.1276 68.7595 12.4361 69.608 12.4361C70.7072 12.4361 71.5943 11.954 72.2113 11.0862L71.2086 10.122Z" fill="white"/>
<path d="M77.4761 7.07506C77.264 6.76651 76.9747 6.53509 76.6083 6.36153C76.2419 6.18797 75.8177 6.09155 75.3548 6.09155C74.5063 6.09155 73.8121 6.40011 73.2914 7.01721C72.79 7.63431 72.52 8.38639 72.52 9.29276C72.52 10.2184 72.8093 10.9705 73.3493 11.549C73.9085 12.1276 74.6413 12.4168 75.5477 12.4168C76.5697 12.4168 77.4183 11.9926 78.0546 11.1826L78.0932 11.1441L77.0904 10.1798C76.994 10.2955 76.859 10.4113 76.7433 10.527C76.589 10.6619 76.454 10.7777 76.2998 10.8548C76.0683 10.9705 75.8177 11.0284 75.5284 11.0284C75.1041 11.0284 74.757 10.9126 74.487 10.662C74.2363 10.4305 74.0821 10.122 74.0435 9.7363H78.0739L78.0932 9.17705C78.0932 8.79136 78.0354 8.40568 77.9389 8.05856C77.8425 7.71144 77.6882 7.38361 77.4761 7.07506ZM74.1399 8.5021C74.217 8.21283 74.352 7.96214 74.5449 7.78858C74.757 7.57645 75.027 7.48003 75.3355 7.48003C75.7019 7.48003 75.9912 7.57645 76.1841 7.78858C76.3576 7.98142 76.4733 8.21283 76.4926 8.5021H74.1399Z" fill="white"/>
<path d="M83.3192 6.68937C82.8564 6.30368 82.22 6.09155 81.4293 6.09155C80.9279 6.09155 80.4458 6.20726 80.0216 6.41939C79.6166 6.61223 79.2309 6.95935 78.9802 7.38361L78.9995 7.40289L79.983 8.32854C80.388 7.69216 80.8315 7.46074 81.4293 7.46074C81.7572 7.46074 82.0079 7.53788 82.22 7.71144C82.4128 7.885 82.5285 8.09713 82.5285 8.36711V8.65638C82.1428 8.54067 81.7764 8.48281 81.41 8.48281C80.658 8.48281 80.0409 8.65638 79.578 9.00349C79.1152 9.35061 78.8838 9.87129 78.8838 10.527C78.8838 11.1055 79.0766 11.549 79.4816 11.8962C79.8866 12.224 80.3687 12.3975 80.9472 12.3975C81.5257 12.3975 82.0657 12.1661 82.5671 11.7612V12.2626H84.0713V8.36711C84.0134 7.65359 83.782 7.07506 83.3192 6.68937ZM80.6194 9.96771C80.7929 9.85201 81.0436 9.79416 81.3522 9.79416C81.7186 9.79416 82.1043 9.87129 82.5093 10.0063V10.6041C82.1814 10.9126 81.7379 11.0669 81.1979 11.0669C80.9279 11.0669 80.7351 11.0091 80.5808 10.8934C80.4458 10.7777 80.3687 10.6427 80.3687 10.4498C80.3687 10.2377 80.4458 10.0834 80.6194 9.96771Z" fill="white"/>
<path d="M89.876 6.80508C89.4518 6.32297 88.854 6.09155 88.1019 6.09155C87.5041 6.09155 87.0027 6.26511 86.6363 6.61223V6.24583H85.1514V12.2818H86.6748V8.94564C86.6748 8.48282 86.7905 8.11642 87.0027 7.86572C87.2148 7.61502 87.5041 7.48003 87.909 7.48003C88.2562 7.48003 88.5069 7.59573 88.6997 7.82715C88.8925 8.05856 88.989 8.38639 88.989 8.77208V12.2818H90.5124V8.77208C90.5124 7.94285 90.3003 7.2679 89.876 6.80508Z" fill="white"/>
<path d="M52.3871 6.68937C51.9242 6.30368 51.2879 6.09155 50.4972 6.09155C49.9958 6.09155 49.5137 6.20726 49.0894 6.41939C48.6845 6.61223 48.2988 6.95935 48.0481 7.38361L48.0674 7.40289L49.0509 8.32854C49.4558 7.69216 49.8994 7.46074 50.4972 7.46074C50.825 7.46074 51.0757 7.53788 51.2879 7.71144C51.4807 7.885 51.5964 8.09713 51.5964 8.36711V8.65638C51.2107 8.54067 50.8443 8.48281 50.4779 8.48281C49.7258 8.48281 49.1087 8.65638 48.6459 9.00349C48.1831 9.35061 47.9517 9.87129 47.9517 10.527C47.9517 11.1055 48.1445 11.549 48.5495 11.8962C48.9544 12.224 49.4366 12.3975 50.0151 12.3975C50.5936 12.3975 51.1336 12.1661 51.635 11.7612V12.2626H53.1392V8.36711C53.0813 7.65359 52.8499 7.07506 52.3871 6.68937ZM49.6873 9.96771C49.8608 9.85201 50.1115 9.79416 50.4201 9.79416C50.7865 9.79416 51.1721 9.87129 51.5771 10.0063V10.6041C51.2493 10.9126 50.8057 11.0669 50.2658 11.0669C49.9958 11.0669 49.803 11.0091 49.6487 10.8934C49.5137 10.7777 49.4366 10.6427 49.4366 10.4498C49.4366 10.2377 49.5137 10.0834 49.6873 9.96771Z" fill="white"/>
<path d="M61.3543 12.4167C58.9052 12.4167 56.9189 10.4304 56.9189 7.98131C56.9189 5.53219 58.9052 3.5459 61.3543 3.5459C63.8035 3.5459 65.7897 5.53219 65.7897 7.98131C65.7897 10.4304 63.8035 12.4167 61.3543 12.4167ZM61.3543 5.10793C59.773 5.10793 58.481 6.39999 58.481 7.98131C58.481 9.56263 59.773 10.8547 61.3543 10.8547C62.9357 10.8547 64.2277 9.56263 64.2277 7.98131C64.2277 6.39999 62.9357 5.10793 61.3543 5.10793Z" fill="white"/>
<path d="M8.00114 16V12.8975C11.285 12.8975 13.8342 9.64082 12.5732 6.18455C12.1106 4.91453 11.0855 3.88944 9.80638 3.42679C6.35011 2.17491 3.09341 4.71495 3.09341 7.99887H0C0 2.76456 5.06194 -1.31765 10.5503 0.396878C12.9451 1.14982 14.8593 3.05485 15.6031 5.44975C17.3177 10.9381 13.2354 16 8.00114 16Z" fill="white"/>
<path fill-rule="evenodd" clip-rule="evenodd" d="M8.0104 12.9157H4.91699V9.82227H8.0104V12.9157Z" fill="white"/>
<path fill-rule="evenodd" clip-rule="evenodd" d="M4.91651 15.2832H2.54883V12.9155H4.91651V15.2832Z" fill="white"/>
<path fill-rule="evenodd" clip-rule="evenodd" d="M2.54918 12.9156H0.5625V10.929H2.54918V12.9156Z" fill="white"/>
</svg>
