<svg width="24" height="25" viewBox="0 0 24 25" fill="none" xmlns="http://www.w3.org/2000/svg">
<path d="M11.8362 6.39812C8.47821 6.39812 5.76961 9.10672 5.76961 12.4647C5.76961 15.8228 8.47821 18.5313 11.8362 18.5313C15.1942 18.5313 17.9028 15.8228 17.9028 12.4647C17.9028 9.10672 15.1942 6.39812 11.8362 6.39812ZM11.8362 16.4088C9.66618 16.4088 7.89214 14.6401 7.89214 12.4647C7.89214 10.2894 9.6609 8.52065 11.8362 8.52065C14.0115 8.52065 15.7803 10.2894 15.7803 12.4647C15.7803 14.6401 14.0063 16.4088 11.8362 16.4088ZM19.566 6.14997C19.566 6.93667 18.9324 7.56498 18.151 7.56498C17.3643 7.56498 16.736 6.93139 16.736 6.14997C16.736 5.36854 17.3696 4.73495 18.151 4.73495C18.9324 4.73495 19.566 5.36854 19.566 6.14997ZM23.584 7.5861C23.4943 5.69062 23.0613 4.01161 21.6727 2.62827C20.2893 1.24494 18.6103 0.811986 16.7149 0.716948C14.7613 0.60607 8.90588 0.60607 6.95231 0.716948C5.06211 0.806706 3.3831 1.23966 1.99448 2.62299C0.605869 4.00633 0.178197 5.68534 0.0831585 7.58082C-0.0277195 9.53439 -0.0277195 15.3898 0.0831585 17.3434C0.172917 19.2388 0.605869 20.9179 1.99448 22.3012C3.3831 23.6845 5.05683 24.1175 6.95231 24.2125C8.90588 24.3234 14.7613 24.3234 16.7149 24.2125C18.6103 24.1228 20.2893 23.6898 21.6727 22.3012C23.056 20.9179 23.489 19.2388 23.584 17.3434C23.6949 15.3898 23.6949 9.53967 23.584 7.5861ZM21.0602 19.4395C20.6484 20.4743 19.8511 21.2716 18.811 21.6887C17.2534 22.3065 13.5575 22.1639 11.8362 22.1639C10.115 22.1639 6.41376 22.3012 4.86147 21.6887C3.82661 21.2769 3.02934 20.4796 2.61223 19.4395C1.99448 17.8819 2.13704 14.186 2.13704 12.4647C2.13704 10.7435 1.99976 7.04227 2.61223 5.48998C3.02406 4.45512 3.82133 3.65785 4.86147 3.24074C6.41904 2.62299 10.115 2.76555 11.8362 2.76555C13.5575 2.76555 17.2587 2.62827 18.811 3.24074C19.8458 3.65257 20.6431 4.44984 21.0602 5.48998C21.678 7.04755 21.5354 10.7435 21.5354 12.4647C21.5354 14.186 21.678 17.8872 21.0602 19.4395Z" fill="white"/>
</svg>
