<svg width="67" height="22" viewBox="0 0 67 22" fill="none" xmlns="http://www.w3.org/2000/svg">
<g>
<path fill-rule="evenodd" clip-rule="evenodd" d="M20.8429 4.89241C20.8507 4.92124 20.8546 4.95097 20.8547 4.98083V9.62283C20.8547 9.68241 20.8391 9.74093 20.8094 9.79249C20.7798 9.84405 20.7371 9.8868 20.6858 9.91644L16.8181 12.1596V16.6057C16.8181 16.7267 16.7542 16.8384 16.6501 16.8993L8.5764 21.5811C8.55792 21.5917 8.53776 21.5984 8.5176 21.6056C8.51004 21.6082 8.5029 21.6128 8.49492 21.6149C8.43848 21.6299 8.37916 21.6299 8.32272 21.6149C8.31348 21.6124 8.30508 21.6073 8.29626 21.6039C8.27778 21.5972 8.25846 21.5913 8.24082 21.5811L0.16884 16.8993C0.117561 16.8697 0.0749535 16.8269 0.0453115 16.7753C0.0156695 16.7238 4.06305e-05 16.6653 0 16.6057L0 2.67971C0 2.64925 0.0042 2.61964 0.01176 2.59087C0.01428 2.58114 0.02016 2.57225 0.02352 2.56252C0.02982 2.54475 0.0357 2.52656 0.04494 2.51006C0.05124 2.49906 0.06048 2.49018 0.06804 2.48002C0.0777 2.46648 0.08652 2.45252 0.09786 2.44068C0.10752 2.43095 0.12012 2.42375 0.13104 2.41529C0.14322 2.40514 0.15414 2.39414 0.168 2.3861H0.16842L4.20462 0.0452148C4.25573 0.0155911 4.31366 0 4.37262 0C4.43158 0 4.48951 0.0155911 4.54062 0.0452148L8.57682 2.3861H8.57766C8.5911 2.39456 8.60244 2.40514 8.61462 2.41487C8.62554 2.42333 8.63772 2.43095 8.64738 2.44025C8.65914 2.45252 8.66754 2.46648 8.67762 2.48002C8.68476 2.49018 8.69442 2.49906 8.7003 2.51006C8.70996 2.52698 8.71542 2.54475 8.72214 2.56252C8.7255 2.57225 8.73138 2.58114 8.7339 2.59129C8.74163 2.62012 8.74559 2.64985 8.74566 2.67971V11.3778L12.109 9.42695V4.98041C12.109 4.95079 12.1132 4.92075 12.1208 4.89241C12.1237 4.88225 12.1292 4.87337 12.1325 4.86364C12.1393 4.84587 12.1451 4.82768 12.1544 4.81118C12.1607 4.80018 12.1699 4.79129 12.1771 4.78114C12.1871 4.7676 12.1955 4.75364 12.2073 4.74179C12.217 4.73206 12.2291 4.72487 12.2401 4.71641C12.2527 4.70625 12.2636 4.69525 12.277 4.68722H12.2774L16.3141 2.34633C16.3652 2.31667 16.4231 2.30105 16.4821 2.30105C16.541 2.30105 16.599 2.31667 16.6501 2.34633L20.6863 4.68722C20.7005 4.69568 20.7115 4.70625 20.7241 4.71598C20.7346 4.72445 20.7467 4.73206 20.7564 4.74137C20.7682 4.75364 20.7766 4.7676 20.7866 4.78114C20.7942 4.79129 20.8034 4.80018 20.8093 4.81118C20.819 4.82768 20.8244 4.84587 20.8312 4.86364C20.8349 4.87337 20.8404 4.88225 20.8429 4.89241V4.89241ZM20.1818 9.42695V5.56679L18.7694 6.38587L16.8181 7.5176V11.3778L20.1823 9.42695H20.1818ZM16.1456 16.4098V12.5471L14.2262 13.6514L8.74524 16.8024V20.7015L16.1456 16.4098ZM0.67284 3.26568V16.4098L8.0724 20.7011V16.8029L4.20672 14.5991L4.20546 14.5982L4.20378 14.5974C4.19076 14.5898 4.17984 14.5788 4.16766 14.5694C4.15716 14.561 4.14498 14.5542 4.13574 14.5449L4.1349 14.5436C4.12398 14.5331 4.11642 14.5199 4.10718 14.5081C4.09878 14.4967 4.0887 14.4869 4.08198 14.4751L4.08156 14.4738C4.074 14.4611 4.06938 14.4459 4.06392 14.4315C4.05846 14.4188 4.05132 14.407 4.04796 14.3934V14.393C4.04376 14.3769 4.04292 14.36 4.04124 14.3435C4.03956 14.3308 4.0362 14.3181 4.0362 14.3054V14.3046V5.21648L2.0853 4.08433L0.67284 3.2661V3.26568ZM4.37304 0.729753L1.0101 2.67971L4.3722 4.62968L7.73472 2.67929L4.3722 0.729753H4.37304ZM6.12192 12.8991L8.07282 11.7678V3.26568L6.66036 4.08475L4.70904 5.21648V13.7186L6.12192 12.8991ZM16.4821 3.03087L13.1195 4.98083L16.4821 6.93079L19.8442 4.98041L16.4821 3.03087V3.03087ZM16.1456 7.5176L14.1943 6.38587L12.7819 5.56679V9.42695L14.7328 10.5583L16.1456 11.3778V7.5176ZM8.4084 16.2165L13.3405 13.3802L15.8059 11.9629L12.4459 10.0142L8.57724 12.2578L5.05134 14.3025L8.4084 16.2165V16.2165Z" fill="white"/>
<path fill-rule="evenodd" clip-rule="evenodd" d="M28.7835 5.34766V14.0892H31.7091V15.5974H27.2256V5.34766H28.7835ZM37.208 9.69645V8.77397H38.6845V15.5978H37.2084V14.6749C37.0094 15.0167 36.7277 15.2852 36.3617 15.4802C35.9961 15.6755 35.628 15.773 35.2579 15.773C34.7789 15.773 34.341 15.6782 33.9438 15.4878C33.5567 15.3053 33.2085 15.0385 32.921 14.7041C32.6362 14.3715 32.4113 13.9843 32.2579 13.5624C32.098 13.124 32.0174 12.6566 32.0203 12.1855C32.0203 11.7076 32.0993 11.2509 32.2575 10.8162C32.4099 10.3914 32.635 10.0015 32.921 9.66686C33.2086 9.33264 33.5568 9.06602 33.9438 8.88359C34.341 8.69317 34.7789 8.59835 35.2579 8.59835C35.628 8.59835 35.9961 8.69583 36.3617 8.89117C36.7273 9.08652 37.0094 9.35469 37.2084 9.69645H37.208ZM37.0726 13.0203C37.1635 12.7532 37.2095 12.4706 37.2084 12.1859C37.2084 11.8927 37.1628 11.6146 37.0726 11.3514C36.988 11.0979 36.8594 10.8642 36.6937 10.6629C36.5283 10.4655 36.3278 10.306 36.1042 10.1941C35.874 10.0773 35.6189 10.0185 35.3393 10.0185C35.0589 10.0185 34.8059 10.0773 34.5803 10.1941C34.3595 10.3074 34.1616 10.4667 33.9979 10.6629C33.8327 10.8632 33.7063 11.0971 33.6259 11.351C33.5391 11.6192 33.4955 11.9014 33.4968 12.1855C33.4968 12.4783 33.5396 12.7567 33.6256 13.02C33.7112 13.284 33.8354 13.5131 33.9982 13.7084C34.1619 13.9047 34.3598 14.064 34.5807 14.1772C34.8059 14.2944 35.0589 14.3529 35.3389 14.3529C35.6189 14.3529 35.874 14.2944 36.1042 14.1772C36.3278 14.0654 36.5283 13.906 36.6937 13.7084C36.8594 13.5072 36.988 13.2737 37.0726 13.0203ZM39.8494 15.5974V8.77397H43.8589V10.3447H41.3256V15.5981H39.8494V15.5974ZM49.2091 9.69645V8.77397H50.6856V15.5978H49.2091V14.6749C49.0105 15.0167 48.7284 15.2852 48.3624 15.4802C47.9968 15.6755 47.6291 15.773 47.2586 15.773C46.78 15.773 46.3421 15.6782 45.9449 15.4878C45.5578 15.3053 45.2096 15.0385 44.9221 14.7041C44.6371 14.3715 44.4121 13.9843 44.2586 13.5624C44.0988 13.124 44.0183 12.6566 44.0214 12.1855C44.0214 11.7076 44.1003 11.2509 44.2586 10.8162C44.4109 10.3914 44.6359 10.0015 44.9217 9.66686C45.2094 9.3326 45.5577 9.06597 45.9449 8.88359C46.3421 8.69317 46.78 8.59835 47.2586 8.59835C47.6287 8.59835 47.9968 8.69583 48.3624 8.89117C48.7284 9.08652 49.0105 9.35469 49.2091 9.69645ZM49.0737 13.0203C49.1645 12.7531 49.2103 12.4705 49.2091 12.1859C49.2091 11.8927 49.1635 11.6146 49.0737 11.3514C48.989 11.0979 48.8604 10.8642 48.6947 10.6629C48.5293 10.4655 48.3288 10.306 48.1052 10.1941C47.8751 10.0773 47.6196 10.0185 47.34 10.0185C47.06 10.0185 46.807 10.0773 46.5814 10.1941C46.3606 10.3074 46.1626 10.4667 45.9989 10.6629C45.8336 10.8632 45.7071 11.0971 45.6266 11.351C45.54 11.6192 45.4964 11.9014 45.4979 12.1855C45.4979 12.4783 45.5403 12.7567 45.6266 13.02C45.7123 13.284 45.8365 13.5131 45.9989 13.7084C46.1626 13.9047 46.3605 14.064 46.5814 14.1772C46.807 14.2944 47.06 14.3529 47.34 14.3529C47.6196 14.3529 47.8751 14.2944 48.1052 14.1772C48.3289 14.0654 48.5294 13.906 48.6947 13.7084C48.8604 13.5072 48.989 13.2737 49.0737 13.0203ZM56.6045 8.77397H58.1L55.6772 15.5978H53.821L51.3979 8.77397H52.8933L54.7491 13.9993L56.6045 8.77397ZM61.3203 8.59835C63.3305 8.59835 64.7014 10.5245 64.4438 12.7787H59.5459C59.5459 13.3674 60.0958 14.5053 61.4014 14.5053C62.5242 14.5053 63.2768 13.4376 63.2772 13.4368L64.2747 14.2713C63.3828 15.3004 62.6526 15.7734 61.5091 15.7734C59.4659 15.7734 58.081 14.376 58.081 12.1859C58.081 10.2047 59.5123 8.59835 61.32 8.59835H61.3203ZM59.5498 11.5926H63.088C63.0772 11.4614 62.8852 9.866 61.3084 9.866C59.7312 9.866 59.561 11.4614 59.5498 11.5926ZM65.4052 15.5974V5.34766H66.8817V15.5974H65.4052Z" fill="white"/>
</g>
</svg>
