<svg width="73" height="12" viewBox="0 0 73 12" fill="none" xmlns="http://www.w3.org/2000/svg">
<g>
<path d="M24.3384 8.47604L24.7705 7.11711H27.5107L27.9428 8.47604H29.9373L27.4101 0.748563H25.0013L22.3262 8.47604H24.3384ZM27.0787 5.75242H25.2499L26.1791 2.92515L27.0787 5.75242ZM33.0445 8.47604V0.529752H31.1506V8.47604H33.0445ZM36.9506 11.2284L36.9505 8.23723L36.9564 8.24249C37.0159 8.29592 37.0795 8.34383 37.1472 8.38621L37.1815 8.40694C37.4695 8.57585 37.8285 8.6603 38.2586 8.6603C38.7518 8.6603 39.2144 8.5413 39.6465 8.30329C40.0785 8.06529 40.4277 7.72172 40.6941 7.27258C40.9604 6.82344 41.0935 6.28025 41.0935 5.64301C41.0935 5.00194 40.9624 4.45683 40.7 4.00769C40.4376 3.55855 40.0973 3.21498 39.679 2.97698C39.2608 2.73897 38.8189 2.61997 38.3533 2.61997C38.0021 2.61997 37.6707 2.7073 37.359 2.88197C37.1346 3.00773 36.9413 3.18871 36.7793 3.42491L36.756 3.45972L36.6015 2.80423H35.0567V11.2284H36.9506ZM37.9568 6.97891C37.7753 6.97891 37.6076 6.94628 37.4537 6.88102C37.2998 6.81576 37.1775 6.72555 37.0868 6.61039C36.996 6.49522 36.9506 6.36087 36.9506 6.20732H36.9505V5.27449L36.9512 5.23491C36.9564 5.06491 36.9948 4.91436 37.0666 4.78328L37.0838 4.75338C37.1726 4.60558 37.2959 4.49138 37.4537 4.41076C37.6115 4.33015 37.7911 4.28984 37.9923 4.28984C38.2409 4.28984 38.4549 4.34551 38.6344 4.45683C38.814 4.56815 38.953 4.72554 39.0517 4.929C39.1503 5.13246 39.1996 5.37046 39.1996 5.64301C39.1996 5.96547 39.1336 6.22459 39.0014 6.42037C38.8692 6.61615 38.7074 6.75818 38.5161 6.84647C38.3247 6.93477 38.1383 6.97891 37.9568 6.97891ZM43.7273 2.07294C44.0745 2.07294 44.3487 1.98369 44.5499 1.80519C44.7511 1.62669 44.8518 1.37429 44.8518 1.04799C44.8518 0.729369 44.7511 0.47505 44.5499 0.28503C44.3487 0.0950099 44.0745 0 43.7273 0C43.3682 0 43.091 0.0950099 42.8957 0.28503C42.7004 0.47505 42.6027 0.729369 42.6027 1.04799C42.6027 1.37429 42.7004 1.62669 42.8957 1.80519C43.091 1.98369 43.3682 2.07294 43.7273 2.07294ZM44.6742 8.47604V2.76968H42.7803V8.47604H44.6742ZM48.7461 8.47604V6.08639L48.7464 6.02777C48.7509 5.64048 48.8002 5.32378 48.8944 5.07767L48.9088 5.04128C49.0174 4.77833 49.1624 4.58735 49.3439 4.46835C49.5254 4.34934 49.7246 4.28984 49.9416 4.28984C50.1547 4.28984 50.3362 4.36182 50.4861 4.50577C50.636 4.64973 50.711 4.87142 50.711 5.17084V8.47604H52.6168V5.17084C52.6168 4.67564 52.5418 4.2361 52.3918 3.85222C52.2419 3.46834 52.0081 3.167 51.6905 2.94819C51.3729 2.72938 50.9635 2.61997 50.4624 2.61997C50.0245 2.61997 49.6329 2.73897 49.2876 2.97698C49.0733 3.12471 48.8872 3.32493 48.7291 3.57766L48.7128 3.6042L48.5212 2.80423H46.8522V8.47604H48.7461ZM56.8011 8.6603C57.2825 8.6603 57.7076 8.57585 58.0765 8.40694C58.4454 8.23803 58.7453 8.00963 58.9761 7.72172C59.2069 7.43381 59.3519 7.11327 59.4111 6.7601H57.5291C57.4778 6.90981 57.387 7.01922 57.2568 7.08832C57.1266 7.15742 56.9747 7.19196 56.8011 7.19196C56.588 7.19196 56.4115 7.14302 56.2714 7.04513C56.1313 6.94724 56.0258 6.81001 55.9548 6.63342C55.8837 6.45684 55.8482 6.24762 55.8482 6.00578L55.8483 6.0173H59.3519C59.4454 5.60998 59.4636 5.21386 59.4065 4.82894L59.3963 4.76489C59.3273 4.3599 59.1813 3.99618 58.9584 3.67372C58.7354 3.35126 58.4425 3.09502 58.0795 2.905C57.7165 2.71498 57.2903 2.61997 56.8011 2.61997C56.3079 2.61997 55.8462 2.73897 55.4162 2.97698C54.9861 3.21498 54.6389 3.55759 54.3745 4.00481C54.1102 4.45203 53.978 4.9885 53.978 5.61422C53.978 6.23995 54.1112 6.78121 54.3775 7.23803C54.6438 7.69485 54.992 8.04609 55.4221 8.29178C55.8522 8.53746 56.3118 8.6603 56.8011 8.6603ZM57.7006 5.08447H55.8567L55.8568 5.08288C55.8712 4.92541 55.9036 4.78542 55.9539 4.66292L55.9696 4.6267C56.0504 4.44819 56.1649 4.31192 56.3128 4.21787C56.4608 4.12382 56.6354 4.07679 56.8366 4.07679C57.0181 4.07679 57.167 4.1123 57.2834 4.18332C57.3998 4.25433 57.4896 4.34838 57.5527 4.46547C57.6159 4.58255 57.6583 4.71019 57.68 4.84839C57.6908 4.91748 57.6975 4.9861 57.6999 5.05424L57.7006 5.08447ZM61.4234 8.57969C61.7982 8.57969 62.108 8.46932 62.3526 8.24859C62.5972 8.02786 62.7195 7.74667 62.7195 7.40502C62.7195 7.06336 62.5972 6.77929 62.3526 6.55281C62.108 6.32632 61.7982 6.21307 61.4234 6.21307C61.0486 6.21307 60.7438 6.32632 60.509 6.55281C60.2742 6.77929 60.1568 7.06336 60.1568 7.40502C60.1568 7.74283 60.2742 8.02306 60.509 8.24571C60.7438 8.46836 61.0486 8.57969 61.4234 8.57969ZM65.0396 2.07294C65.3868 2.07294 65.661 1.98369 65.8622 1.80519C66.0634 1.62669 66.1641 1.37429 66.1641 1.04799C66.1641 0.729369 66.0634 0.47505 65.8622 0.28503C65.661 0.0950099 65.3868 0 65.0396 0C64.6923 0 64.4161 0.0950099 64.211 0.28503C64.0058 0.47505 63.9032 0.729369 63.9032 1.04799C63.9032 1.37429 64.0058 1.62669 64.211 1.80519C64.4161 1.98369 64.6923 2.07294 65.0396 2.07294ZM63.9091 11.43C64.5996 11.43 65.1224 11.2467 65.4775 10.8801C65.8326 10.5135 66.0102 9.89447 66.0102 9.02307V2.7812H64.1044V8.98852C64.1044 9.31865 64.0443 9.53938 63.9239 9.65071C63.8036 9.76203 63.6211 9.81769 63.3765 9.81769C63.1871 9.81769 62.9819 9.79082 62.761 9.73708C62.54 9.68334 62.3447 9.62383 62.175 9.55858V11.1421C62.4473 11.215 62.7176 11.2812 62.9859 11.3407C63.2542 11.4002 63.5619 11.43 63.9091 11.43ZM70.4372 8.6603C70.9264 8.6603 71.3644 8.57201 71.7511 8.39542C72.1377 8.21884 72.4425 7.98947 72.6655 7.70732C72.8884 7.42517 72.9999 7.12671 72.9999 6.81192C72.9999 6.46643 72.8854 6.17853 72.6566 5.9482C72.4277 5.71787 72.1141 5.52593 71.7156 5.37238L70.1057 4.74474C69.8572 4.66029 69.7329 4.54512 69.7329 4.39925C69.7329 4.29176 69.7921 4.20539 69.9104 4.14013C70.0288 4.07487 70.1906 4.04224 70.3957 4.04224C70.6443 4.04224 70.8219 4.08735 70.9284 4.17756C71.0349 4.26777 71.0882 4.3743 71.0882 4.49714H72.8223C72.8184 3.95203 72.6073 3.50289 72.189 3.14972C71.7708 2.79656 71.173 2.61997 70.3957 2.61997C69.5672 2.61997 68.9142 2.77544 68.4367 3.08638C67.9593 3.39733 67.7206 3.80424 67.7206 4.30712C67.7206 4.66412 67.834 4.97219 68.0609 5.2313C68.2878 5.49042 68.6104 5.70444 69.0286 5.87334L70.4431 6.40885C70.593 6.46643 70.7035 6.52402 70.7745 6.5816C70.8455 6.63918 70.8811 6.71596 70.8811 6.81192C70.8811 6.88486 70.8554 6.953 70.8041 7.01634C70.7528 7.07968 70.6759 7.13054 70.5733 7.16893C70.4707 7.20732 70.3405 7.22651 70.1827 7.22651C69.9223 7.22651 69.7161 7.18813 69.5642 7.11135C69.4123 7.03457 69.3324 6.89638 69.3245 6.69676H67.6141C67.6101 7.13822 67.7275 7.50387 67.9662 7.79369C68.2049 8.08352 68.5374 8.30041 68.9635 8.44437C69.3896 8.58832 69.8808 8.6603 70.4372 8.6603Z" fill="white"/>
<path fill-rule="evenodd" clip-rule="evenodd" d="M15.0161 0.236816L19.3067 4.39288L15.0161 8.54895L10.7256 4.39288L15.0161 0.236816Z" fill="white"/>
<path fill-rule="evenodd" clip-rule="evenodd" d="M4.29056 0.237305L13.1854 8.85335H4.60431L0 4.39337L4.29056 0.237305Z" fill="white"/>
</g>
</svg>
