<svg viewBox="0 0 34 34" fill="none" xmlns="http://www.w3.org/2000/svg">
<path d="M34 20.2692C33.9721 20.4737 33.9483 20.6793 33.9036 20.8811C33.6895 21.8371 33.1676 22.6899 32.423 23.3001C31.6785 23.9103 30.7555 24.242 29.8047 24.2408C27.5596 24.2408 25.3145 24.2464 23.0695 24.236C21.481 24.2289 19.8925 24.2276 18.3042 24.2322C18.1623 24.2322 18.0263 24.1742 17.9259 24.0708C17.8255 23.9674 17.7689 23.8272 17.7686 23.6808C17.7732 21.2534 17.7741 18.8257 17.7711 16.3979V10.0855C17.7711 9.76552 17.8487 9.64153 18.1383 9.52341C18.7034 9.29221 19.2947 9.1357 19.8979 9.05759C20.0702 9.03573 20.2449 9.01893 20.4185 9H21.2993C21.3114 9.00439 21.3239 9.00752 21.3365 9.00933C21.5884 9.02067 21.8393 9.04971 22.0874 9.09626C23.7458 9.39845 25.1482 10.1867 26.2946 11.4611C26.9786 12.2243 27.5017 13.1257 27.8309 14.1083C28.0189 14.6599 28.1419 15.2328 28.1973 15.8147C28.2069 15.9174 28.2125 15.9214 28.3027 15.8849C28.8573 15.6635 29.4511 15.5663 30.0448 15.5997C30.6385 15.6332 31.2186 15.7965 31.7465 16.0789C32.2744 16.3613 32.738 16.7563 33.1067 17.2377C33.4754 17.7191 33.7407 18.276 33.885 18.8712C33.9358 19.1013 33.9742 19.334 34 19.5685V20.2692Z" fill="white"/>
<path d="M17.5961 20.0163C17.5961 20.4146 17.5605 20.8114 17.5367 21.2084C17.5199 21.4919 17.5044 21.7753 17.4879 22.0587C17.462 22.488 17.4362 22.917 17.4129 23.3461C17.4044 23.5023 17.4062 23.6599 17.3796 23.814C17.3398 24.0438 17.1246 24.2198 16.9099 24.207C16.7941 24.2024 16.684 24.1538 16.6007 24.0707C16.5174 23.9876 16.4666 23.8757 16.4582 23.7564C16.436 23.3725 16.4171 22.988 16.3959 22.604C16.3618 21.9921 16.329 21.3799 16.2926 20.7682C16.2651 20.2594 16.2633 19.7494 16.2872 19.2404C16.2872 19.2244 16.2872 19.2084 16.2885 19.1926C16.2952 18.7305 16.3011 18.2685 16.3091 17.8061C16.3184 17.267 16.3288 16.728 16.3401 16.1892C16.3501 15.6636 16.3603 15.1379 16.3706 14.6123C16.3813 14.0758 16.3917 13.5395 16.4019 13.0034C16.4122 12.4776 16.4161 11.9518 16.435 11.4263C16.4463 11.1079 16.435 10.789 16.4574 10.4709C16.4763 10.2027 16.6791 9.99654 16.9298 10.0005C17.0523 10.0043 17.1689 10.0563 17.2554 10.146C17.3419 10.2356 17.3918 10.3561 17.3948 10.4826C17.4 10.6394 17.4016 10.7959 17.406 10.9524C17.4178 11.3745 17.4181 11.7969 17.429 12.219C17.4421 12.7288 17.4509 13.2386 17.4612 13.7481C17.4708 14.2209 17.4824 14.6934 17.4917 15.1659C17.5016 15.6677 17.512 16.1694 17.523 16.671C17.5323 17.1224 17.546 17.5736 17.5525 18.025C17.5597 18.5507 17.5705 19.0763 17.585 19.6019C17.5871 19.74 17.592 19.8782 17.5961 20.0163Z" fill="white"/>
<path d="M16.1125 19.9728C16.1174 20.4615 16.0776 20.9484 16.0523 21.4361C16.0409 21.6561 16.0306 21.876 16.0195 22.096C15.9943 22.5834 15.9691 23.0709 15.9438 23.5585C15.9391 23.6487 15.9438 23.7391 15.9301 23.8289C15.8903 24.0705 15.6991 24.2374 15.4722 24.2257C15.3616 24.2188 15.2573 24.1695 15.1801 24.0874C15.1028 24.0053 15.0581 23.8964 15.0547 23.782C15.0358 23.4031 15.0227 23.0237 15.0051 22.6448C14.9821 22.1491 14.9557 21.6537 14.9335 21.1577C14.9077 20.5586 14.8762 19.9592 14.9108 19.3587C14.9108 19.3403 14.9108 19.3217 14.9108 19.303C14.9178 18.8012 14.9234 18.2994 14.9317 17.7975C14.9408 17.232 14.9521 16.6665 14.9625 16.1009C14.9728 15.5354 14.9829 14.9754 14.9932 14.4126C15.0035 13.8497 15.0136 13.2868 15.0242 12.7242C15.033 12.2595 15.0433 11.795 15.0516 11.3305C15.0565 11.0503 15.2325 10.8463 15.4792 10.8428C15.741 10.8391 15.9265 11.0295 15.9368 11.3158C15.9451 11.5414 15.9433 11.7673 15.95 11.9928C15.9634 12.4333 15.9619 12.8743 15.9732 13.3151C15.9867 13.83 15.9944 14.3451 16.0053 14.86C16.0154 15.3538 16.0256 15.8475 16.0358 16.3412C16.0458 16.8567 16.0562 17.3717 16.067 17.8863C16.0769 18.3772 16.0898 18.8684 16.098 19.3595C16.1027 19.5638 16.1097 19.7683 16.1125 19.9728Z" fill="white"/>
<path d="M13.474 20.0793C13.4877 19.4481 13.4999 18.8853 13.512 18.3226C13.5208 17.943 13.5311 17.5635 13.5402 17.1841C13.5515 16.709 13.5626 16.2339 13.5735 15.7589C13.5831 15.3609 13.5929 14.9628 13.6027 14.5647C13.6138 14.1082 13.6213 13.6514 13.6368 13.1952C13.642 13.0414 13.644 12.8875 13.6482 12.7334C13.6551 12.4723 13.829 12.2916 14.0709 12.294C14.3001 12.2961 14.4683 12.4806 14.474 12.7368C14.4843 13.1827 14.4926 13.6285 14.507 14.0743C14.5256 14.6473 14.5386 15.2208 14.5541 15.7939C14.5696 16.3669 14.5851 16.9455 14.6006 17.5214C14.6161 18.0917 14.6352 18.6621 14.646 19.233C14.6512 19.5009 14.668 19.7686 14.6719 20.0366C14.6776 20.4243 14.6373 20.8099 14.6171 21.197C14.6068 21.3983 14.5944 21.5996 14.583 21.8009C14.5578 22.2487 14.5327 22.6963 14.5075 23.1437C14.4953 23.3617 14.484 23.579 14.4737 23.7957C14.4631 24.0135 14.3293 24.1751 14.1262 24.2127C14.0353 24.2283 13.942 24.2116 13.8614 24.1654C13.7809 24.1192 13.7179 24.0462 13.6828 23.9583C13.6629 23.9091 13.6515 23.8567 13.6492 23.8034C13.6319 23.4568 13.6172 23.1101 13.5993 22.7619C13.5766 22.3086 13.5515 21.8553 13.5278 21.4021C13.5161 21.1767 13.5019 20.9517 13.4949 20.7261C13.4875 20.4883 13.4616 20.2502 13.474 20.0793Z" fill="white"/>
<path d="M13.2413 20.0492C13.2369 20.4451 13.2036 20.8224 13.1801 21.2019C13.163 21.477 13.1473 21.7525 13.1305 22.0284C13.106 22.4257 13.0813 22.8228 13.0563 23.2198C13.0444 23.4131 13.0305 23.6061 13.023 23.7997C13.0126 24.0397 12.8548 24.2122 12.638 24.2117C12.4212 24.2111 12.2667 24.0389 12.2551 23.7984C12.2347 23.3718 12.2073 22.9451 12.1835 22.5185C12.1662 22.2034 12.1504 21.8879 12.1334 21.5728C12.1094 21.1331 12.0771 20.6928 12.0628 20.2537C12.0538 19.9756 12.0649 19.6964 12.0789 19.418C12.0905 19.1821 12.0864 18.9458 12.098 18.7099C12.1143 18.3864 12.1119 18.0622 12.1197 17.7385C12.135 17.0936 12.151 16.4488 12.1677 15.804C12.1776 15.4165 12.1875 15.0291 12.1975 14.6418C12.2131 14.0157 12.229 13.3895 12.245 12.7633C12.2478 12.6545 12.2533 12.5457 12.2564 12.4369C12.2626 12.2127 12.422 12.042 12.6287 12.0391C12.8426 12.0362 13.0093 12.1991 13.0209 12.4249C13.0268 12.536 13.0311 12.6473 13.0338 12.7588C13.046 13.2472 13.0568 13.7355 13.0697 14.2237C13.0844 14.7729 13.0999 15.3221 13.1163 15.8712C13.1316 16.4072 13.1469 16.9431 13.1622 17.4791C13.178 18.0254 13.1927 18.5723 13.2093 19.1186C13.2188 19.434 13.231 19.7497 13.2413 20.0492Z" fill="white"/>
<path d="M10.6631 20.095C10.6812 19.3649 10.6978 18.6818 10.7148 18.0008C10.7236 17.6558 10.7339 17.311 10.7432 16.966C10.7594 16.3558 10.7755 15.7454 10.7916 15.135C10.8014 14.7663 10.8114 14.3975 10.8215 14.0285C10.8374 13.4475 10.8532 12.8664 10.8691 12.2852C10.87 12.2347 10.8761 12.1845 10.8872 12.1353C10.9064 12.0575 10.9502 11.9886 11.0116 11.9393C11.073 11.89 11.1486 11.8633 11.2264 11.8633C11.3042 11.8633 11.3798 11.89 11.4412 11.9393C11.5027 11.9886 11.5464 12.0575 11.5657 12.1353C11.575 12.1713 11.5804 12.2082 11.5817 12.2454C11.5938 12.6646 11.6039 13.0838 11.616 13.5032C11.6365 14.2064 11.6575 14.9094 11.6788 15.6123C11.6884 15.9227 11.699 16.233 11.7083 16.5437C11.7297 17.2572 11.7489 17.971 11.7724 18.6845C11.783 19.0028 11.7982 19.3209 11.8018 19.6396C11.8042 19.8068 11.8163 19.9739 11.8158 20.1411C11.8158 20.4651 11.7791 20.7872 11.7595 21.1101C11.7432 21.3749 11.7253 21.6394 11.7078 21.9041C11.6835 22.2668 11.6582 22.6291 11.6341 22.9918C11.6169 23.2584 11.6003 23.5257 11.5843 23.7938C11.5841 23.8683 11.569 23.942 11.5401 24.0103C11.5071 24.0817 11.4522 24.1399 11.3839 24.1757C11.3156 24.2116 11.2377 24.2232 11.1623 24.2087C11.0907 24.1957 11.0249 24.1596 10.9744 24.1055C10.924 24.0515 10.8914 23.9823 10.8815 23.9079C10.8665 23.7871 10.86 23.665 10.853 23.5434C10.8301 23.1435 10.8102 22.7435 10.7864 22.3436C10.7533 21.7823 10.7156 21.2213 10.6846 20.6597C10.6737 20.4555 10.6523 20.2518 10.6631 20.095Z" fill="white"/>
<path d="M9.27246 20.1539C9.29106 19.4777 9.30734 18.8805 9.32414 18.2835C9.33292 17.9758 9.34352 17.6681 9.35256 17.3601C9.36978 16.8135 9.38598 16.2669 9.40113 15.7203C9.41595 15.2243 9.43093 14.7282 9.44609 14.2319C9.46211 13.6986 9.47805 13.1654 9.49389 12.6321C9.49596 12.571 9.50061 12.5102 9.50604 12.4494C9.51509 12.3667 9.5537 12.2904 9.61433 12.2355C9.67496 12.1806 9.75326 12.1509 9.83392 12.1524C9.91593 12.1562 9.99363 12.1914 10.0518 12.2511C10.11 12.3109 10.1444 12.391 10.1484 12.4756C10.1584 12.6929 10.1685 12.9105 10.1742 13.1278C10.1871 13.5365 10.1972 13.9453 10.2104 14.3543C10.2302 14.975 10.251 15.5959 10.2727 16.2168C10.2876 16.6624 10.3028 17.108 10.3181 17.5537C10.3393 18.1742 10.3602 18.7948 10.3809 19.4154C10.3884 19.6287 10.4011 19.8396 10.4068 20.0518C10.4155 20.355 10.3721 20.6555 10.3551 20.9584C10.3419 21.2101 10.3189 21.461 10.3006 21.7124C10.2706 22.1277 10.2408 22.543 10.2112 22.9584C10.1907 23.2644 10.1697 23.5709 10.1484 23.8781C10.1355 24.0661 9.99644 24.2095 9.82591 24.2095C9.65538 24.2095 9.51741 24.0733 9.50475 23.8797C9.47787 23.4746 9.45204 23.0695 9.42723 22.6646C9.39054 22.082 9.3554 21.4994 9.31742 20.9171C9.29933 20.6366 9.27375 20.3563 9.27246 20.1539Z" fill="white"/>
<path d="M7.89658 20.0767C7.91915 19.3924 7.94171 18.708 7.96428 18.0236C7.97823 17.6098 7.99399 17.1971 8.0082 16.7822C8.02991 16.1614 8.05135 15.5406 8.07254 14.9197C8.08701 14.5009 8.10191 14.0818 8.11724 13.6625C8.12473 13.4609 8.13042 13.2591 8.1454 13.058C8.14964 12.9814 8.1822 12.9094 8.23638 12.8568C8.29056 12.8042 8.36222 12.7751 8.4366 12.7754C8.51209 12.7767 8.58422 12.8079 8.63811 12.8624C8.692 12.917 8.72354 12.9908 8.72625 13.0687C8.74356 13.3841 8.75751 13.6996 8.76991 14.0153C8.79291 14.6147 8.81358 15.2151 8.8358 15.8137C8.85027 16.2009 8.86629 16.587 8.88153 16.9752C8.90255 17.5032 8.92339 18.031 8.94406 18.5588C8.95931 18.9433 8.96396 19.3286 8.99238 19.7123C9.03062 20.2295 8.96654 20.7401 8.92959 21.2532C8.90358 21.6264 8.87645 21.9997 8.8482 22.373C8.82004 22.7487 8.78955 23.1242 8.76035 23.4996C8.74898 23.6449 8.74097 23.7908 8.72625 23.9358C8.7214 24.0124 8.68802 24.084 8.63311 24.1358C8.57821 24.1875 8.50602 24.2153 8.43169 24.2134C8.35869 24.214 8.28824 24.1857 8.23494 24.1342C8.18164 24.0827 8.14958 24.0121 8.1454 23.9369C8.12189 23.6593 8.10406 23.3812 8.08494 23.1034C8.05997 22.7411 8.03533 22.3785 8.01105 22.0157C7.99503 21.78 7.97849 21.5446 7.9635 21.3089C7.94059 20.9489 7.91837 20.5888 7.89684 20.2285C7.894 20.1778 7.89658 20.1271 7.89658 20.0767Z" fill="white"/>
<path d="M6.52344 20.1646C6.54928 19.6473 6.57511 19.141 6.59837 18.6349C6.61 18.3936 6.62007 18.1525 6.63118 17.9112C6.65616 17.3652 6.68139 16.8192 6.70689 16.2733C6.71851 16.0213 6.72885 15.7693 6.73996 15.5176C6.75598 15.1491 6.77071 14.7806 6.78905 14.4121C6.79706 14.2484 6.91644 14.1266 7.05777 14.1284C7.1991 14.1303 7.31305 14.2548 7.32132 14.4169C7.34698 14.9203 7.37282 15.4238 7.39883 15.9272C7.4245 16.4199 7.45034 16.9127 7.47635 17.4054C7.50219 17.9062 7.52802 18.4072 7.55386 18.9079C7.57634 19.3289 7.60916 19.75 7.62052 20.1715C7.62595 20.3744 7.59339 20.5784 7.57712 20.7821C7.55386 21.0754 7.52932 21.3687 7.50529 21.662C7.47618 22.0215 7.44689 22.381 7.41744 22.7406C7.39496 23.0208 7.37325 23.3005 7.35077 23.5813C7.3407 23.7082 7.33243 23.8354 7.31796 23.9618C7.31017 24.0257 7.2815 24.0849 7.23669 24.1297C7.19187 24.1745 7.13359 24.2022 7.07146 24.2082C7.00887 24.2131 6.94673 24.1938 6.89709 24.1542C6.84745 24.1145 6.81383 24.0573 6.80275 23.9935C6.77691 23.8266 6.76916 23.6562 6.75676 23.4869C6.72058 22.995 6.68536 22.503 6.65108 22.0108C6.62834 21.6852 6.60767 21.3597 6.58467 21.0341C6.56685 20.7829 6.54695 20.5318 6.52835 20.2806C6.5255 20.2395 6.52473 20.1971 6.52344 20.1646Z" fill="white"/>
<path d="M6.243 20.2277C6.21355 20.569 6.18203 20.9281 6.15102 21.2873C6.12846 21.549 6.10606 21.8105 6.08384 22.072C6.05473 22.4128 6.02536 22.7536 5.99574 23.0943C5.97326 23.3559 5.95155 23.6175 5.92907 23.879C5.92671 23.9161 5.92162 23.9529 5.91383 23.9892C5.90156 24.0426 5.87228 24.0902 5.83068 24.1243C5.78908 24.1585 5.73756 24.1773 5.68439 24.1777C5.62951 24.1778 5.57646 24.1573 5.53504 24.1202C5.49362 24.083 5.46664 24.0317 5.45908 23.9756C5.43738 23.7993 5.42575 23.622 5.41206 23.4447C5.38157 23.0536 5.35177 22.6625 5.32266 22.2715C5.29992 21.9672 5.27873 21.663 5.256 21.3588C5.22783 20.9855 5.19218 20.6138 5.17254 20.2405C5.16453 20.0853 5.18779 19.9285 5.19993 19.7725C5.22267 19.4739 5.24773 19.1753 5.27202 18.8766C5.30121 18.5145 5.33119 18.1524 5.35987 17.7903C5.3826 17.5048 5.40379 17.2192 5.42653 16.9336C5.43531 16.8227 5.44229 16.7113 5.45779 16.6014C5.46465 16.5439 5.49157 16.491 5.53353 16.4526C5.57548 16.4142 5.62958 16.3928 5.68568 16.3926C5.74048 16.3914 5.79384 16.4108 5.83584 16.4471C5.87785 16.4835 5.90565 16.5343 5.91409 16.5902C5.94122 16.7867 5.95646 16.9854 5.97481 17.1832C6.01029 17.5634 6.04474 17.9437 6.07816 18.3239C6.10632 18.6407 6.13319 18.9577 6.1611 19.2747C6.18694 19.568 6.21277 19.8613 6.23861 20.1546C6.24145 20.1722 6.24145 20.1909 6.243 20.2277Z" fill="white"/>
<path d="M4.87969 20.1879C4.85678 20.4417 4.83387 20.6953 4.81096 20.9486C4.78253 21.2576 4.75308 21.5664 4.7244 21.8752L4.62105 22.9999L4.53966 23.8872C4.527 24.0259 4.45103 24.1115 4.33657 24.1152C4.22211 24.1189 4.1402 24.0427 4.12573 23.9072C4.10144 23.6779 4.0862 23.4478 4.06708 23.218C4.03797 22.8639 4.00886 22.5098 3.97975 22.1557C3.95701 21.8754 3.93556 21.5957 3.91283 21.315C3.88415 20.9582 3.85211 20.6017 3.82679 20.2447C3.81516 20.0775 3.84617 19.9114 3.85702 19.745C3.87691 19.4408 3.9043 19.1368 3.92833 18.8328C3.95779 18.4654 3.98707 18.098 4.01618 17.7306C4.03892 17.4422 4.06105 17.154 4.08258 16.8658C4.09447 16.7059 4.10584 16.5485 4.11798 16.3899C4.12002 16.3687 4.12347 16.3477 4.12832 16.327C4.15157 16.2142 4.2389 16.1387 4.33941 16.1438C4.39015 16.1478 4.43786 16.1703 4.47405 16.2072C4.51024 16.2441 4.53257 16.2931 4.53707 16.3454C4.56033 16.5747 4.57971 16.8045 4.60038 17.0344C4.63483 17.4226 4.66928 17.8108 4.70373 18.199C4.73189 18.519 4.75799 18.839 4.78641 19.1589C4.81406 19.473 4.84325 19.7874 4.87193 20.1015C4.87478 20.1298 4.8771 20.1588 4.87969 20.1879Z" fill="white"/>
<path d="M2.48828 20.1872C2.51257 19.8984 2.53582 19.6155 2.55985 19.334C2.58285 19.0644 2.60662 18.7951 2.62962 18.5258C2.65907 18.1823 2.68853 17.8389 2.71798 17.4955C2.74589 17.1651 2.77379 16.835 2.79989 16.5044C2.81074 16.366 2.87068 16.2855 2.97404 16.2807C2.99734 16.2791 3.02072 16.2822 3.04282 16.29C3.06492 16.2978 3.08529 16.3101 3.10275 16.3261C3.12021 16.3421 3.13441 16.3615 3.14452 16.3833C3.15462 16.405 3.16044 16.4286 3.16162 16.4527C3.19004 16.7193 3.21459 16.9859 3.24068 17.2526C3.27513 17.6035 3.30959 17.9545 3.34404 18.3055C3.37711 18.6511 3.40992 18.9968 3.44248 19.3428C3.4647 19.575 3.4802 19.808 3.51017 20.0392C3.53601 20.2355 3.49881 20.4256 3.48175 20.6178C3.45204 20.9557 3.41509 21.2932 3.38098 21.6311L3.26161 22.8099C3.2294 23.1318 3.19719 23.4536 3.16498 23.7754C3.15258 23.8991 3.08281 23.9748 2.98411 23.9735C2.88541 23.9721 2.8141 23.8959 2.80325 23.7727C2.76036 23.2815 2.71927 22.7899 2.67587 22.2987C2.62703 21.7468 2.57613 21.1951 2.52678 20.6432C2.51179 20.488 2.50017 20.3347 2.48828 20.1872Z" fill="white"/>
<path d="M2.17842 20.1945C2.15517 20.3852 2.1314 20.5825 2.10711 20.7795C2.05268 21.2225 1.99807 21.6645 1.94329 22.1055C1.89601 22.4895 1.8495 22.8737 1.80119 23.2577C1.78852 23.3577 1.72625 23.4211 1.64977 23.4209C1.57329 23.4206 1.51309 23.3651 1.50017 23.2587C1.46684 22.9905 1.43919 22.7215 1.40974 22.4527C1.36512 22.0469 1.32086 21.641 1.27693 21.2352C1.23947 20.8926 1.19141 20.5508 1.1697 20.2073C1.15937 20.0428 1.19787 19.8754 1.21544 19.7092C1.25419 19.3402 1.2933 18.9712 1.33274 18.6022C1.37046 18.241 1.40905 17.8798 1.4485 17.5188C1.46503 17.3631 1.47976 17.2074 1.50017 17.0525C1.51412 16.9479 1.57278 16.8925 1.65287 16.8941C1.73297 16.8957 1.7893 16.9605 1.80144 17.0605C1.85984 17.542 1.91642 18.0238 1.97456 18.5054C2.03364 18.9949 2.09324 19.4844 2.15336 19.9738C2.1624 20.0447 2.16989 20.1159 2.17842 20.1945Z" fill="white"/>
<path d="M0 20.1845C0.023771 19.9978 0.0478003 19.8061 0.0720881 19.6141C0.126692 19.1859 0.181297 18.7576 0.235901 18.3292C0.239518 18.3004 0.243653 18.2716 0.249337 18.2431C0.266907 18.1548 0.320908 18.1004 0.390929 18.0996C0.46095 18.0988 0.520119 18.1553 0.536139 18.2481C0.55836 18.3814 0.578255 18.5148 0.598409 18.6481C0.672822 19.1407 0.747063 19.6331 0.821132 20.1253C0.840511 20.2525 0.802012 20.3724 0.783926 20.4946C0.704345 21.0265 0.621146 21.5576 0.538464 22.0888C0.522186 22.1954 0.467152 22.2509 0.388346 22.2488C0.313674 22.2472 0.261739 22.1954 0.247012 22.0888C0.199986 21.7478 0.156578 21.4062 0.11162 21.0646C0.0771696 20.8048 0.0434079 20.5447 0.0103352 20.2845C0.00620113 20.2535 0.0038757 20.2218 0 20.1845Z" fill="white"/>
</svg>
