<svg width="83" height="11" viewBox="0 0 83 11" fill="none" xmlns="http://www.w3.org/2000/svg">
<g>
<path fill-rule="evenodd" clip-rule="evenodd" d="M8.51297 0C6.24269 0 4.82414 1.17467 4.25632 3.52401C5.10772 2.34934 6.1009 1.90893 7.23587 2.20242C7.88343 2.36983 8.34649 2.85609 8.8586 3.39446C9.69332 4.27112 10.6595 5.28567 12.7693 5.28567C15.0392 5.28567 16.4581 4.111 17.0256 1.762C16.1745 2.93667 15.1814 3.37709 14.0464 3.08325C13.3985 2.91584 12.9354 2.42957 12.4233 1.89156C11.5886 1.0142 10.6228 0 8.51297 0ZM4.25632 5.28567C1.98637 5.28567 0.567487 6.46034 0 8.80968C0.851397 7.63501 1.84458 7.19459 2.97922 7.48809C3.62711 7.6555 4.09018 8.14176 4.60228 8.68012C5.437 9.55678 6.40283 10.5713 8.51297 10.5713C10.7829 10.5713 12.2018 9.39701 12.7693 7.04767C11.9179 8.22234 10.9247 8.66276 9.78973 8.36926C9.14218 8.2015 8.67911 7.71524 8.16701 7.17723C7.33229 6.30057 6.36613 5.28567 4.25632 5.28567Z" fill="white"/>
<path fill-rule="evenodd" clip-rule="evenodd" d="M25.5373 4.4549H24.0517V7.43047C24.0517 8.22412 24.5548 8.21162 25.5373 8.16195V9.36475C23.5482 9.61275 22.7576 9.04243 22.7576 7.43047V4.4549H21.6553V3.16526H22.7576V1.50016L24.0517 1.10316V3.16526H25.5373V4.4549ZM31.2001 3.16526H32.4939V9.36475H31.2001V8.47212C30.7447 9.12892 30.0378 9.52592 29.1033 9.52592C27.4739 9.52592 26.1201 8.10013 26.1201 6.26483C26.1201 4.41773 27.4739 3.0041 29.1033 3.0041C30.0378 3.0041 30.7447 3.40075 31.2001 4.04574V3.16526ZM29.3072 8.24878C30.3854 8.24878 31.2001 7.41797 31.2001 6.26483C31.2001 5.1117 30.3854 4.28123 29.3072 4.28123C28.2289 4.28123 27.4142 5.11205 27.4142 6.26483C27.4142 7.41797 28.2289 8.24878 29.3072 8.24878ZM34.6504 2.23546C34.1954 2.23546 33.824 1.83881 33.824 1.37999C33.8251 1.1526 33.9127 0.934908 34.0675 0.774575C34.2224 0.614241 34.432 0.524326 34.6504 0.524512C34.8689 0.524234 35.0786 0.614109 35.2335 0.774452C35.3885 0.934796 35.4761 1.15254 35.4771 1.37999C35.4771 1.83846 35.1058 2.23546 34.6504 2.23546ZM34.0035 9.36475V3.16526H35.2976V9.36475H34.0035ZM36.7953 9.36475V0.312988H38.089V9.36441H36.7953V9.36475ZM46.4879 3.16526H47.8538L45.9728 9.36475H44.7027L43.4566 5.18637L42.1986 9.36475H40.9288L39.0475 3.16526H40.4134L41.5757 7.44263L42.8338 3.16526H44.0678L45.3136 7.44263L46.4879 3.16526ZM49.4591 2.23546C49.0037 2.23546 48.6324 1.83881 48.6324 1.37999C48.6335 1.15254 48.7211 0.934796 48.876 0.774452C49.031 0.614109 49.2407 0.524234 49.4591 0.524512C49.6776 0.524234 49.8873 0.614109 50.0422 0.774452C50.1972 0.934796 50.2848 1.15254 50.2858 1.37999C50.2858 1.83846 49.9145 2.23546 49.4591 2.23546ZM48.8122 9.36475V3.16526H50.106V9.36475H48.8122ZM54.7547 3.0041C56.0965 3.0041 57.055 3.94641 57.055 5.55837V9.36441H55.7612V5.69452C55.7612 4.75221 55.2341 4.25657 54.4194 4.25657C53.5687 4.25657 52.8977 4.77722 52.8977 6.04185V9.36475H51.6036V3.16526H52.8977V3.95891C53.2931 3.31427 53.94 3.0041 54.7547 3.0041ZM63.1892 0.685673H64.4833V9.36441H63.1892V8.47177C62.7342 9.12892 62.0272 9.52557 61.0928 9.52557C59.4634 9.52557 58.1096 8.09978 58.1096 6.26449C58.1096 4.41739 59.4634 3.00375 61.0928 3.00375C62.0272 3.00375 62.7342 3.4004 63.1892 4.0454V0.685673ZM61.2963 8.24878C62.3745 8.24878 63.1892 7.41797 63.1892 6.26483C63.1892 5.1117 62.3745 4.28123 61.2963 4.28123C60.218 4.28123 59.4033 5.11205 59.4033 6.26483C59.4033 7.41797 60.218 8.24878 61.2963 8.24878ZM68.8204 9.52592C67.0112 9.52592 65.6574 8.10013 65.6574 6.26483C65.6574 4.41773 67.0112 3.0041 68.8204 3.0041C69.9944 3.0041 71.013 3.63624 71.492 4.60356L70.3777 5.27321C70.1142 4.69039 69.5273 4.3184 68.8084 4.3184C67.7542 4.3184 66.9515 5.14921 66.9515 6.26483C66.9515 7.38081 67.7542 8.21162 68.8084 8.21162C69.5273 8.21162 70.1142 7.82712 70.4018 7.25681L71.516 7.91396C71.013 8.89343 69.9944 9.52557 68.8204 9.52557V9.52592ZM73.6485 4.87621C73.6485 6.00468 76.8716 5.32253 76.8716 7.61664C76.8716 8.85661 75.8291 9.52592 74.5353 9.52592C73.3373 9.52592 72.4745 8.96776 72.0912 8.07512L73.2055 7.40581C73.397 7.96362 73.8764 8.29845 74.5353 8.29845C75.1105 8.29845 75.5535 8.10013 75.5535 7.60379C75.5535 6.50067 72.3307 7.12066 72.3307 4.90122C72.3307 3.73558 73.3013 3.0041 74.5233 3.0041C75.5058 3.0041 76.3205 3.47543 76.7399 4.29374L75.6496 4.92588C75.4337 4.44239 75.0144 4.21906 74.5233 4.21906C74.0559 4.21906 73.6485 4.42989 73.6485 4.87621ZM79.172 4.87621C79.172 6.00468 82.3947 5.32253 82.3947 7.61664C82.3947 8.85661 81.3525 9.52592 80.0584 9.52592C78.8604 9.52592 77.9979 8.96776 77.6143 8.07512L78.7286 7.40581C78.9204 7.96362 79.3995 8.29845 80.0584 8.29845C80.6335 8.29845 81.0769 8.10013 81.0769 7.60379C81.0769 6.50067 77.8542 7.12066 77.8542 4.90122C77.8542 3.73558 78.8243 3.0041 80.0467 3.0041C81.0289 3.0041 81.8436 3.47543 82.2629 4.29374L81.1727 4.92588C80.9572 4.44239 80.5378 4.21906 80.0467 4.21906C79.5793 4.21906 79.172 4.42989 79.172 4.87621Z" fill="white"/>
</g>
</svg>
