<svg width="57" height="16" viewBox="0 0 57 16" fill="none" xmlns="http://www.w3.org/2000/svg">
<g>
<path fill-rule="evenodd" clip-rule="evenodd" d="M8 0C6.41775 0 4.87103 0.469192 3.55544 1.34824C2.23985 2.22729 1.21447 3.47672 0.608967 4.93853C0.00346629 6.40034 -0.15496 8.00887 0.153721 9.56072C0.462403 11.1126 1.22433 12.538 2.34315 13.6569C3.46197 14.7757 4.88743 15.5376 6.43928 15.8463C7.99113 16.155 9.59966 15.9965 11.0615 15.391C12.5233 14.7855 13.7727 13.7602 14.6518 12.4446C15.5308 11.129 16 9.58225 16 8C16 5.87827 15.1571 3.84344 13.6569 2.34315C12.1566 0.842855 10.1217 0 8 0V0ZM11.256 11.9387C11.0875 12.3178 10.8392 12.6562 10.528 12.9307C10.2075 13.2091 9.83498 13.4211 9.432 13.5547C8.99624 13.7001 8.53937 13.7722 8.08 13.768C7.63986 13.7743 7.20178 13.7067 6.784 13.568C6.41823 13.4441 6.07307 13.2661 5.76 13.04C5.4685 12.8284 5.20973 12.575 4.992 12.288C4.78942 12.024 4.61765 11.7377 4.48 11.4347L5.6 10.7627C5.69864 10.9925 5.82394 11.21 5.97334 11.4107C6.12605 11.6173 6.30538 11.8029 6.50667 11.9627C6.71681 12.1268 6.95175 12.2564 7.20267 12.3467C7.47639 12.4446 7.76529 12.4934 8.056 12.4907C8.31874 12.4912 8.58015 12.4535 8.832 12.3787C9.07241 12.3092 9.29764 12.1952 9.496 12.0427C9.68789 11.8935 9.84602 11.7053 9.96 11.4907C10.0823 11.2507 10.1428 10.9839 10.136 10.7147C10.1434 10.4556 10.0857 10.1989 9.968 9.968C9.8518 9.75483 9.69721 9.56497 9.512 9.408C9.30201 9.23088 9.07092 9.08041 8.824 8.96C8.55733 8.82667 8.26934 8.68444 7.96 8.53333C7.59734 8.36267 7.232 8.18133 6.864 7.98933C6.50789 7.8054 6.1749 7.57982 5.872 7.31733C5.58638 7.06764 5.34793 6.76867 5.168 6.43467C4.98667 6.09867 4.896 5.70667 4.896 5.25867C4.89728 4.87845 4.96776 4.50164 5.104 4.14667C5.24052 3.78214 5.44707 3.44785 5.712 3.16267C5.99473 2.86328 6.33481 2.62386 6.712 2.45867C7.112 2.27733 7.57867 2.18667 8.112 2.18667C8.48281 2.18331 8.8521 2.23453 9.208 2.33867C9.52438 2.43145 9.82803 2.56313 10.112 2.73067C10.3652 2.88052 10.6012 3.05757 10.816 3.25867C10.9993 3.42864 11.1654 3.61621 11.312 3.81867L10.304 4.63467C10.198 4.48444 10.0775 4.34509 9.944 4.21867C9.79327 4.07592 9.62688 3.95068 9.448 3.84533C9.25435 3.73024 9.04752 3.63891 8.832 3.57333C8.59874 3.50172 8.356 3.46576 8.112 3.46667C7.83667 3.46088 7.56293 3.50983 7.30667 3.61067C7.08777 3.69885 6.88841 3.82934 6.72 3.99467C6.5623 4.15113 6.4396 4.33927 6.36 4.54667C6.28124 4.74809 6.24055 4.96239 6.24 5.17867C6.2341 5.42237 6.29496 5.66306 6.416 5.87467C6.54673 6.08704 6.71477 6.27405 6.912 6.42667C7.15651 6.6172 7.4191 6.78333 7.696 6.92267C8.00534 7.08267 8.352 7.248 8.736 7.41867C9.13406 7.59583 9.52139 7.79617 9.896 8.01867C10.2172 8.20685 10.5129 8.43537 10.776 8.69867C11.0119 8.93783 11.1993 9.22034 11.328 9.53066C11.4628 9.87721 11.528 10.2469 11.52 10.6187C11.5275 11.0725 11.4375 11.5226 11.256 11.9387V11.9387Z" fill="white"/>
<path d="M23.4212 9.00768C23.5099 9.18171 23.6393 9.3318 23.7984 9.44521C23.963 9.562 24.1482 9.64648 24.3443 9.69416C24.5562 9.74888 24.7743 9.77613 24.9931 9.77525C25.1563 9.77453 25.3192 9.76192 25.4806 9.73753C25.6492 9.7135 25.8132 9.66423 25.9672 9.59137C26.114 9.52252 26.243 9.4209 26.3444 9.29434C26.4485 9.15582 26.5018 8.98566 26.4952 8.81248C26.4989 8.71854 26.4831 8.62485 26.4487 8.53736C26.4142 8.44987 26.362 8.37048 26.2953 8.30422C26.1434 8.16298 25.9653 8.05279 25.771 7.97984C25.5315 7.88615 25.2853 7.81019 25.0346 7.75259C24.7611 7.68752 24.483 7.61586 24.2019 7.53665C23.9156 7.4647 23.6338 7.3759 23.358 7.27073C23.0943 7.17234 22.8465 7.03572 22.6225 6.86525C22.4053 6.698 22.2265 6.4861 22.0982 6.24384C21.9572 5.96407 21.8882 5.6536 21.8973 5.34047C21.8877 4.97815 21.9756 4.61989 22.1519 4.30321C22.3182 4.01448 22.5454 3.76543 22.8177 3.57335C23.0991 3.37449 23.4141 3.22788 23.7474 3.14053C24.0855 3.04814 24.4343 3.0009 24.7847 3.00003C25.1765 2.99872 25.5672 3.04399 25.9483 3.13487C26.3026 3.21765 26.6382 3.3664 26.9375 3.57335C27.2249 3.7752 27.4602 4.04249 27.624 4.35319C27.8028 4.70629 27.8903 5.09855 27.8786 5.49418H26.234C26.2274 5.29475 26.1775 5.09914 26.0879 4.92085C26.0104 4.77561 25.8967 4.65283 25.7578 4.56441C25.6133 4.47471 25.4535 4.41237 25.2864 4.38053C25.0957 4.3426 24.9017 4.32427 24.7074 4.32584C24.5692 4.32627 24.4315 4.34081 24.2962 4.36922C24.1622 4.39606 24.0343 4.44754 23.9191 4.52103C23.8094 4.59101 23.7156 4.6832 23.6437 4.79167C23.5671 4.9147 23.5293 5.05797 23.5353 5.2028C23.5299 5.33103 23.5599 5.45827 23.622 5.57056C23.7089 5.68719 23.8269 5.77705 23.9624 5.82987C24.1898 5.92883 24.4251 6.00832 24.6659 6.0675C24.9651 6.14797 25.3565 6.24918 25.8399 6.37114C25.9842 6.39943 26.1841 6.45223 26.4406 6.52767C26.711 6.6102 26.9677 6.73222 27.2025 6.88977C27.4639 7.06453 27.6866 7.29112 27.8569 7.55551C28.0411 7.83274 28.1332 8.18792 28.1332 8.62106C28.136 8.96015 28.0659 9.29588 27.9276 9.60552C27.7886 9.91124 27.5792 10.1797 27.3166 10.3891C27.0177 10.624 26.6759 10.7985 26.3104 10.903C25.8587 11.0326 25.3903 11.0946 24.9205 11.0869C24.5025 11.0881 24.086 11.0355 23.6814 10.9304C23.3017 10.8331 22.9438 10.6651 22.6262 10.4353C22.3195 10.2113 22.0692 9.91877 21.8954 9.581C21.707 9.1981 21.6178 8.77397 21.6361 8.3476H23.2807C23.2739 8.57571 23.3221 8.8021 23.4212 9.00768V9.00768Z" fill="white"/>
<path d="M33.7963 10.9116L32.8005 7.15764H32.7789L31.8274 10.9116H30.2366L28.4629 5.31885H30.0857L31.1136 9.11524H31.1343L32.065 5.31885H33.5577L34.5083 9.10486H34.5299L35.5578 5.31885H37.1363L35.3758 10.9116H33.7963Z" fill="white"/>
<path d="M37.8311 4.45345V3.18799H39.3672V4.45345H37.8311ZM39.3672 5.3191V10.9118H37.8311V5.3191H39.3672Z" fill="white"/>
<path d="M42.0388 5.31861V6.03244H42.0605C42.2286 5.74723 42.4769 5.5177 42.7743 5.37236C43.0724 5.23342 43.3979 5.16317 43.7267 5.16679C44.1185 5.15687 44.5068 5.2423 44.8583 5.41573C45.1674 5.57443 45.4373 5.7999 45.6485 6.07581C45.8635 6.36201 46.0214 6.68698 46.1134 7.03292C46.2154 7.40462 46.2665 7.78847 46.2652 8.17392C46.2675 8.53996 46.2176 8.90446 46.1172 9.25644C46.0232 9.58903 45.8674 9.90093 45.6579 10.1758C45.4519 10.4426 45.1895 10.6606 44.8894 10.8142C44.5548 10.9777 44.1857 11.0579 43.8135 11.0481C43.4822 11.0512 43.1546 10.979 42.8554 10.8369C42.5649 10.6973 42.3169 10.4828 42.1369 10.2154H42.1152V12.8652H40.5791V5.31861H42.0388ZM44.0351 9.75056C44.2012 9.65327 44.342 9.51824 44.4462 9.3564C44.555 9.18341 44.6302 8.99146 44.6678 8.79062C44.7113 8.57329 44.7331 8.35218 44.7329 8.13054C44.7331 7.90861 44.7094 7.68731 44.6622 7.47046C44.6196 7.26529 44.5411 7.06927 44.4302 6.89148C44.3244 6.72443 44.1819 6.5838 44.0134 6.48035C43.8247 6.37086 43.6091 6.31662 43.391 6.32381C43.1696 6.31583 42.9504 6.37006 42.7583 6.48035C42.5917 6.58188 42.451 6.72068 42.3472 6.88582C42.2388 7.06176 42.1637 7.25609 42.1256 7.45915C42.0818 7.67994 42.06 7.90451 42.0605 8.1296C42.0603 8.35153 42.084 8.57283 42.1312 8.78967C42.172 8.9905 42.249 9.18222 42.3585 9.35546C42.4635 9.51827 42.6061 9.65345 42.7743 9.74962C42.9695 9.84943 43.1855 9.90148 43.4047 9.90148C43.6239 9.90148 43.8399 9.84943 44.0351 9.74962V9.75056Z" fill="white"/>
<path d="M48.8332 9.5698C49.0633 9.7936 49.3949 9.9055 49.8281 9.9055C50.1127 9.91323 50.3926 9.83179 50.6287 9.67258C50.8525 9.51794 50.9895 9.35386 51.0398 9.18036H52.392C52.1751 9.85112 51.8432 10.3308 51.3962 10.6193C50.9493 10.9079 50.4086 11.0509 49.7743 11.0484C49.3678 11.0544 48.9639 10.9827 48.5843 10.8371C48.2444 10.7061 47.9378 10.5012 47.6866 10.2374C47.4369 9.9687 47.2444 9.65206 47.1208 9.30671C46.9841 8.9279 46.9154 8.52789 46.9181 8.12517C46.9149 7.72646 46.9845 7.33051 47.1236 6.95684C47.2506 6.60758 47.4481 6.28824 47.704 6.01876C47.9598 5.74927 48.2685 5.53542 48.6107 5.39057C48.9787 5.23524 49.3749 5.15787 49.7743 5.16331C50.2052 5.15333 50.632 5.24815 51.0181 5.4396C51.3622 5.61522 51.6603 5.86907 51.8885 6.18077C52.1197 6.49881 52.2869 6.85879 52.3807 7.24067C52.4828 7.64685 52.5194 8.06672 52.4891 8.48444H48.4542C48.4762 8.98485 48.6025 9.34663 48.8332 9.5698ZM50.5693 6.62774C50.3851 6.42595 50.1056 6.32505 49.731 6.32505C49.5203 6.31773 49.3109 6.36038 49.1199 6.44952C48.9694 6.52305 48.8365 6.62823 48.7305 6.75787C48.6366 6.87267 48.5667 7.00508 48.5249 7.14732C48.488 7.26697 48.4643 7.39028 48.4542 7.51507H50.953C50.8814 7.12594 50.7534 6.83016 50.5693 6.62774V6.62774Z" fill="white"/>
<path d="M54.8581 5.31886V6.35613H54.876C54.9483 6.18204 55.0466 6.0199 55.1674 5.87521C55.2886 5.72908 55.431 5.60194 55.5899 5.49802C55.7473 5.39391 55.9183 5.31204 56.0981 5.25474C56.281 5.19645 56.4719 5.16718 56.6639 5.16799C56.7778 5.16997 56.8908 5.18807 56.9996 5.22173V6.65033C56.927 6.63619 56.8412 6.62299 56.7403 6.61261C56.6432 6.60154 56.5456 6.59587 56.448 6.59564C56.2024 6.58831 55.9583 6.63666 55.7341 6.73708C55.5472 6.8234 55.3851 6.95538 55.2626 7.12087C55.1406 7.29041 55.054 7.48285 55.0081 7.68665C54.9564 7.91753 54.931 8.15352 54.9326 8.39011V10.9107H53.3975V5.31886H54.8581Z" fill="white"/>
</g>
</svg>
