<svg width="72" height="16" viewBox="0 0 72 16" fill="none" xmlns="http://www.w3.org/2000/svg">
<g>
<path fill-rule="evenodd" clip-rule="evenodd" d="M18.9998 0.538086L0 8.46947L6.54813 10.1762L18.9998 0.538086Z" fill="white"/>
<path fill-rule="evenodd" clip-rule="evenodd" d="M7.62524 15.1045L8.73122 11.1459L18.9999 0.538086L6.5459 10.1762L7.62211 15.1045" fill="#CCCCCC"/>
<path fill-rule="evenodd" clip-rule="evenodd" d="M7.62481 15.1046L10.2699 12.0413L8.73078 11.146L7.62402 15.1046" fill="#DDDDDD"/>
<path fill-rule="evenodd" clip-rule="evenodd" d="M10.2706 12.0412L16.4177 15.6176L19.0001 0.538086L8.73145 11.1459L10.2706 12.0412Z" fill="white"/>
<path d="M27 11.6363V3.4634H29.5141C30.1884 3.45234 30.8535 3.62007 31.4419 3.94952C32.0078 4.27238 32.4684 4.75192 32.7681 5.33041C33.0942 5.95806 33.2582 6.65731 33.2451 7.36452V7.73974C33.2569 8.44432 33.0946 9.14093 32.7727 9.76777C32.4725 10.3409 32.0137 10.8155 31.451 11.135C30.8636 11.4648 30.2 11.635 29.5263 11.6287L27 11.6363ZM28.6786 4.83062V10.2843H29.4929C30.1502 10.2843 30.653 10.0691 31.0014 9.63864C31.3498 9.20823 31.5275 8.59247 31.5346 7.79139V7.35996C31.5346 6.5295 31.3629 5.90008 31.0196 5.47169C30.6763 5.04329 30.1729 4.8296 29.5096 4.83062H28.6786Z" fill="white"/>
<path d="M37.1526 11.7477C36.2624 11.7477 35.5378 11.4743 34.9788 10.9274C34.4197 10.3805 34.1402 9.65282 34.1402 8.74439V8.59248C34.1303 8.02727 34.2509 7.46739 34.4926 6.95638C34.7103 6.49611 35.0584 6.10995 35.4937 5.8459C35.9415 5.58177 36.4536 5.44665 36.9734 5.45548C37.8028 5.45548 38.4565 5.71728 38.9346 6.24087C39.4126 6.76446 39.6511 7.50731 39.6501 8.46943V9.13177H35.7839C35.8201 9.49698 35.9887 9.83633 36.2579 10.0858C36.5333 10.3292 36.8917 10.4575 37.259 10.4443C37.5397 10.457 37.8193 10.4019 38.0742 10.2837C38.3291 10.1655 38.5517 9.98767 38.7234 9.76524L39.5209 10.657C39.2695 11.0089 38.9286 11.2874 38.5335 11.4636C38.0994 11.6577 37.6281 11.7547 37.1526 11.7477V11.7477ZM36.9673 6.75889C36.821 6.7535 36.6753 6.77991 36.5403 6.8363C36.4052 6.89269 36.284 6.97771 36.1849 7.0855C35.9645 7.35043 35.8304 7.67643 35.8006 8.01977H38.0565V7.89064C38.0692 7.5847 37.9649 7.28541 37.7648 7.0536C37.6599 6.95149 37.5347 6.87251 37.3973 6.82175C37.2599 6.77099 37.1134 6.74958 36.9673 6.75889V6.75889Z" fill="white"/>
<path d="M46.0356 8.65579C46.0356 9.59157 45.8234 10.341 45.3991 10.9041C45.2033 11.1747 44.9442 11.3932 44.6444 11.5405C44.3446 11.6877 44.0133 11.7592 43.6794 11.7487C43.3997 11.7585 43.1212 11.7063 42.8641 11.5957C42.607 11.4851 42.3775 11.319 42.1922 11.1092V13.9697H40.5713V5.56438H42.0737L42.1299 6.15987C42.3143 5.93139 42.549 5.74861 42.8157 5.62581C43.0823 5.50301 43.3738 5.44351 43.6673 5.45196C44.4167 5.45196 44.9985 5.72895 45.4127 6.28292C45.827 6.8369 46.0346 7.6 46.0356 8.57224V8.65579ZM44.4147 8.53882C44.4147 7.97371 44.3134 7.53772 44.1109 7.23086C44.0188 7.08453 43.8896 6.96525 43.7364 6.88518C43.5832 6.80512 43.4115 6.76714 43.2389 6.77512C42.7325 6.77512 42.3826 6.96957 42.1892 7.35846V9.84375C42.3917 10.2428 42.7462 10.4453 43.2525 10.4514C44.0273 10.4443 44.4147 9.80678 44.4147 8.53882V8.53882Z" fill="white"/>
<path d="M48.752 11.6356H47.125V3.01611H48.752V11.6356Z" fill="white"/>
<path d="M49.8346 8.54329C49.8245 7.98685 49.9436 7.43565 50.1825 6.93301C50.4009 6.47759 50.7492 6.09701 51.1836 5.83925C51.6452 5.57419 52.1705 5.44025 52.7027 5.45187C53.522 5.45187 54.1904 5.70506 54.7079 6.21143C55.2254 6.71781 55.5146 7.39888 55.5753 8.25465L55.586 8.66937C55.586 9.60009 55.3262 10.3475 54.8067 10.9116C54.2871 11.4757 53.5893 11.7572 52.7133 11.7562C51.8383 11.7562 51.1395 11.4757 50.6169 10.9146C50.0943 10.3536 49.8336 9.59047 49.8346 8.62532V8.54329ZM51.4585 8.65874C51.4585 9.23601 51.5669 9.67757 51.7836 9.98342C51.8929 10.125 52.0332 10.2396 52.1937 10.3185C52.3542 10.3973 52.5307 10.4383 52.7095 10.4383C52.8884 10.4383 53.0648 10.3973 53.2253 10.3185C53.3858 10.2396 53.5261 10.125 53.6354 9.98342C53.8557 9.67959 53.9666 9.19955 53.9666 8.53721C53.9666 7.97058 53.8557 7.53307 53.6354 7.22165C53.5324 7.07141 53.3929 6.9498 53.23 6.86823C53.0671 6.78666 52.8862 6.74779 52.7042 6.75528C52.5248 6.74731 52.3462 6.78492 52.1852 6.86462C52.0242 6.94431 51.8861 7.06348 51.7836 7.21101C51.5649 7.53155 51.4585 8.01159 51.4585 8.65874Z" fill="white"/>
<path d="M58.8522 9.34024L59.9748 5.56369H61.7142L59.273 12.5775L59.1393 12.898C58.7757 13.691 58.1772 14.0875 57.3437 14.0875C57.1003 14.0867 56.8583 14.0509 56.6251 13.9812V12.7522H56.8712C57.1091 12.7676 57.3468 12.7188 57.5594 12.6109C57.7257 12.4992 57.8507 12.3359 57.9149 12.1461L58.1063 11.6463L55.9795 5.55762H57.725L58.8522 9.34024Z" fill="white"/>
<path d="M65.1473 11.7482C64.2571 11.7482 63.5319 11.4747 62.9719 10.9278C62.4118 10.381 62.1323 9.65329 62.1333 8.74486V8.59295C62.1239 8.02762 62.245 7.46774 62.4873 6.95685C62.7049 6.49658 63.0531 6.11043 63.4884 5.84637C63.9357 5.58244 64.4472 5.44733 64.9665 5.45596C65.7979 5.45596 66.4517 5.71775 66.9277 6.24134C67.4037 6.76493 67.6422 7.50779 67.6432 8.4699V9.13224H63.777C63.8143 9.49747 63.9833 9.83662 64.2525 10.0862C64.5279 10.3296 64.8863 10.458 65.2536 10.4448C65.5343 10.4573 65.8138 10.4022 66.0687 10.284C66.3236 10.1658 66.5463 9.98805 66.718 9.76571L67.5156 10.6574C67.2633 11.0093 66.922 11.2877 66.5266 11.4641C66.0931 11.6583 65.6223 11.7553 65.1473 11.7482V11.7482ZM64.9619 6.75936C64.8157 6.75397 64.67 6.78038 64.5349 6.83677C64.3998 6.89316 64.2786 6.97818 64.1796 7.08598C63.9587 7.35076 63.8241 7.67676 63.7937 8.02024H66.0496V7.89111C66.0623 7.58517 65.958 7.28588 65.7579 7.05407C65.6533 6.95193 65.5284 6.8729 65.3913 6.82213C65.2541 6.77136 65.1079 6.74998 64.9619 6.75936V6.75936Z" fill="white"/>
<path d="M71.9774 7.08494C71.7842 7.05661 71.5893 7.04138 71.394 7.03936C70.7803 7.03936 70.3782 7.24698 70.1879 7.6622V11.6362H68.5654V5.55974H70.0982L70.1423 6.28284C70.4674 5.72684 70.9181 5.44833 71.4943 5.44732C71.6656 5.44595 71.8362 5.47053 72.0002 5.52024L71.9774 7.08494Z" fill="white"/>
</g>
</svg>
