<svg viewBox="0 0 34 34" fill="none" xmlns="http://www.w3.org/2000/svg">
<path d="M9.81982 30H4.42946V12.6411H9.81982V30ZM7.12174 10.2732C5.39808 10.2732 4 8.84551 4 7.12181C4 6.29386 4.3289 5.49981 4.91434 4.91436C5.49978 4.3289 6.2938 4 7.12174 4C7.94968 4 8.74371 4.3289 9.32915 4.91436C9.91459 5.49981 10.2435 6.29386 10.2435 7.12181C10.2435 8.84551 8.84482 10.2732 7.12174 10.2732ZM29.9942 30H24.6154V21.5498C24.6154 19.5359 24.5748 16.9533 21.8129 16.9533C19.0104 16.9533 18.5809 19.1413 18.5809 21.4047V30H13.1963V12.6411H18.3662V15.009H18.4416C19.1612 13.6452 20.9192 12.2059 23.5418 12.2059C28.9971 12.2059 30 15.7983 30 20.4645V30H29.9942Z" />
</svg>
