<svg viewBox="0 0 34 16" fill="none" xmlns="http://www.w3.org/2000/svg">
<path d="M34 11.2692C33.9721 11.4737 33.9483 11.6793 33.9036 11.8811C33.6895 12.8371 33.1676 13.6899 32.423 14.3001C31.6785 14.9103 30.7555 15.242 29.8047 15.2408C27.5596 15.2408 25.3145 15.2464 23.0695 15.236C21.481 15.2289 19.8925 15.2276 18.3042 15.2322C18.1623 15.2322 18.0263 15.1742 17.9259 15.0708C17.8255 14.9674 17.7689 14.8272 17.7686 14.6808C17.7732 12.2534 17.7741 9.82571 17.7711 7.39788V1.08548C17.7711 0.765518 17.8487 0.641532 18.1383 0.523411C18.7034 0.29221 19.2947 0.135696 19.8979 0.0575938C20.0702 0.0357295 20.2449 0.0189313 20.4185 0H21.2993C21.3114 0.00439289 21.3239 0.00751947 21.3365 0.00933233C21.5884 0.0206728 21.8393 0.0497147 22.0874 0.0962564C23.7458 0.398446 25.1482 1.18672 26.2946 2.46107C26.9786 3.22432 27.5017 4.1257 27.8309 5.10825C28.0189 5.65986 28.1419 6.23281 28.1973 6.81474C28.2069 6.9174 28.2125 6.92139 28.3027 6.88487C28.8573 6.66346 29.4511 6.56626 30.0448 6.59972C30.6385 6.63318 31.2186 6.79653 31.7465 7.07893C32.2744 7.36133 32.738 7.75634 33.1067 8.23774C33.4754 8.71915 33.7407 9.27595 33.885 9.87121C33.9358 10.1013 33.9742 10.334 34 10.5685V11.2692Z" fill="white"/>
<path d="M17.5961 11.0163C17.5961 11.4146 17.5605 11.8114 17.5367 12.2084C17.5199 12.4919 17.5044 12.7753 17.4879 13.0587C17.462 13.488 17.4362 13.917 17.4129 14.3461C17.4044 14.5023 17.4062 14.6599 17.3796 14.814C17.3398 15.0438 17.1246 15.2198 16.9099 15.207C16.7941 15.2024 16.684 15.1538 16.6007 15.0707C16.5174 14.9876 16.4666 14.8757 16.4582 14.7564C16.436 14.3725 16.4171 13.988 16.3959 13.604C16.3618 12.9921 16.329 12.3799 16.2926 11.7682C16.2651 11.2594 16.2633 10.7494 16.2872 10.2404C16.2872 10.2244 16.2872 10.2084 16.2885 10.1926C16.2952 9.73055 16.3011 9.26846 16.3091 8.80611C16.3184 8.26697 16.3288 7.72801 16.3401 7.18922C16.3501 6.66359 16.3603 6.13795 16.3706 5.61232C16.3813 5.07584 16.3917 4.53955 16.4019 4.00342C16.4122 3.47761 16.4161 2.9518 16.435 2.42626C16.4463 2.10789 16.435 1.78899 16.4574 1.4709C16.4763 1.20266 16.6791 0.996546 16.9298 1.00055C17.0523 1.00426 17.1689 1.0563 17.2554 1.14598C17.3419 1.23565 17.3918 1.35613 17.3948 1.48263C17.4 1.63941 17.4016 1.79593 17.406 1.95244C17.4178 2.37453 17.4181 2.79689 17.429 3.21898C17.4421 3.72879 17.4509 4.2386 17.4612 4.74815C17.4708 5.22089 17.4824 5.69338 17.4917 6.16586C17.5016 6.66767 17.512 7.1694 17.523 7.67103C17.5323 8.12245 17.546 8.5736 17.5525 9.02502C17.5597 9.55066 17.5705 10.0763 17.585 10.6019C17.5871 10.74 17.592 10.8782 17.5961 11.0163Z" fill="white"/>
<path d="M16.1125 10.9728C16.1174 11.4615 16.0776 11.9484 16.0523 12.4361C16.0409 12.6561 16.0306 12.876 16.0195 13.096C15.9943 13.5834 15.9691 14.0709 15.9438 14.5585C15.9391 14.6487 15.9438 14.7391 15.9301 14.8289C15.8903 15.0705 15.6991 15.2374 15.4722 15.2257C15.3616 15.2188 15.2573 15.1695 15.1801 15.0874C15.1028 15.0053 15.0581 14.8964 15.0547 14.782C15.0358 14.4031 15.0227 14.0237 15.0051 13.6448C14.9821 13.1491 14.9557 12.6537 14.9335 12.1577C14.9077 11.5586 14.8762 10.9592 14.9108 10.3587C14.9108 10.3403 14.9108 10.3217 14.9108 10.303C14.9178 9.80118 14.9234 9.29936 14.9317 8.79755C14.9408 8.23201 14.9521 7.66647 14.9625 7.10093C14.9728 6.53539 14.9829 5.97545 14.9932 5.41258C15.0035 4.84971 15.0136 4.28683 15.0242 3.72423C15.033 3.25948 15.0433 2.79499 15.0516 2.33051C15.0565 2.05027 15.2325 1.84629 15.4792 1.84283C15.741 1.83909 15.9265 2.02947 15.9368 2.31584C15.9451 2.54142 15.9433 2.76726 15.95 2.99284C15.9634 3.43332 15.9619 3.87434 15.9732 4.3151C15.9867 4.82998 15.9944 5.34512 16.0053 5.86C16.0154 6.35381 16.0256 6.84754 16.0358 7.34117C16.0458 7.85667 16.0562 8.37173 16.067 8.88634C16.0769 9.37722 16.0898 9.86837 16.098 10.3595C16.1027 10.5638 16.1097 10.7683 16.1125 10.9728Z" fill="white"/>
<path d="M13.474 11.0793C13.4877 10.4481 13.4999 9.88526 13.512 9.32265C13.5208 8.94296 13.5311 8.56354 13.5402 8.18411C13.5515 7.70896 13.5626 7.2339 13.5735 6.75893C13.5831 6.36093 13.5929 5.96284 13.6027 5.56466C13.6138 5.10817 13.6213 4.65142 13.6368 4.19521C13.642 4.04136 13.644 3.88751 13.6482 3.73339C13.6551 3.47235 13.829 3.29157 14.0709 3.29397C14.3001 3.2961 14.4683 3.48062 14.474 3.73685C14.4843 4.18267 14.4926 4.62849 14.507 5.07431C14.5256 5.64732 14.5386 6.22085 14.5541 6.79386C14.5696 7.36686 14.5851 7.94547 14.6006 8.52141C14.6161 9.09175 14.6352 9.66209 14.646 10.233C14.6512 10.5009 14.668 10.7686 14.6719 11.0366C14.6776 11.4243 14.6373 11.8099 14.6171 12.197C14.6068 12.3983 14.5944 12.5996 14.583 12.8009C14.5578 13.2487 14.5327 13.6963 14.5075 14.1437C14.4953 14.3617 14.484 14.579 14.4737 14.7957C14.4631 15.0135 14.3293 15.1751 14.1262 15.2127C14.0353 15.2283 13.942 15.2116 13.8614 15.1654C13.7809 15.1192 13.7179 15.0462 13.6828 14.9583C13.6629 14.9091 13.6515 14.8567 13.6492 14.8034C13.6319 14.4568 13.6172 14.1101 13.5993 13.7619C13.5766 13.3086 13.5515 12.8553 13.5278 12.4021C13.5161 12.1767 13.5019 11.9517 13.4949 11.7261C13.4875 11.4883 13.4616 11.2502 13.474 11.0793Z" fill="white"/>
<path d="M13.2413 11.0492C13.2369 11.4451 13.2036 11.8224 13.1801 12.2019C13.163 12.477 13.1473 12.7525 13.1305 13.0284C13.106 13.4257 13.0813 13.8228 13.0563 14.2198C13.0444 14.4131 13.0305 14.6061 13.023 14.7997C13.0126 15.0397 12.8548 15.2122 12.638 15.2117C12.4212 15.2111 12.2667 15.0389 12.2551 14.7984C12.2347 14.3718 12.2073 13.9451 12.1835 13.5185C12.1662 13.2034 12.1504 12.8879 12.1334 12.5728C12.1094 12.1331 12.0771 11.6928 12.0628 11.2537C12.0538 10.9756 12.0649 10.6964 12.0789 10.418C12.0905 10.1821 12.0864 9.94583 12.098 9.70986C12.1143 9.38643 12.1119 9.06219 12.1197 8.73849C12.135 8.09358 12.151 7.44876 12.1677 6.80403C12.1776 6.41652 12.1875 6.02909 12.1975 5.64176C12.2131 5.01569 12.229 4.38954 12.245 3.76329C12.2478 3.6545 12.2533 3.54571 12.2564 3.43693C12.2626 3.21268 12.422 3.04203 12.6287 3.0391C12.8426 3.03617 13.0093 3.19908 13.0209 3.42493C13.0268 3.53603 13.0311 3.6473 13.0338 3.75876C13.046 4.24724 13.0568 4.73545 13.0697 5.22367C13.0844 5.77294 13.0999 6.32213 13.1163 6.87123C13.1316 7.40717 13.1469 7.94311 13.1622 8.47906C13.178 9.0254 13.1927 9.57227 13.2093 10.1186C13.2188 10.434 13.231 10.7497 13.2413 11.0492Z" fill="white"/>
<path d="M10.6631 11.095C10.6812 10.3649 10.6978 9.68182 10.7148 9.00082C10.7236 8.65579 10.7339 8.31103 10.7432 7.966C10.7594 7.35575 10.7755 6.74542 10.7916 6.135C10.8014 5.76633 10.8114 5.39748 10.8215 5.02845C10.8374 4.44753 10.8532 3.86644 10.8691 3.28517C10.87 3.23471 10.8761 3.18448 10.8872 3.13532C10.9064 3.05752 10.9502 2.98855 11.0116 2.93929C11.073 2.89002 11.1486 2.86328 11.2264 2.86328C11.3042 2.86328 11.3798 2.89002 11.4412 2.93929C11.5027 2.98855 11.5464 3.05752 11.5657 3.13532C11.575 3.17129 11.5804 3.20823 11.5817 3.24544C11.5938 3.6646 11.6039 4.08375 11.616 4.50317C11.6365 5.20639 11.6575 5.90942 11.6788 6.61228C11.6884 6.92265 11.699 7.23301 11.7083 7.54365C11.7297 8.25717 11.7489 8.97096 11.7724 9.68448C11.783 10.0028 11.7982 10.3209 11.8018 10.6396C11.8042 10.8068 11.8163 10.9739 11.8158 11.1411C11.8158 11.4651 11.7791 11.7872 11.7595 12.1101C11.7432 12.3749 11.7253 12.6394 11.7078 12.9041C11.6835 13.2668 11.6582 13.6291 11.6341 13.9918C11.6169 14.2584 11.6003 14.5257 11.5843 14.7938C11.5841 14.8683 11.569 14.942 11.5401 15.0103C11.5071 15.0817 11.4522 15.1399 11.3839 15.1757C11.3156 15.2116 11.2377 15.2232 11.1623 15.2087C11.0907 15.1957 11.0249 15.1596 10.9744 15.1055C10.924 15.0515 10.8914 14.9823 10.8815 14.9079C10.8665 14.7871 10.86 14.665 10.853 14.5434C10.8301 14.1435 10.8102 13.7435 10.7864 13.3436C10.7533 12.7823 10.7156 12.2213 10.6846 11.6597C10.6737 11.4555 10.6523 11.2518 10.6631 11.095Z" fill="white"/>
<path d="M9.27246 11.1539C9.29106 10.4777 9.30734 9.88048 9.32414 9.28347C9.33292 8.97577 9.34352 8.66807 9.35256 8.36011C9.36978 7.8135 9.38598 7.26689 9.40113 6.72028C9.41595 6.22433 9.43093 5.72821 9.44609 5.23191C9.46211 4.69863 9.47805 4.16535 9.49389 3.63208C9.49596 3.57102 9.50061 3.51022 9.50604 3.44943C9.51509 3.3667 9.5537 3.29042 9.61433 3.2355C9.67496 3.18057 9.75326 3.15094 9.83392 3.15239C9.91593 3.15615 9.99363 3.19136 10.0518 3.25114C10.11 3.31092 10.1444 3.39095 10.1484 3.47556C10.1584 3.69287 10.1685 3.91045 10.1742 4.12776C10.1871 4.53651 10.1972 4.94527 10.2104 5.35429C10.2302 5.97503 10.251 6.59585 10.2727 7.21676C10.2876 7.6624 10.3028 8.10804 10.3181 8.55369C10.3393 9.17424 10.3602 9.7948 10.3809 10.4154C10.3884 10.6287 10.4011 10.8396 10.4068 11.0518C10.4155 11.355 10.3721 11.6555 10.3551 11.9584C10.3419 12.2101 10.3189 12.461 10.3006 12.7124C10.2706 13.1277 10.2408 13.543 10.2112 13.9584C10.1907 14.2644 10.1697 14.5709 10.1484 14.8781C10.1355 15.0661 9.99644 15.2095 9.82591 15.2095C9.65538 15.2095 9.51741 15.0733 9.50475 14.8797C9.47787 14.4746 9.45204 14.0695 9.42723 13.6646C9.39054 13.082 9.3554 12.4994 9.31742 11.9171C9.29933 11.6366 9.27375 11.3563 9.27246 11.1539Z" fill="white"/>
<path d="M7.89658 11.0767C7.91915 10.3924 7.94171 9.708 7.96428 9.02363C7.97823 8.60981 7.99399 8.19706 8.0082 7.78217C8.02991 7.16143 8.05135 6.54061 8.07254 5.9197C8.08701 5.5009 8.10191 5.08183 8.11724 4.6625C8.12473 4.46092 8.13042 4.25908 8.1454 4.05803C8.14964 3.9814 8.1822 3.90937 8.23638 3.85678C8.29056 3.8042 8.36222 3.77506 8.4366 3.77539C8.51209 3.77671 8.58422 3.80786 8.63811 3.86243C8.692 3.917 8.72354 3.99083 8.72625 4.0687C8.74356 4.38413 8.75751 4.69956 8.76991 5.01526C8.79291 5.61466 8.81358 6.21513 8.8358 6.81374C8.85027 7.20089 8.86629 7.58699 8.88153 7.97521C8.90255 8.50316 8.92339 9.03101 8.94406 9.55878C8.95931 9.94327 8.96396 10.3286 8.99238 10.7123C9.03062 11.2295 8.96654 11.7401 8.92959 12.2532C8.90358 12.6264 8.87645 12.9997 8.8482 13.373C8.82004 13.7487 8.78955 14.1242 8.76035 14.4996C8.74898 14.6449 8.74097 14.7908 8.72625 14.9358C8.7214 15.0124 8.68802 15.084 8.63311 15.1358C8.57821 15.1875 8.50602 15.2153 8.43169 15.2134C8.35869 15.214 8.28824 15.1857 8.23494 15.1342C8.18164 15.0827 8.14958 15.0121 8.1454 14.9369C8.12189 14.6593 8.10406 14.3812 8.08494 14.1034C8.05997 13.7411 8.03533 13.3785 8.01105 13.0157C7.99503 12.78 7.97849 12.5446 7.9635 12.3089C7.94059 11.9489 7.91837 11.5888 7.89684 11.2285C7.894 11.1778 7.89658 11.1271 7.89658 11.0767Z" fill="white"/>
<path d="M6.52344 11.1646C6.54928 10.6473 6.57511 10.141 6.59837 9.63489C6.61 9.39358 6.62007 9.15254 6.63118 8.91123C6.65616 8.36516 6.68139 7.81917 6.70689 7.27328C6.71851 7.0213 6.72885 6.76933 6.73996 6.51762C6.75598 6.14913 6.77071 5.78064 6.78905 5.41214C6.79706 5.24843 6.91644 5.12657 7.05777 5.12844C7.1991 5.13031 7.31305 5.25483 7.32132 5.41694C7.34698 5.92035 7.37282 6.42377 7.39883 6.92718C7.4245 7.41993 7.45034 7.91267 7.47635 8.40542C7.50219 8.90617 7.52802 9.40718 7.55386 9.90793C7.57634 10.3289 7.60916 10.75 7.62052 11.1715C7.62595 11.3744 7.59339 11.5784 7.57712 11.7821C7.55386 12.0754 7.52932 12.3687 7.50529 12.662C7.47618 13.0215 7.44689 13.381 7.41744 13.7406C7.39496 14.0208 7.37325 14.3005 7.35077 14.5813C7.3407 14.7082 7.33243 14.8354 7.31796 14.9618C7.31017 15.0257 7.2815 15.0849 7.23669 15.1297C7.19187 15.1745 7.13359 15.2022 7.07146 15.2082C7.00887 15.2131 6.94673 15.1938 6.89709 15.1542C6.84745 15.1145 6.81383 15.0573 6.80275 14.9935C6.77691 14.8266 6.76916 14.6562 6.75676 14.4869C6.72058 13.995 6.68536 13.503 6.65108 13.0108C6.62834 12.6852 6.60767 12.3597 6.58467 12.0341C6.56685 11.7829 6.54695 11.5318 6.52835 11.2806C6.5255 11.2395 6.52473 11.1971 6.52344 11.1646Z" fill="white"/>
<path d="M6.243 11.2277C6.21355 11.569 6.18203 11.9281 6.15102 12.2873C6.12846 12.549 6.10606 12.8105 6.08384 13.072C6.05473 13.4128 6.02536 13.7536 5.99574 14.0943C5.97326 14.3559 5.95155 14.6175 5.92907 14.879C5.92671 14.9161 5.92162 14.9529 5.91383 14.9892C5.90156 15.0426 5.87228 15.0902 5.83068 15.1243C5.78908 15.1585 5.73756 15.1773 5.68439 15.1777C5.62951 15.1778 5.57646 15.1573 5.53504 15.1202C5.49362 15.083 5.46664 15.0317 5.45908 14.9756C5.43738 14.7993 5.42575 14.622 5.41206 14.4447C5.38157 14.0536 5.35177 13.6625 5.32266 13.2715C5.29992 12.9672 5.27873 12.663 5.256 12.3588C5.22783 11.9855 5.19218 11.6138 5.17254 11.2405C5.16453 11.0853 5.18779 10.9285 5.19993 10.7725C5.22267 10.4739 5.24773 10.1753 5.27202 9.87663C5.30121 9.51454 5.33119 9.15244 5.35987 8.79035C5.3826 8.50478 5.40379 8.21921 5.42653 7.93364C5.43531 7.82272 5.44229 7.71126 5.45779 7.60141C5.46465 7.54395 5.49157 7.49104 5.53353 7.4526C5.57548 7.41417 5.62958 7.39285 5.68568 7.39263C5.74048 7.39144 5.79384 7.41081 5.83584 7.44715C5.87785 7.48349 5.90565 7.53432 5.91409 7.59021C5.94122 7.78672 5.95646 7.98537 5.97481 8.18321C6.01029 8.56344 6.04474 8.94367 6.07816 9.32389C6.10632 9.64066 6.13319 9.95769 6.1611 10.2747C6.18694 10.568 6.21277 10.8613 6.23861 11.1546C6.24145 11.1722 6.24145 11.1909 6.243 11.2277Z" fill="white"/>
<path d="M4.87969 11.1879C4.85678 11.4417 4.83387 11.6953 4.81096 11.9486C4.78253 12.2576 4.75308 12.5664 4.7244 12.8752L4.62105 13.9999L4.53966 14.8872C4.527 15.0259 4.45103 15.1115 4.33657 15.1152C4.22211 15.1189 4.1402 15.0427 4.12573 14.9072C4.10144 14.6779 4.0862 14.4478 4.06708 14.218C4.03797 13.8639 4.00886 13.5098 3.97975 13.1557C3.95701 12.8754 3.93556 12.5957 3.91283 12.315C3.88415 11.9582 3.85211 11.6017 3.82679 11.2447C3.81516 11.0775 3.84617 10.9114 3.85702 10.745C3.87691 10.4408 3.9043 10.1368 3.92833 9.83284C3.95779 9.46541 3.98707 9.09798 4.01618 8.73056C4.03892 8.44223 4.06105 8.154 4.08258 7.86585C4.09447 7.70587 4.10584 7.54855 4.11798 7.3899C4.12002 7.36871 4.12347 7.34768 4.12832 7.32698C4.15157 7.21419 4.2389 7.13873 4.33941 7.1438C4.39015 7.14782 4.43786 7.17028 4.47405 7.20719C4.51024 7.2441 4.53257 7.29307 4.53707 7.34537C4.56033 7.57468 4.57971 7.80452 4.60038 8.03437C4.63483 8.42259 4.66928 8.81082 4.70373 9.19904C4.73189 9.51901 4.75799 9.83897 4.78641 10.1589C4.81406 10.473 4.84325 10.7874 4.87193 11.1015C4.87478 11.1298 4.8771 11.1588 4.87969 11.1879Z" fill="white"/>
<path d="M2.48828 11.1872C2.51257 10.8984 2.53582 10.6155 2.55985 10.334C2.58285 10.0644 2.60662 9.79509 2.62962 9.52578C2.65907 9.18235 2.68853 8.83892 2.71798 8.49549C2.74589 8.16513 2.77379 7.83503 2.79989 7.5044C2.81074 7.36601 2.87068 7.28549 2.97404 7.28069C2.99734 7.27906 3.02072 7.28224 3.04282 7.29004C3.06492 7.29784 3.08529 7.3101 3.10275 7.32611C3.12021 7.34212 3.13441 7.36155 3.14452 7.38328C3.15462 7.40501 3.16044 7.4286 3.16162 7.45267C3.19004 7.71931 3.21459 7.98595 3.24068 8.25258C3.27513 8.60348 3.30959 8.95447 3.34404 9.30554C3.37711 9.6511 3.40992 9.99684 3.44248 10.3428C3.4647 10.575 3.4802 10.808 3.51017 11.0392C3.53601 11.2355 3.49881 11.4256 3.48175 11.6178C3.45204 11.9557 3.41509 12.2932 3.38098 12.6311L3.26161 13.8099C3.2294 14.1318 3.19719 14.4536 3.16498 14.7754C3.15258 14.8991 3.08281 14.9748 2.98411 14.9735C2.88541 14.9721 2.8141 14.8959 2.80325 14.7727C2.76036 14.2815 2.71927 13.7899 2.67587 13.2987C2.62703 12.7468 2.57613 12.1951 2.52678 11.6432C2.51179 11.488 2.50017 11.3347 2.48828 11.1872Z" fill="white"/>
<path d="M2.17842 11.1945C2.15517 11.3852 2.1314 11.5825 2.10711 11.7795C2.05268 12.2225 1.99807 12.6645 1.94329 13.1055C1.89601 13.4895 1.8495 13.8737 1.80119 14.2577C1.78852 14.3577 1.72625 14.4211 1.64977 14.4209C1.57329 14.4206 1.51309 14.3651 1.50017 14.2587C1.46684 13.9905 1.43919 13.7215 1.40974 13.4527C1.36512 13.0469 1.32086 12.641 1.27693 12.2352C1.23947 11.8926 1.19141 11.5508 1.1697 11.2073C1.15937 11.0428 1.19787 10.8754 1.21544 10.7092C1.25419 10.3402 1.2933 9.97119 1.33274 9.60216C1.37046 9.24096 1.40905 8.87984 1.4485 8.51881C1.46503 8.36309 1.47976 8.20738 1.50017 8.05246C1.51412 7.94794 1.57278 7.89248 1.65287 7.89408C1.73297 7.89568 1.7893 7.96047 1.80144 8.06046C1.85984 8.54201 1.91642 9.02382 1.97456 9.50537C2.03364 9.99492 2.09324 10.4844 2.15336 10.9738C2.1624 11.0447 2.16989 11.1159 2.17842 11.1945Z" fill="white"/>
<path d="M0 11.1845C0.023771 10.9978 0.0478003 10.8061 0.0720881 10.6141C0.126692 10.1859 0.181297 9.75759 0.235901 9.32919C0.239518 9.3004 0.243653 9.2716 0.249337 9.24307C0.266907 9.15481 0.320908 9.10042 0.390929 9.09962C0.46095 9.09882 0.520119 9.15535 0.536139 9.24814C0.55836 9.38145 0.578255 9.51477 0.598409 9.64809C0.672822 10.1407 0.747063 10.6331 0.821132 11.1253C0.840511 11.2525 0.802012 11.3724 0.783926 11.4946C0.704345 12.0265 0.621146 12.5576 0.538464 13.0888C0.522186 13.1954 0.467152 13.2509 0.388346 13.2488C0.313674 13.2472 0.261739 13.1954 0.247012 13.0888C0.199986 12.7478 0.156578 12.4062 0.11162 12.0646C0.0771696 11.8048 0.0434079 11.5447 0.0103352 11.2845C0.00620113 11.2535 0.0038757 11.2218 0 11.1845Z" fill="white"/>
</svg>
