<svg width="668" height="668" viewBox="0 0 668 668" fill="none" xmlns="http://www.w3.org/2000/svg">
<path d="M115.6 270.8V533.6H238V135.2H157.6C125.8 153.8 91.6 171.2 64 185V293C78.4 287.6 98.8 278.6 115.6 270.8Z" fill="black"/>
<path d="M454.206 540.8C532.206 540.8 603.006 493.4 603.006 421.4C603.006 374 582.606 335 544.806 321.8C577.206 306.8 596.406 269 596.406 236.6C596.406 155 507.006 128 452.406 128C366.006 128 315.006 173 303.606 242L412.806 266.6V262.4C412.806 244.4 426.006 228.2 444.606 228.2C461.406 228.2 474.606 241.4 474.606 257C474.606 285.8 450.006 294.2 418.806 294.8V375.8C424.206 374.6 432.606 374.6 435.006 374.6C467.406 374.6 478.806 389.6 478.806 408.8C478.806 427.4 464.406 440.6 446.406 440.6C420.606 440.6 405.006 422 405.006 391.4L294.606 401C306.006 490.4 361.806 540.8 454.206 540.8Z" fill="black"/>
</svg>
