<svg width="668" height="668" viewBox="0 0 668 668" fill="none" xmlns="http://www.w3.org/2000/svg">
<path d="M36.995 227.361V668H124.751V0H67.1072C44.3079 31.1868 19.788 60.3614 0 83.5V264.584C10.3242 255.53 24.9501 240.44 36.995 227.361Z" fill="black"/>
<path d="M290.946 520.114V668H370.098V520.114H408.383V362.169H370.098V0H272.448C236.744 122.735 200.179 235.41 164.044 345.066V520.114H290.946ZM290.946 362.169H250.079L249.649 359.151C257.392 334 285.353 223.337 288.365 203.217H290.946V362.169Z" fill="black"/>
<path d="M550.562 520.114V668H629.715V520.114H668V362.169H629.715V0H532.065C496.361 122.735 459.796 235.41 423.661 345.066V520.114H550.562ZM550.562 362.169H509.696L509.266 359.151C517.009 334 544.97 223.337 547.981 203.217H550.562V362.169Z" fill="black"/>
</svg>
