<svg width="668" height="668" viewBox="0 0 668 668" fill="none" xmlns="http://www.w3.org/2000/svg">
<g clip-path="url(#clip0_104_19)">
<path d="M30.9841 537.562V668H668V506.929H390.805C441.446 471.355 512.078 423.923 557.388 378.467C613.361 322.142 644.012 265.817 644.012 193.68C644.012 61.2663 481.426 0 324.171 0C152.257 0 -1 83.9941 -1 223.325C-1 226.29 -1 230.243 0.332667 235.183L269.532 246.053C268.199 238.148 268.199 224.314 268.199 213.444C268.199 180.834 292.187 165.024 314.843 165.024C340.163 165.024 365.484 174.905 365.484 201.586C365.484 269.769 242.878 365.621 196.235 408.112C148.259 450.604 90.9542 490.13 30.9841 537.562Z" fill="black"/>
</g>
<defs>
<clipPath id="clip0_104_19">
<rect width="668" height="668" fill="white"/>
</clipPath>
</defs>
</svg>
