<svg width="668" height="668" viewBox="0 0 668 668" fill="none" xmlns="http://www.w3.org/2000/svg">
<g clip-path="url(#clip0_104_27)">
<path d="M18.7894 537.562V668H393.012V506.929H230.17C259.92 471.355 301.414 423.923 328.032 378.467C360.913 322.142 378.92 265.817 378.92 193.68C378.92 61.2663 283.407 0 191.026 0C90.0327 0 0 83.9941 0 223.325C0 226.29 0 230.243 0.782891 235.183L158.927 246.053C158.144 238.148 158.144 224.314 158.144 213.444C158.144 180.834 172.236 165.024 185.546 165.024C200.42 165.024 215.295 174.905 215.295 201.586C215.295 269.769 143.269 365.621 115.868 408.112C87.684 450.604 54.0196 490.13 18.7894 537.562Z" fill="black"/>
<path d="M509.29 235.183V668H669V11.858H564.092C522.599 42.4912 477.974 71.1479 441.961 93.8758V271.746C460.751 262.852 487.369 248.03 509.29 235.183Z" fill="black"/>
</g>
<defs>
<clipPath id="clip0_104_27">
<rect width="668" height="668" fill="white"/>
</clipPath>
</defs>
</svg>
