<svg width="668" height="668" viewBox="0 0 668 668" fill="none" xmlns="http://www.w3.org/2000/svg">
<path d="M9.79535 527.395V655.366H204.886V497.342H119.993C135.502 462.44 157.134 415.906 171.01 371.31C188.152 316.049 197.54 260.789 197.54 190.017C197.54 60.1076 147.746 0 99.586 0C46.9361 0 0 82.4056 0 219.102C0 222.01 0 225.888 0.408139 230.735L82.8523 241.4C82.4442 233.644 82.4442 220.071 82.4442 209.407C82.4442 177.414 89.7907 161.903 96.7291 161.903C104.484 161.903 112.238 171.597 112.238 197.773C112.238 264.667 74.6895 358.706 60.4046 400.394C45.7116 442.081 28.1616 480.86 9.79535 527.395Z" fill="black"/>
<path d="M331.623 667C384.681 667 432.842 590.411 432.842 474.074C432.842 397.485 418.965 334.469 393.252 313.141C415.291 288.904 428.352 227.827 428.352 175.475C428.352 43.6265 367.539 0 330.398 0C271.626 0 236.935 72.7108 229.18 184.201L303.461 223.949V217.163C303.461 188.079 312.44 161.903 325.093 161.903C336.521 161.903 345.5 183.231 345.5 208.438C345.5 254.972 328.766 268.545 307.543 269.515V400.394C311.216 398.455 316.93 398.455 318.562 398.455C340.602 398.455 348.357 422.692 348.357 453.715C348.357 483.769 338.561 505.097 326.317 505.097C308.767 505.097 298.155 475.044 298.155 425.6L223.058 441.112C230.812 585.564 268.769 667 331.623 667Z" fill="black"/>
<path d="M566.781 667C619.84 667 668 590.411 668 474.074C668 397.485 654.123 334.469 628.41 313.141C650.45 288.904 663.51 227.827 663.51 175.475C663.51 43.6265 602.698 0 565.557 0C506.785 0 472.093 72.7108 464.338 184.201L538.62 223.949V217.163C538.62 188.079 547.599 161.903 560.251 161.903C571.679 161.903 580.658 183.231 580.658 208.438C580.658 254.972 563.924 268.545 542.701 269.515V400.394C546.374 398.455 552.088 398.455 553.721 398.455C575.76 398.455 583.515 422.692 583.515 453.715C583.515 483.769 573.72 505.097 561.476 505.097C543.926 505.097 533.314 475.044 533.314 425.6L458.216 441.112C465.971 585.564 503.928 667 566.781 667Z" fill="black"/>
</svg>
