<svg width="668" height="668" viewBox="0 0 668 668" fill="none" xmlns="http://www.w3.org/2000/svg">
<g clip-path="url(#clip0_104_23)">
<path d="M345.697 669C514.646 669 668 592.182 668 475.496C668 398.677 623.813 335.472 541.938 314.08C612.117 289.77 653.704 228.51 653.704 176.001C653.704 43.7573 460.062 0 341.798 0C154.654 0 44.1868 72.9288 19.4942 184.753L256.023 224.621V217.814C256.023 188.642 284.615 162.388 324.903 162.388C361.292 162.388 389.883 183.781 389.883 209.062C389.883 255.737 336.599 269.35 269.019 270.323V401.594C280.716 399.65 298.911 399.65 304.109 399.65C374.288 399.65 398.981 423.959 398.981 455.076C398.981 485.219 367.79 506.612 328.802 506.612C272.918 506.612 239.128 476.468 239.128 426.876L0 442.435C24.6926 587.32 145.556 669 345.697 669Z" fill="black"/>
</g>
<defs>
<clipPath id="clip0_104_23">
<rect width="668" height="668" fill="white"/>
</clipPath>
</defs>
</svg>
