<svg width="668" height="668" viewBox="0 0 668 668" fill="none" xmlns="http://www.w3.org/2000/svg">
<path d="M155.707 667C231.804 667 300.877 590.411 300.877 474.074C300.877 397.485 280.974 334.469 244.096 313.141C275.706 288.904 294.438 227.827 294.438 175.475C294.438 43.6265 207.219 0 153.951 0C69.6582 0 19.9023 72.7108 8.78045 184.201L115.317 223.949V217.163C115.317 188.079 128.195 161.903 146.341 161.903C162.731 161.903 175.609 183.231 175.609 208.438C175.609 254.972 151.609 268.545 121.17 269.515V400.394C126.438 398.455 134.634 398.455 136.975 398.455C168.585 398.455 179.707 422.692 179.707 453.715C179.707 483.769 165.658 505.097 148.097 505.097C122.926 505.097 107.707 475.044 107.707 425.6L0 441.112C11.1219 585.564 65.5607 667 155.707 667Z" fill="black"/>
<path d="M508.196 512.853V655.366H615.903V512.853H668V360.645H615.903V11.6337H483.025C434.44 129.91 384.684 238.491 335.514 344.164V512.853H508.196ZM508.196 360.645H452.586L452.001 357.737C462.538 333.5 500.586 226.858 504.684 207.468H508.196V360.645Z" fill="black"/>
</svg>
