<svg width="668" height="668" viewBox="0 0 668 668" fill="none" xmlns="http://www.w3.org/2000/svg">
<path d="M330.158 668C521.303 668 667 562.266 667 430.84C667 328.071 588.136 225.302 427.735 225.302C386.299 225.302 351.545 235.183 322.138 248.03C326.148 221.349 330.158 186.763 330.158 161.071H622.89L620.216 0H73.517C69.507 103.757 62.8236 229.254 52.1303 344.87L249.958 411.077C263.325 388.349 291.395 377.479 318.128 377.479C368.922 377.479 392.982 410.089 392.982 441.71C392.982 475.308 364.912 502.976 318.128 502.976C275.355 502.976 247.285 477.284 240.601 435.781L0 502.976C58.8136 615.627 195.154 668 330.158 668Z" fill="black"/>
</svg>
