<svg width="668" height="668" viewBox="0 0 668 668" fill="none" xmlns="http://www.w3.org/2000/svg">
<path d="M167.2 536.6C253 536.6 318.4 472.4 318.4 392.6C318.4 330.2 283 267.8 211 267.8C192.4 267.8 176.8 273.8 163.6 281.6C165.4 265.4 167.2 244.4 167.2 228.8H298.6L297.4 131H52C50.2 194 47.2 270.2 42.4 340.4L131.2 380.6C137.2 366.8 149.8 360.2 161.8 360.2C184.6 360.2 195.4 380 195.4 399.2C195.4 419.6 182.8 436.4 161.8 436.4C142.6 436.4 130 420.8 127 395.6L19 436.4C45.4 504.8 106.6 536.6 167.2 536.6Z" fill="black"/>
<path d="M497.083 536.6C582.883 536.6 648.283 472.4 648.283 392.6C648.283 330.2 612.883 267.8 540.883 267.8C522.283 267.8 506.683 273.8 493.483 281.6C495.283 265.4 497.083 244.4 497.083 228.8H628.483L627.283 131H381.883C380.083 194 377.083 270.2 372.283 340.4L461.083 380.6C467.083 366.8 479.683 360.2 491.683 360.2C514.483 360.2 525.283 380 525.283 399.2C525.283 419.6 512.683 436.4 491.683 436.4C472.483 436.4 459.883 420.8 456.883 395.6L348.883 436.4C375.283 504.8 436.483 536.6 497.083 536.6Z" fill="black"/>
</svg>
