<svg width="668" height="668" viewBox="0 0 668 668" fill="none" xmlns="http://www.w3.org/2000/svg">
<g clip-path="url(#clip0_104_15)">
<path d="M334 669C498.328 669 668 598.988 668 462.855C668 404.512 626.584 346.169 542.416 318.942C601.2 290.743 641.28 243.096 641.28 188.642C641.28 70.0117 495.656 0 334 0C172.344 0 26.72 70.0117 26.72 188.642C26.72 243.096 66.8 290.743 125.584 318.942C41.416 346.169 0 404.512 0 462.855C0 598.988 169.672 669 334 669ZM334 519.253C289.912 519.253 265.864 492.026 265.864 459.937C265.864 426.876 289.912 398.677 334 398.677C378.088 398.677 402.136 426.876 402.136 459.937C402.136 492.026 378.088 519.253 334 519.253ZM334 252.82C295.256 252.82 273.88 225.593 273.88 198.366C273.88 172.112 295.256 144.885 334 144.885C372.744 144.885 394.12 172.112 394.12 198.366C394.12 225.593 372.744 252.82 334 252.82Z" fill="black"/>
</g>
<defs>
<clipPath id="clip0_104_15">
<rect width="668" height="668" fill="white"/>
</clipPath>
</defs>
</svg>
