<svg width="668" height="668" viewBox="0 0 668 668" fill="none" xmlns="http://www.w3.org/2000/svg">
<g clip-path="url(#clip0_104_31)">
<path d="M154.925 632.242C228.687 632.242 304.849 566.077 304.849 437.423C304.849 382.286 286.258 327.148 248.477 301.418C274.864 274.768 292.855 229.739 292.855 178.277C292.855 66.1649 227.488 0 154.925 0C82.3611 0 16.994 66.1649 16.994 178.277C16.994 229.739 34.9849 274.768 61.3716 301.418C23.5906 327.148 5 382.286 5 437.423C5 566.077 81.1617 632.242 154.925 632.242ZM154.925 490.722C135.134 490.722 124.34 464.992 124.34 434.666C124.34 403.422 135.134 376.772 154.925 376.772C174.715 376.772 185.509 403.422 185.509 434.666C185.509 464.992 174.715 490.722 154.925 490.722ZM154.925 238.929C137.533 238.929 127.938 213.198 127.938 187.467C127.938 162.655 137.533 136.924 154.925 136.924C172.316 136.924 181.911 162.655 181.911 187.467C181.911 213.198 172.316 238.929 154.925 238.929Z" fill="black"/>
<path d="M389.538 532.994L427.918 669C552.656 598.24 663 468.668 663 260.065C663 101.085 588.637 0 495.684 0C402.131 0 342.162 105.68 342.162 229.739C342.162 340.933 401.532 424.558 469.897 424.558C489.687 424.558 505.279 415.368 520.272 399.746L520.872 400.665C496.284 463.154 451.906 500.831 389.538 532.994ZM502.281 277.525C478.293 277.525 463.301 249.037 463.301 210.441C463.301 178.277 479.492 147.952 499.882 147.952C525.069 147.952 544.86 175.521 544.86 228.82V238.01C532.866 269.254 519.672 277.525 502.281 277.525Z" fill="black"/>
</g>
<defs>
<clipPath id="clip0_104_31">
<rect width="668" height="668" fill="white"/>
</clipPath>
</defs>
</svg>
